<svg width="112" height="43" viewBox="0 0 112 43" fill="none" xmlns="http://www.w3.org/2000/svg">
<g clip-path="url(#clip0_223_19502)">
<g clip-path="url(#clip1_223_19502)">
<path d="M109.189 40.0745L103.581 33.6195H102.607V41.937H103.729V35.5454L109.295 41.937H110.31V33.6195H109.189V40.0745ZM93.316 41.9158H98.1415V40.8576H94.5012V38.2756H97.9086V37.2174H94.5012V34.6776H98.0144V33.6195H93.2948L93.316 41.9158ZM85.6122 38.8893H87.2207V40.6248L87.1148 40.6671C86.5646 40.8576 85.9932 40.9846 85.4005 41.0057C84.5116 41.048 83.6439 40.7095 82.9878 40.1168C81.7391 38.847 81.7391 36.7941 82.9878 35.5243C83.6016 34.9104 84.427 34.5719 85.2948 34.593C86.3318 34.6142 87.3688 34.9104 88.2577 35.4607V34.212C87.7498 33.9792 87.1996 33.8099 86.6704 33.6618C86.226 33.5559 85.7815 33.5136 85.3371 33.5136C84.1519 33.4713 82.9878 33.9157 82.1201 34.7623C81.2735 35.5666 80.8079 36.6882 80.829 37.8734C80.8079 38.9952 81.2524 40.0745 82.0777 40.8576C82.9032 41.6619 84.0037 42.064 85.3794 42.064C86.4376 42.064 87.4747 41.8312 88.4271 41.4079V37.8734H85.6333L85.6122 38.8893ZM72.1094 38.4025L73.3582 35.3972L74.6914 38.4025H72.1094ZM69.3581 41.9158H70.5856L71.6226 39.4608H75.1782L76.2788 41.9158H77.5063L73.7814 33.5347H72.9348L69.3581 41.9158ZM64.0881 37.1961H59.4109V33.5983H58.2257V41.9158H59.4109V38.2967H64.0881V41.9158H65.2733V33.5983H64.0881V37.1961ZM52.1304 40.0533L46.5219 33.5983H45.5483V41.9158H46.67V35.5243L52.2361 41.9158H53.2521V33.5983H52.1092V40.0533H52.1304ZM36.2573 41.9158H41.0827V40.8576H37.4424V38.2756H40.8498V37.2174H37.4424V34.6776H40.9768V33.6195H36.2573V41.9158ZM30.7968 35.9263C30.818 36.2862 30.6699 36.6459 30.3947 36.8999C30.0772 37.1538 29.6751 37.2597 29.273 37.2386H27.9608V34.6353H29.2096C30.2889 34.6565 30.818 35.0798 30.7968 35.9263ZM27.982 41.9158V38.3179H28.8709C29.4847 38.339 30.0984 38.2544 30.6911 38.0639C31.0931 37.8946 31.4529 37.6195 31.6858 37.2386C31.9397 36.8576 32.0667 36.4131 32.0455 35.9475C32.0667 35.2914 31.8127 34.6565 31.3259 34.212C30.7968 33.7675 30.1195 33.5347 29.4211 33.5772H26.7968V41.8947H27.982V41.9158ZM20.0666 35.503C20.6803 36.0745 21.019 36.8787 20.9978 37.7253C21.019 38.5718 20.6803 39.3973 20.0666 39.9899C18.7543 41.1962 16.7438 41.1962 15.4316 40.011C14.8178 39.4185 14.4792 38.6142 14.5004 37.7676C14.4792 36.921 14.7967 36.0745 15.4105 35.4818C16.0453 34.8681 16.892 34.5507 17.7596 34.593C18.6274 34.593 19.4528 34.9104 20.0666 35.503ZM14.5427 34.6988C13.6962 35.503 13.2306 36.6247 13.2729 37.7888C13.2517 38.9317 13.6962 40.0322 14.5215 40.8152C15.3682 41.6195 16.4898 42.0639 17.6539 42.0216C18.966 42.0216 20.0666 41.6195 20.9131 40.8152C21.7597 40.0322 22.2465 38.9317 22.2042 37.7676C22.2253 36.6036 21.7597 35.503 20.9131 34.6988C20.0454 33.8734 18.8814 33.4501 17.6962 33.4713C16.5321 33.429 15.3893 33.8734 14.5427 34.6988ZM6.05585 40.9211C5.18811 40.9634 4.32039 40.646 3.68546 40.0322C3.07169 39.4396 2.73307 38.6353 2.75423 37.7888C2.73307 36.9422 3.07169 36.1168 3.70662 35.5243C4.34155 34.9104 5.20928 34.593 6.07702 34.6142C7.0929 34.6353 8.06645 34.9316 8.91302 35.4395V34.1485C8.00296 33.7252 7.00824 33.4924 5.99236 33.4713C4.80717 33.4501 3.6643 33.8946 2.79656 34.7199C1.94999 35.503 1.48438 36.6247 1.50554 37.7676C1.50554 38.5084 1.69602 39.2491 2.07698 39.9052C2.43677 40.5401 2.98704 41.0904 3.62197 41.4502C4.34155 41.8524 5.16696 42.0427 5.99236 42.0004C7.05057 42.0216 8.08762 41.7676 9.01884 41.2809V39.9687C8.12995 40.5824 7.11407 40.9211 6.05585 40.9211Z" fill="black"/>
<path d="M56.4268 14.9314C57.1252 15.1853 57.739 15.6298 58.1835 16.2225C58.5855 16.7727 58.7972 17.45 58.7972 18.1484C58.7972 18.8256 58.5855 19.4817 58.2046 20.0531C57.8236 20.6246 57.2946 21.0902 56.6596 21.3653C56.0247 21.6405 54.7972 21.7887 52.9982 21.7887H49.7601V14.5082H52.8288C54.4585 14.5082 55.6649 14.6351 56.4268 14.9314ZM56.8078 7.96838C56.8501 8.9631 56.4268 9.91548 55.7072 10.5716C54.9664 11.2488 53.7178 11.5663 51.9612 11.5875H49.7601V4.66676H52.596C55.3898 4.66676 56.8078 5.76729 56.8078 7.96838ZM58.6278 23.8415C59.7073 23.3548 60.6174 22.5717 61.2945 21.5982C61.9084 20.6669 62.2258 19.5663 62.2046 18.4447C62.2258 17.0267 61.6967 15.6721 60.7231 14.6351C59.7284 13.5769 58.395 12.8785 56.723 12.5611C59.0512 11.5875 60.2364 9.95782 60.2364 7.71441C60.2998 5.471 59.0088 3.41806 56.9559 2.50801C55.8977 2.00006 54.4162 1.74609 52.5114 1.74609H46.4796V24.7305H54.268C56.0036 24.7305 57.4639 24.4342 58.6278 23.8415Z" fill="black"/>
<path d="M63.7286 24.7302C64.6385 24.7302 65.3581 23.9895 65.3581 23.1006C65.3581 22.1905 64.6174 21.4709 63.7286 21.4709C62.8185 21.4709 62.0989 22.2117 62.0989 23.1006C62.0989 23.9895 62.8185 24.7302 63.7286 24.7302Z" fill="black"/>
</g>
</g>
<defs>
<clipPath id="clip0_223_19502">
<rect width="110.607" height="41.8802" fill="white" transform="translate(0.674377 0.781982)"/>
</clipPath>
<clipPath id="clip1_223_19502">
<rect width="110.607" height="41.8802" fill="white" transform="translate(0.674377 0.781982)"/>
</clipPath>
</defs>
</svg>
