<svg width="105" height="38" viewBox="0 0 105 38" fill="none" xmlns="http://www.w3.org/2000/svg">
<g clip-path="url(#clip0_223_19448)">
<g clip-path="url(#clip1_223_19448)">
<path d="M0.677994 0.820801V16.8429L1.33142 19.2213L4.32412 20.698L4.36331 16.8429L4.33719 0.820801H0.677994Z" fill="black"/>
<path d="M32.3948 16.7514C32.3164 11.7461 23.4821 10.8835 16.5426 10.8052H16.5296C9.60329 10.8835 0.755886 11.7461 0.677475 16.7514C0.664407 17.5485 0.63827 19.3389 0.677475 20.8287C0.80816 26.7488 9.49874 26.9709 16.5296 26.9056C23.5604 26.9709 32.251 26.7488 32.3817 20.8287C32.434 19.3258 32.4079 17.5355 32.3948 16.7514ZM28.6964 20.2407C28.5919 24.2266 21.9138 24.3834 16.5165 24.3311C11.1192 24.3834 4.45428 24.2266 4.34973 20.2407C4.32359 19.2343 4.33666 18.0321 4.34973 17.4962C4.40201 14.1245 11.1976 13.5496 16.5165 13.4842C21.8485 13.5365 28.6311 14.1245 28.6834 17.4962C28.7095 18.0321 28.7226 19.2343 28.6964 20.2407Z" fill="black"/>
<path d="M72.278 10.792L98.0622 26.5788L103.839 26.5527L78.3157 10.792H72.278Z" fill="black"/>
<path d="M98.0884 10.8054L72.278 26.553H78.3026L103.852 10.8054H98.0884Z" fill="black"/>
<path d="M64.5291 18.594C64.5291 19.0252 64.5291 19.561 64.5291 19.9922C64.5291 23.6384 58.034 23.9521 57.1192 23.9651L55.7993 24.0174C50.8986 23.9651 45.7496 23.4162 45.6581 19.9269C45.645 19.4826 45.6581 0.50708 45.6581 0.50708L42.012 0.520149C42.012 0.520149 41.999 20.0576 41.999 20.7241C42.1297 26.5134 50.6111 26.618 57.5636 26.5396C57.5636 26.5396 67.8746 26.6834 67.8616 20.7241C67.8616 20.0445 67.8746 19.2735 67.8746 18.594H64.5291Z" fill="black"/>
<path d="M67.8891 10.7791H36.2633V14.0331H67.8891V10.7791Z" fill="black"/>
<path d="M68.9216 33.8321H69.4442C69.4312 34.0281 69.405 34.2503 69.405 34.4594V36.1452C69.405 36.7072 69.4442 37.2953 68.5164 37.5828C68.1766 37.6874 67.9544 37.7135 67.5624 37.7135C66.7914 37.7135 65.8896 37.5436 65.8896 36.9555H66.4385C66.5038 37.2953 67.0919 37.3998 67.6277 37.3998C68.2811 37.3998 68.8954 37.0861 68.9085 36.6157V36.0929H68.8823C68.634 36.4197 68.0589 36.6157 67.5101 36.6157C66.2424 36.6157 65.6936 35.9753 65.6936 35.1912C65.6936 34.4333 66.2032 33.7275 67.497 33.7275C68.1112 33.7275 68.5425 33.9236 68.8823 34.2503L68.8954 34.2242L68.9216 33.8321ZM67.5493 34.0543C66.6345 34.0543 66.2424 34.6684 66.2424 35.1912C66.2424 35.701 66.6345 36.3282 67.5624 36.3282C68.5295 36.3282 68.8954 35.7271 68.8954 35.1782C68.8954 34.6424 68.451 34.0543 67.5493 34.0543Z" fill="black"/>
<path d="M75.4947 36.6415H74.985V34.459C74.9981 34.2369 74.9589 34.0148 74.9458 33.8318H75.4686L75.4947 34.25H75.5078C75.6646 33.9625 76.0435 33.7664 76.4618 33.7534C76.6317 33.7534 76.8015 33.7534 76.9714 33.7534V34.0801C76.8668 34.0801 76.7623 34.054 76.6578 34.054C75.9128 34.054 75.5078 34.4069 75.4947 34.9557V36.6415Z" fill="black"/>
<path d="M85.767 35.2434C85.767 35.9883 85.1397 36.7332 83.7937 36.7332C82.4476 36.7332 81.8202 35.9753 81.8202 35.2434C81.8202 34.4985 82.4476 33.7536 83.7937 33.7536C85.1397 33.7405 85.767 34.4985 85.767 35.2434ZM83.7937 34.0542C82.7742 34.0542 82.3692 34.7207 82.3692 35.2434C82.3692 35.7661 82.7742 36.4326 83.7937 36.4326C84.813 36.4326 85.2181 35.7661 85.2181 35.2434C85.2181 34.7207 84.813 34.0542 83.7937 34.0542Z" fill="black"/>
<path d="M93.9734 33.832H94.483V36.0145C94.483 36.2366 94.5091 36.4588 94.5222 36.6549H93.9995L93.9734 36.2366L93.9603 36.2236C93.6597 36.5764 93.1892 36.7333 92.6404 36.7333C91.2551 36.7333 91.1505 35.923 91.1505 35.5963V33.832H91.6602V35.6486C91.6602 36.1321 92.0784 36.4196 92.7711 36.4196C93.6074 36.4196 93.9865 35.9491 93.9865 35.4525V33.832H93.9734Z" fill="black"/>
<path d="M100.573 37.7263H100.064V34.4722C100.077 34.2502 100.038 34.028 100.024 33.845H100.547L100.573 34.2632L100.586 34.2763C100.887 33.9496 101.475 33.7666 102.037 33.7666C103.292 33.7666 103.775 34.5245 103.775 35.2434C103.775 35.949 103.292 36.7462 102.063 36.7462C101.449 36.7462 100.939 36.5632 100.586 36.2235H100.573V37.7263ZM102.011 36.4194C102.978 36.4194 103.226 35.7007 103.226 35.1911C103.226 34.6552 102.899 34.0541 101.945 34.0541C100.965 34.0541 100.586 34.6029 100.586 35.1649C100.573 35.8053 100.913 36.4194 102.011 36.4194Z" fill="black"/>
</g>
</g>
<defs>
<clipPath id="clip0_223_19448">
<rect width="104.164" height="37.5848" fill="white" transform="translate(0.412964 0.141357)"/>
</clipPath>
<clipPath id="clip1_223_19448">
<rect width="104.164" height="37.5848" fill="white" transform="translate(0.412964 0.141357)"/>
</clipPath>
</defs>
</svg>
