<svg width="246" height="154" viewBox="0 0 246 154" fill="none" xmlns="http://www.w3.org/2000/svg">
<g filter="url(#filter0_d_223_19447)">
<rect x="40.0227" y="25" width="165" height="73.6864" rx="5" fill="white" shape-rendering="crispEdges"/>
<g clip-path="url(#clip0_223_19447)">
<g clip-path="url(#clip1_223_19447)">
<path d="M71.678 40.8208V56.8429L72.3314 59.2213L75.3241 60.698L75.3633 56.8429L75.3372 40.8208H71.678Z" fill="black"/>
<path d="M103.395 56.7514C103.316 51.7461 94.4821 50.8835 87.5426 50.8052H87.5296C80.6033 50.8835 71.7559 51.7461 71.6775 56.7514C71.6644 57.5485 71.6383 59.3389 71.6775 60.8287C71.8082 66.7488 80.4987 66.9709 87.5296 66.9056C94.5604 66.9709 103.251 66.7488 103.382 60.8287C103.434 59.3258 103.408 57.5355 103.395 56.7514ZM99.6964 60.2407C99.5919 64.2266 92.9138 64.3834 87.5165 64.3311C82.1192 64.3834 75.4543 64.2266 75.3497 60.2407C75.3236 59.2343 75.3367 58.0321 75.3497 57.4962C75.402 54.1245 82.1976 53.5496 87.5165 53.4842C92.8485 53.5365 99.6311 54.1245 99.6834 57.4962C99.7095 58.0321 99.7226 59.2343 99.6964 60.2407Z" fill="black"/>
<path d="M143.278 50.792L169.062 66.5788L174.839 66.5527L149.316 50.792H143.278Z" fill="black"/>
<path d="M169.088 50.8054L143.278 66.553H149.303L174.852 50.8054H169.088Z" fill="black"/>
<path d="M135.529 58.594C135.529 59.0252 135.529 59.561 135.529 59.9922C135.529 63.6384 129.034 63.9521 128.119 63.9651L126.799 64.0174C121.899 63.9651 116.75 63.4162 116.658 59.9269C116.645 59.4826 116.658 40.5071 116.658 40.5071L113.012 40.5201C113.012 40.5201 112.999 60.0576 112.999 60.7241C113.13 66.5134 121.611 66.618 128.564 66.5396C128.564 66.5396 138.875 66.6834 138.862 60.7241C138.862 60.0445 138.875 59.2735 138.875 58.594H135.529Z" fill="black"/>
<path d="M138.889 50.7791H107.263V54.0331H138.889V50.7791Z" fill="black"/>
<path d="M139.922 73.8321H140.444C140.431 74.0281 140.405 74.2503 140.405 74.4594V76.1452C140.405 76.7072 140.444 77.2953 139.516 77.5828C139.177 77.6874 138.954 77.7135 138.562 77.7135C137.791 77.7135 136.89 77.5436 136.89 76.9555H137.438C137.504 77.2953 138.092 77.3998 138.628 77.3998C139.281 77.3998 139.895 77.0861 139.908 76.6157V76.0929H139.882C139.634 76.4197 139.059 76.6157 138.51 76.6157C137.242 76.6157 136.694 75.9753 136.694 75.1912C136.694 74.4333 137.203 73.7275 138.497 73.7275C139.111 73.7275 139.542 73.9236 139.882 74.2503L139.895 74.2242L139.922 73.8321ZM138.549 74.0543C137.634 74.0543 137.242 74.6684 137.242 75.1912C137.242 75.701 137.634 76.3282 138.562 76.3282C139.529 76.3282 139.895 75.7271 139.895 75.1782C139.895 74.6424 139.451 74.0543 138.549 74.0543Z" fill="black"/>
<path d="M146.495 76.6415H145.985V74.459C145.998 74.2369 145.959 74.0148 145.946 73.8318H146.469L146.495 74.25H146.508C146.665 73.9625 147.044 73.7664 147.462 73.7534C147.632 73.7534 147.802 73.7534 147.971 73.7534V74.0801C147.867 74.0801 147.762 74.054 147.658 74.054C146.913 74.054 146.508 74.4069 146.495 74.9557V76.6415Z" fill="black"/>
<path d="M156.767 75.2434C156.767 75.9883 156.14 76.7332 154.794 76.7332C153.448 76.7332 152.82 75.9753 152.82 75.2434C152.82 74.4985 153.448 73.7536 154.794 73.7536C156.14 73.7405 156.767 74.4985 156.767 75.2434ZM154.794 74.0542C153.774 74.0542 153.369 74.7207 153.369 75.2434C153.369 75.7661 153.774 76.4326 154.794 76.4326C155.813 76.4326 156.218 75.7661 156.218 75.2434C156.218 74.7207 155.813 74.0542 154.794 74.0542Z" fill="black"/>
<path d="M164.973 73.832H165.483V76.0145C165.483 76.2366 165.509 76.4588 165.522 76.6549H164.999L164.973 76.2366L164.96 76.2236C164.66 76.5764 164.189 76.7333 163.64 76.7333C162.255 76.7333 162.151 75.923 162.151 75.5963V73.832H162.66V75.6486C162.66 76.1321 163.078 76.4196 163.771 76.4196C164.607 76.4196 164.986 75.9491 164.986 75.4525V73.832H164.973Z" fill="black"/>
<path d="M171.573 77.7263H171.064V74.4722C171.077 74.2502 171.038 74.028 171.024 73.845H171.547L171.573 74.2632L171.586 74.2763C171.887 73.9496 172.475 73.7666 173.037 73.7666C174.292 73.7666 174.775 74.5245 174.775 75.2434C174.775 75.949 174.292 76.7462 173.063 76.7462C172.449 76.7462 171.939 76.5632 171.586 76.2235H171.573V77.7263ZM173.011 76.4194C173.978 76.4194 174.226 75.7007 174.226 75.1911C174.226 74.6552 173.899 74.0541 172.945 74.0541C171.965 74.0541 171.586 74.6029 171.586 75.1649C171.573 75.8053 171.913 76.4194 173.011 76.4194Z" fill="black"/>
</g>
</g>
<rect x="40.2727" y="25.25" width="164.5" height="73.1864" rx="4.75" stroke="#CAD6F1" stroke-width="0.5" shape-rendering="crispEdges"/>
</g>
<defs>
<filter id="filter0_d_223_19447" x="0.0227356" y="0" width="245" height="153.687" filterUnits="userSpaceOnUse" color-interpolation-filters="sRGB">
<feFlood flood-opacity="0" result="BackgroundImageFix"/>
<feColorMatrix in="SourceAlpha" type="matrix" values="0 0 0 0 0 0 0 0 0 0 0 0 0 0 0 0 0 0 127 0" result="hardAlpha"/>
<feOffset dy="15"/>
<feGaussianBlur stdDeviation="20"/>
<feComposite in2="hardAlpha" operator="out"/>
<feColorMatrix type="matrix" values="0 0 0 0 0.0862745 0 0 0 0 0.0980392 0 0 0 0 0.309804 0 0 0 0.05 0"/>
<feBlend mode="normal" in2="BackgroundImageFix" result="effect1_dropShadow_223_19447"/>
<feBlend mode="normal" in="SourceGraphic" in2="effect1_dropShadow_223_19447" result="shape"/>
</filter>
<clipPath id="clip0_223_19447">
<rect width="104.164" height="37.5848" fill="white" transform="translate(71.413 40.1414)"/>
</clipPath>
<clipPath id="clip1_223_19447">
<rect width="104.164" height="37.5848" fill="white" transform="translate(71.413 40.1414)"/>
</clipPath>
</defs>
</svg>
