<svg width="246" height="155" viewBox="0 0 246 155" fill="none" xmlns="http://www.w3.org/2000/svg">
<g filter="url(#filter0_d_223_19501)">
<rect x="40.5061" y="25.7883" width="165" height="73.6864" rx="5" fill="white" shape-rendering="crispEdges"/>
<g clip-path="url(#clip0_223_19501)">
<g clip-path="url(#clip1_223_19501)">
<path d="M177.189 78.0745L171.581 71.6195H170.607V79.937H171.729V73.5454L177.295 79.937H178.31V71.6195H177.189V78.0745ZM161.316 79.9158H166.141V78.8576H162.501V76.2756H165.909V75.2174H162.501V72.6776H166.014V71.6195H161.295L161.316 79.9158ZM153.612 76.8893H155.221V78.6248L155.115 78.6671C154.565 78.8576 153.993 78.9846 153.401 79.0057C152.512 79.048 151.644 78.7095 150.988 78.1168C149.739 76.847 149.739 74.7941 150.988 73.5243C151.602 72.9104 152.427 72.5719 153.295 72.593C154.332 72.6142 155.369 72.9104 156.258 73.4607V72.212C155.75 71.9792 155.2 71.8099 154.67 71.6618C154.226 71.5559 153.782 71.5136 153.337 71.5136C152.152 71.4713 150.988 71.9157 150.12 72.7623C149.274 73.5666 148.808 74.6882 148.829 75.8734C148.808 76.9952 149.252 78.0745 150.078 78.8576C150.903 79.6619 152.004 80.064 153.379 80.064C154.438 80.064 155.475 79.8312 156.427 79.4079V75.8734H153.633L153.612 76.8893ZM140.109 76.4025L141.358 73.3972L142.691 76.4025H140.109ZM137.358 79.9158H138.586L139.623 77.4608H143.178L144.279 79.9158H145.506L141.781 71.5347H140.935L137.358 79.9158ZM132.088 75.1961H127.411V71.5983H126.226V79.9158H127.411V76.2967H132.088V79.9158H133.273V71.5983H132.088V75.1961ZM120.13 78.0533L114.522 71.5983H113.548V79.9158H114.67V73.5243L120.236 79.9158H121.252V71.5983H120.109V78.0533H120.13ZM104.257 79.9158H109.083V78.8576H105.442V76.2756H108.85V75.2174H105.442V72.6776H108.977V71.6195H104.257V79.9158ZM98.7968 73.9263C98.818 74.2862 98.6699 74.6459 98.3947 74.8999C98.0772 75.1538 97.6751 75.2597 97.273 75.2386H95.9608V72.6353H97.2096C98.2889 72.6565 98.818 73.0798 98.7968 73.9263ZM95.982 79.9158V76.3179H96.8709C97.4847 76.339 98.0984 76.2544 98.6911 76.0639C99.0931 75.8946 99.4529 75.6195 99.6858 75.2386C99.9397 74.8576 100.067 74.4131 100.045 73.9475C100.067 73.2914 99.8127 72.6565 99.3259 72.212C98.7968 71.7675 98.1195 71.5347 97.4211 71.5772H94.7968V79.8947H95.982V79.9158ZM88.0666 73.503C88.6803 74.0745 89.019 74.8787 88.9978 75.7253C89.019 76.5718 88.6803 77.3973 88.0666 77.9899C86.7543 79.1962 84.7438 79.1962 83.4316 78.011C82.8178 77.4185 82.4792 76.6142 82.5004 75.7676C82.4792 74.921 82.7967 74.0745 83.4105 73.4818C84.0453 72.8681 84.892 72.5507 85.7596 72.593C86.6274 72.593 87.4528 72.9104 88.0666 73.503ZM82.5427 72.6988C81.6962 73.503 81.2306 74.6247 81.2729 75.7888C81.2517 76.9317 81.6962 78.0322 82.5215 78.8152C83.3682 79.6195 84.4898 80.0639 85.6539 80.0216C86.966 80.0216 88.0666 79.6195 88.9131 78.8152C89.7597 78.0322 90.2465 76.9317 90.2042 75.7676C90.2253 74.6036 89.7597 73.503 88.9131 72.6988C88.0454 71.8734 86.8814 71.4501 85.6962 71.4713C84.5321 71.429 83.3893 71.8734 82.5427 72.6988ZM74.0559 78.9211C73.1881 78.9634 72.3204 78.646 71.6855 78.0322C71.0717 77.4396 70.7331 76.6353 70.7542 75.7888C70.7331 74.9422 71.0717 74.1168 71.7066 73.5243C72.3416 72.9104 73.2093 72.593 74.077 72.6142C75.0929 72.6353 76.0665 72.9316 76.913 73.4395V72.1485C76.003 71.7252 75.0082 71.4924 73.9924 71.4713C72.8072 71.4501 71.6643 71.8946 70.7966 72.7199C69.95 73.503 69.4844 74.6247 69.5055 75.7676C69.5055 76.5084 69.696 77.2491 70.077 77.9052C70.4368 78.5401 70.987 79.0904 71.622 79.4502C72.3416 79.8524 73.167 80.0427 73.9924 80.0004C75.0506 80.0216 76.0876 79.7676 77.0188 79.2809V77.9687C76.13 78.5824 75.1141 78.9211 74.0559 78.9211Z" fill="black"/>
<path d="M124.427 52.9314C125.125 53.1853 125.739 53.6298 126.183 54.2225C126.586 54.7727 126.797 55.45 126.797 56.1484C126.797 56.8256 126.586 57.4817 126.205 58.0531C125.824 58.6246 125.295 59.0902 124.66 59.3653C124.025 59.6405 122.797 59.7887 120.998 59.7887H117.76V52.5082H120.829C122.459 52.5082 123.665 52.6351 124.427 52.9314ZM124.808 45.9684C124.85 46.9631 124.427 47.9155 123.707 48.5716C122.966 49.2488 121.718 49.5663 119.961 49.5875H117.76V42.6668H120.596C123.39 42.6668 124.808 43.7673 124.808 45.9684ZM126.628 61.8415C127.707 61.3548 128.617 60.5717 129.295 59.5982C129.908 58.6669 130.226 57.5663 130.205 56.4447C130.226 55.0267 129.697 53.6721 128.723 52.6351C127.728 51.5769 126.395 50.8785 124.723 50.5611C127.051 49.5875 128.236 47.9578 128.236 45.7144C128.3 43.471 127.009 41.4181 124.956 40.508C123.898 40.0001 122.416 39.7461 120.511 39.7461H114.48V62.7305H122.268C124.004 62.7305 125.464 62.4342 126.628 61.8415Z" fill="black"/>
<path d="M131.729 62.7302C132.639 62.7302 133.358 61.9895 133.358 61.1006C133.358 60.1905 132.617 59.4709 131.729 59.4709C130.818 59.4709 130.099 60.2117 130.099 61.1006C130.099 61.9895 130.818 62.7302 131.729 62.7302Z" fill="black"/>
</g>
</g>
<rect x="40.7561" y="26.0383" width="164.5" height="73.1864" rx="4.75" stroke="#CAD6F1" stroke-width="0.5" shape-rendering="crispEdges"/>
</g>
<defs>
<filter id="filter0_d_223_19501" x="0.506104" y="0.78833" width="245" height="153.687" filterUnits="userSpaceOnUse" color-interpolation-filters="sRGB">
<feFlood flood-opacity="0" result="BackgroundImageFix"/>
<feColorMatrix in="SourceAlpha" type="matrix" values="0 0 0 0 0 0 0 0 0 0 0 0 0 0 0 0 0 0 127 0" result="hardAlpha"/>
<feOffset dy="15"/>
<feGaussianBlur stdDeviation="20"/>
<feComposite in2="hardAlpha" operator="out"/>
<feColorMatrix type="matrix" values="0 0 0 0 0.0862745 0 0 0 0 0.0980392 0 0 0 0 0.309804 0 0 0 0.05 0"/>
<feBlend mode="normal" in2="BackgroundImageFix" result="effect1_dropShadow_223_19501"/>
<feBlend mode="normal" in="SourceGraphic" in2="effect1_dropShadow_223_19501" result="shape"/>
</filter>
<clipPath id="clip0_223_19501">
<rect width="110.607" height="41.8802" fill="white" transform="translate(68.6744 38.782)"/>
</clipPath>
<clipPath id="clip1_223_19501">
<rect width="110.607" height="41.8802" fill="white" transform="translate(68.6744 38.782)"/>
</clipPath>
</defs>
</svg>
