<svg width="104" height="97" viewBox="0 0 104 97" fill="none" xmlns="http://www.w3.org/2000/svg">
<mask id="mask0_309_19864" style="mask-type:alpha" maskUnits="userSpaceOnUse" x="13" y="1" width="91" height="91">
<rect x="13" y="1" width="91" height="91" fill="#D9D9D9"/>
</mask>
<g mask="url(#mask0_309_19864)">
<line x1="-33.4293" y1="50.238" x2="62.2379" y2="-45.4292" stroke="#FFB416"/>
<line x1="-13.881" y1="69.7863" x2="81.7862" y2="-25.8809" stroke="#FFB416"/>
<line x1="-23.6552" y1="60.0117" x2="72.012" y2="-35.6556" stroke="#FFB416"/>
<line x1="-4.10682" y1="79.5605" x2="91.5604" y2="-16.1067" stroke="#FFB416"/>
<line x1="-28.5423" y1="55.1245" x2="67.125" y2="-40.5428" stroke="#FFB416"/>
<line x1="-12.2519" y1="71.4155" x2="83.4153" y2="-24.2518" stroke="#FFB416"/>
<line x1="-18.7681" y1="64.8989" x2="76.8992" y2="-30.7684" stroke="#FFB416"/>
<line x1="0.780266" y1="84.4477" x2="96.4475" y2="-11.2195" stroke="#FFB416"/>
<line x1="-31.8003" y1="51.8667" x2="63.8669" y2="-43.8006" stroke="#FFB416"/>
<line x1="-10.623" y1="73.0439" x2="85.0443" y2="-22.6233" stroke="#FFB416"/>
<line x1="-22.0261" y1="61.6411" x2="73.6411" y2="-34.0262" stroke="#FFB416"/>
<line x1="-2.47773" y1="81.1892" x2="93.1895" y2="-14.4781" stroke="#FFB416"/>
<line x1="-26.9133" y1="56.7539" x2="68.754" y2="-38.9134" stroke="#FFB416"/>
<line x1="-8.99387" y1="74.6733" x2="86.6734" y2="-20.9939" stroke="#FFB416"/>
<line x1="-17.1391" y1="66.5283" x2="78.5282" y2="-29.139" stroke="#FFB416"/>
<line x1="2.40933" y1="86.0761" x2="98.0766" y2="-9.59111" stroke="#FFB416"/>
<line x1="-30.1713" y1="53.4961" x2="65.4959" y2="-42.1712" stroke="#FFB416"/>
<line x1="-7.36488" y1="76.3025" x2="88.3024" y2="-19.3648" stroke="#FFB416"/>
<line x1="-20.3971" y1="63.2702" x2="75.2701" y2="-32.397" stroke="#FFB416"/>
<line x1="-0.848762" y1="82.8186" x2="94.8185" y2="-12.8487" stroke="#FFB416"/>
<line x1="-25.2842" y1="58.383" x2="70.3831" y2="-37.2842" stroke="#FFB416"/>
<line x1="-5.73582" y1="77.9314" x2="89.9314" y2="-17.7359" stroke="#FFB416"/>
<line x1="-15.51" y1="68.1567" x2="80.1572" y2="-27.5105" stroke="#FFB416"/>
<line x1="4.03832" y1="87.7055" x2="99.7056" y2="-7.96171" stroke="#FFB416"/>
<line x1="5.66726" y1="89.3347" x2="101.335" y2="-6.33256" stroke="#FFB416"/>
<line x1="25.2156" y1="108.883" x2="120.883" y2="13.2158" stroke="#FFB416"/>
<line x1="15.4415" y1="99.1088" x2="111.109" y2="3.44161" stroke="#FFB416"/>
<line x1="34.9898" y1="118.657" x2="130.657" y2="22.9899" stroke="#FFB416"/>
<line x1="10.5544" y1="94.2216" x2="106.222" y2="-1.4456" stroke="#FFB416"/>
<line x1="26.8446" y1="110.512" x2="122.512" y2="14.8449" stroke="#FFB416"/>
<line x1="20.3286" y1="103.996" x2="115.996" y2="8.32857" stroke="#FFB416"/>
<line x1="39.8769" y1="123.545" x2="135.544" y2="27.8774" stroke="#FFB416"/>
<line x1="48.1579" y1="131.826" x2="143.825" y2="36.1584" stroke="#FFB416"/>
<line x1="7.29632" y1="90.9636" x2="102.964" y2="-4.70366" stroke="#FFB416"/>
<line x1="28.4737" y1="112.141" x2="124.141" y2="16.4738" stroke="#FFB416"/>
<line x1="17.0704" y1="100.738" x2="112.738" y2="5.07076" stroke="#FFB416"/>
<line x1="36.6189" y1="120.286" x2="132.286" y2="24.6189" stroke="#FFB416"/>
<line x1="44.8999" y1="128.567" x2="140.567" y2="32.8999" stroke="#FFB416"/>
<line x1="12.1833" y1="95.8508" x2="107.851" y2="0.183549" stroke="#FFB416"/>
<line x1="30.1027" y1="113.77" x2="125.77" y2="18.103" stroke="#FFB416"/>
<line x1="21.9575" y1="105.625" x2="117.625" y2="9.95772" stroke="#FFB416"/>
<line x1="41.506" y1="125.173" x2="137.173" y2="29.5061" stroke="#FFB416"/>
<line x1="49.787" y1="133.454" x2="145.454" y2="37.7871" stroke="#FFB416"/>
<line x1="8.92526" y1="92.5927" x2="104.592" y2="-3.07451" stroke="#FFB416"/>
<line x1="31.7317" y1="115.399" x2="127.399" y2="19.7321" stroke="#FFB416"/>
<line x1="18.6995" y1="102.367" x2="114.367" y2="6.69991" stroke="#FFB416"/>
<line x1="38.2479" y1="121.915" x2="133.915" y2="26.2482" stroke="#FFB416"/>
<line x1="46.5289" y1="130.196" x2="142.196" y2="34.5293" stroke="#FFB416"/>
<line x1="13.8124" y1="97.4799" x2="109.48" y2="1.8127" stroke="#FFB416"/>
<line x1="33.3608" y1="117.028" x2="129.028" y2="21.3608" stroke="#FFB416"/>
<line x1="23.5866" y1="107.254" x2="119.254" y2="11.5866" stroke="#FFB416"/>
<line x1="43.1349" y1="126.803" x2="138.802" y2="31.1355" stroke="#FFB416"/>
<line x1="51.416" y1="135.084" x2="147.083" y2="39.4165" stroke="#FFB416"/>
<line x1="52.9632" y1="136.63" x2="148.63" y2="40.9628" stroke="#FFB416"/>
</g>
<path d="M97.4998 42.0553L97.4997 42.0553V42.0649V44.128C97.4997 44.7001 97.0292 45.1738 96.4539 45.1738H68.5459C67.9737 45.1738 67.5 44.7033 67.5 44.128V42.0649C67.5 41.4927 67.9705 41.019 68.5459 41.019H96.4649C97.0469 41.019 97.5108 41.4861 97.4998 42.0553Z" fill="#29BE11" stroke="#68E146"/>
<path d="M81.7779 37.3986L81.7777 37.3983L71.1951 26.8322C71.1948 26.8319 71.1945 26.8316 71.1942 26.8313C70.7877 26.4201 70.7903 25.7514 71.1935 25.3482L72.6552 23.8865C72.6554 23.8862 72.6557 23.886 72.6559 23.8857C73.0671 23.4791 73.7359 23.4816 74.1392 23.8849C74.1392 23.8849 74.1392 23.8849 74.1392 23.8849L79.5799 29.3256L80.4335 30.1792V28.9721V8.54589C80.4335 7.96495 80.9017 7.5 81.4794 7.5H83.5424C84.1145 7.5 84.5882 7.97045 84.5882 8.54589V28.9666V30.1746L85.442 29.32L90.8738 23.8826C90.8744 23.882 90.8749 23.8815 90.8755 23.881C91.2934 23.4722 91.9573 23.4772 92.3595 23.8794L93.8196 25.3395C93.8201 25.34 93.8206 25.3405 93.8211 25.341C94.23 25.7591 94.225 26.423 93.8228 26.8251L93.8228 26.8251L83.2493 37.3986L83.2493 37.3986L83.2461 37.4019C83.0467 37.605 82.7808 37.7088 82.5136 37.7088C82.2538 37.7088 81.9854 37.6061 81.7779 37.3986Z" fill="#29BE11" stroke="#68E146"/>
<path d="M71.7999 53H36.2027C33.3333 53 31 55.3326 31 58.2053V90.9213C31 93.7907 33.3333 96.1208 36.2027 96.1208H71.7998C74.6691 96.1208 77 93.7907 77 90.9213V58.2053C77.0002 55.3326 74.6693 53 71.7999 53ZM60.746 60.7413C63.5209 60.7413 65.7712 62.9918 65.7712 65.7665C65.7712 68.5412 63.5207 70.7917 60.746 70.7917C57.9704 70.7917 55.7209 68.5412 55.7209 65.7665C55.7209 62.9918 57.9704 60.7413 60.746 60.7413ZM70.1683 91.3115H53.9996H38.5513C37.1634 91.3115 36.5453 90.3074 37.171 89.0685L45.7951 71.9869C46.42 70.7482 47.6109 70.6377 48.4543 71.7398L57.1261 83.0725C57.9695 84.1747 59.4436 84.2685 60.4193 83.281L62.5407 81.1327C63.5156 80.1452 64.952 80.2675 65.7477 81.4041L71.2411 89.251C72.0352 90.3893 71.5561 91.3115 70.1683 91.3115Z" fill="url(#paint0_linear_309_19864)"/>
<path d="M1.73205 41.75L24.6817 2L47.6314 41.75H1.73205Z" stroke="white" stroke-width="2"/>
<defs>
<linearGradient id="paint0_linear_309_19864" x1="54" y1="53" x2="54" y2="96.1208" gradientUnits="userSpaceOnUse">
<stop stop-color="#6953D9" stop-opacity="0.74"/>
<stop offset="1" stop-color="#6953D9" stop-opacity="0.36"/>
</linearGradient>
</defs>
</svg>
