<svg width="105" height="101" viewBox="0 0 105 101" fill="none" xmlns="http://www.w3.org/2000/svg">
<mask id="mask0_309_19785" style="mask-type:alpha" maskUnits="userSpaceOnUse" x="10" y="4" width="91" height="91">
<rect x="10" y="95" width="91" height="91" transform="rotate(-90 10 95)" fill="#D9D9D9"/>
</mask>
<g mask="url(#mask0_309_19785)">
<line x1="59.238" y1="141.429" x2="-36.4292" y2="45.7618" stroke="#8F9DD2"/>
<line x1="78.7863" y1="121.881" x2="-16.881" y2="26.2137" stroke="#8F9DD2"/>
<line x1="69.0118" y1="131.655" x2="-26.6555" y2="35.9878" stroke="#8F9DD2"/>
<line x1="88.5606" y1="112.106" x2="-7.10669" y2="16.4392" stroke="#8F9DD2"/>
<line x1="64.1246" y1="136.542" x2="-31.5426" y2="40.8748" stroke="#8F9DD2"/>
<line x1="80.4154" y1="120.252" x2="-15.2518" y2="24.5845" stroke="#8F9DD2"/>
<line x1="73.8989" y1="126.768" x2="-21.7684" y2="31.1006" stroke="#8F9DD2"/>
<line x1="93.4477" y1="107.22" x2="-2.21956" y2="11.5523" stroke="#8F9DD2"/>
<line x1="60.8666" y1="139.8" x2="-34.8006" y2="44.1329" stroke="#8F9DD2"/>
<line x1="82.044" y1="118.623" x2="-13.6232" y2="22.9556" stroke="#8F9DD2"/>
<line x1="70.6412" y1="130.026" x2="-25.0261" y2="34.3587" stroke="#8F9DD2"/>
<line x1="90.1891" y1="110.478" x2="-5.47812" y2="14.8103" stroke="#8F9DD2"/>
<line x1="65.754" y1="134.913" x2="-29.9132" y2="39.2459" stroke="#8F9DD2"/>
<line x1="83.6734" y1="116.994" x2="-11.9938" y2="21.3265" stroke="#8F9DD2"/>
<line x1="75.5283" y1="125.139" x2="-20.139" y2="29.4717" stroke="#8F9DD2"/>
<line x1="95.0763" y1="105.59" x2="-0.59098" y2="9.92313" stroke="#8F9DD2"/>
<line x1="62.496" y1="138.171" x2="-33.1712" y2="42.5039" stroke="#8F9DD2"/>
<line x1="85.3026" y1="115.365" x2="-10.3647" y2="19.6973" stroke="#8F9DD2"/>
<line x1="72.2703" y1="128.397" x2="-23.3969" y2="32.7298" stroke="#8F9DD2"/>
<line x1="91.8186" y1="108.848" x2="-3.84869" y2="13.1812" stroke="#8F9DD2"/>
<line x1="67.3832" y1="133.284" x2="-28.2841" y2="37.6167" stroke="#8F9DD2"/>
<line x1="86.9314" y1="113.736" x2="-8.73582" y2="18.0684" stroke="#8F9DD2"/>
<line x1="77.1569" y1="123.51" x2="-18.5104" y2="27.8426" stroke="#8F9DD2"/>
<line x1="96.7057" y1="103.961" x2="1.03843" y2="8.29423" stroke="#8F9DD2"/>
<line x1="98.3348" y1="102.333" x2="2.66757" y2="6.66532" stroke="#8F9DD2"/>
<line x1="117.883" y1="82.7842" x2="22.2158" y2="-12.883" stroke="#8F9DD2"/>
<line x1="108.109" y1="92.5584" x2="12.4415" y2="-3.10885" stroke="#8F9DD2"/>
<line x1="127.657" y1="73.01" x2="31.9901" y2="-22.6572" stroke="#8F9DD2"/>
<line x1="103.222" y1="97.4456" x2="7.55441" y2="1.77836" stroke="#8F9DD2"/>
<line x1="119.512" y1="81.1553" x2="23.8449" y2="-14.5119" stroke="#8F9DD2"/>
<line x1="112.996" y1="87.6714" x2="17.3287" y2="-7.99581" stroke="#8F9DD2"/>
<line x1="132.545" y1="68.1231" x2="36.8775" y2="-27.5441" stroke="#8F9DD2"/>
<line x1="140.826" y1="59.8421" x2="45.1584" y2="-35.8252" stroke="#8F9DD2"/>
<line x1="99.9637" y1="100.704" x2="4.29642" y2="5.03642" stroke="#8F9DD2"/>
<line x1="121.141" y1="79.5262" x2="25.4738" y2="-16.1411" stroke="#8F9DD2"/>
<line x1="109.738" y1="90.9295" x2="14.0707" y2="-4.73775" stroke="#8F9DD2"/>
<line x1="129.286" y1="71.3809" x2="33.6189" y2="-24.2863" stroke="#8F9DD2"/>
<line x1="137.567" y1="63.0999" x2="41.8999" y2="-32.5673" stroke="#8F9DD2"/>
<line x1="104.851" y1="95.8167" x2="9.18356" y2="0.149453" stroke="#8F9DD2"/>
<line x1="122.77" y1="77.8973" x2="27.103" y2="-17.77" stroke="#8F9DD2"/>
<line x1="114.625" y1="86.0423" x2="18.9578" y2="-9.62496" stroke="#8F9DD2"/>
<line x1="134.173" y1="66.4939" x2="38.5061" y2="-29.1733" stroke="#8F9DD2"/>
<line x1="142.454" y1="58.2129" x2="46.787" y2="-37.4543" stroke="#8F9DD2"/>
<line x1="101.593" y1="99.0747" x2="5.92556" y2="3.40751" stroke="#8F9DD2"/>
<line x1="124.399" y1="76.2681" x2="28.7321" y2="-19.3991" stroke="#8F9DD2"/>
<line x1="111.367" y1="89.3006" x2="15.6998" y2="-6.36666" stroke="#8F9DD2"/>
<line x1="130.916" y1="69.752" x2="35.2484" y2="-25.9152" stroke="#8F9DD2"/>
<line x1="139.197" y1="61.471" x2="43.5293" y2="-34.1963" stroke="#8F9DD2"/>
<line x1="106.48" y1="94.1875" x2="10.8127" y2="-1.4797" stroke="#8F9DD2"/>
<line x1="126.028" y1="74.639" x2="30.3609" y2="-21.0283" stroke="#8F9DD2"/>
<line x1="116.254" y1="84.4134" x2="20.5867" y2="-11.2539" stroke="#8F9DD2"/>
<line x1="135.803" y1="64.865" x2="40.1355" y2="-30.8022" stroke="#8F9DD2"/>
<line x1="144.084" y1="56.584" x2="48.4165" y2="-39.0832" stroke="#8F9DD2"/>
<line x1="145.63" y1="55.0367" x2="49.9629" y2="-40.6306" stroke="#8F9DD2"/>
</g>
<path d="M68 19C68 9.05887 76.0589 0.999999 86 0.999998C95.9411 0.999997 104 9.05887 104 19C104 28.9411 95.9411 37 86 37C76.0589 37 68 28.9411 68 19Z" stroke="url(#paint0_linear_309_19785)" stroke-width="2"/>
<path d="M1 75C1 61.1929 12.1929 50 26 50C39.8071 50 51 61.1929 51 75C51 88.8071 39.8071 100 26 100C12.1929 100 1 88.8071 1 75Z" stroke="white" stroke-width="2"/>
<path d="M81.2 93.0001C80.9018 93.0001 80.6274 92.8097 80.5322 92.5101C80.4916 92.4191 80.248 92.2133 80.08 92.1139C77.994 90.8917 75.6364 85.4877 75.3746 84.8759L73.1612 76.3331C73.0828 76.0307 73.2144 75.7129 73.4832 75.5547C74.8482 74.7525 75.8996 74.8239 76.5464 75.0255C77.4522 75.3097 78.197 76.0293 78.6954 77.1073L79.8 79.4145V66.4001C79.8 64.8559 81.0558 63.6001 82.6 63.6001C84.1442 63.6001 85.4 64.8559 85.4 66.4001V73.7767C85.8116 73.5373 86.2904 73.4001 86.8 73.4001C87.8178 73.4001 88.7082 73.9447 89.1996 74.7581C89.6868 74.3479 90.3154 74.1001 91 74.1001C92.2194 74.1001 93.2596 74.8841 93.6432 75.9733C94.0884 75.6751 94.6246 75.5001 95.2 75.5001C96.7442 75.5001 98 76.7559 98 78.3001V89.5001C98 91.4293 96.4306 93.0001 94.5 93.0001H87.5C87.1136 93.0001 86.8 92.6865 86.8 92.3001C86.8 91.9137 87.1136 91.6001 87.5 91.6001H94.5C95.6578 91.6001 96.6 90.6579 96.6 89.5001V78.3001C96.6 77.5287 95.9728 76.9001 95.2 76.9001C94.4272 76.9001 93.8 77.5287 93.8 78.3001C93.8 78.6865 93.4864 79.0001 93.1 79.0001C92.7136 79.0001 92.4 78.6865 92.4 78.3001V76.9001C92.4 76.1287 91.7728 75.5001 91 75.5001C90.2272 75.5001 89.6 76.1287 89.6 76.9001C89.6 77.2865 89.2864 77.6001 88.9 77.6001C88.5136 77.6001 88.2 77.2865 88.2 76.9001V76.2001C88.2 75.4287 87.5728 74.8001 86.8 74.8001C86.0272 74.8001 85.4 75.4287 85.4 76.2001C85.4 76.5865 85.0864 76.9001 84.7 76.9001C84.3136 76.9001 84 76.5865 84 76.2001V66.4001C84 65.6287 83.3728 65.0001 82.6 65.0001C81.8272 65.0001 81.2 65.6287 81.2 66.4001V82.5001C81.2 82.8263 80.9732 83.1105 80.654 83.1833C80.332 83.2589 80.01 83.0965 79.8672 82.8025L77.4284 77.7023C77.196 77.1997 76.7844 76.5655 76.1278 76.3611C75.6994 76.2281 75.2066 76.2813 74.655 76.5235L76.6948 84.4265C77.322 85.8727 79.3534 90.0685 80.7884 90.9085C80.9928 91.0289 81.669 91.4671 81.8664 92.0915C81.9826 92.4597 81.7782 92.8531 81.41 92.9693C81.3414 92.9903 81.27 93.0001 81.2 93.0001Z" fill="#E9385F"/>
<path d="M81.9 61.5001C81.7208 61.5001 81.5416 61.4315 81.4044 61.2957L77.9044 57.7957C77.6314 57.5227 77.6314 57.0789 77.9044 56.8059C78.1774 56.5329 78.6212 56.5329 78.8942 56.8059L81.9 59.8103L89.8044 51.9059C90.0774 51.6329 90.5212 51.6329 90.7942 51.9059C91.0672 52.1789 91.0672 52.6227 90.7942 52.8957L82.3942 61.2957C82.2584 61.4315 82.0792 61.5001 81.9 61.5001Z" fill="#E9385F"/>
<path d="M69.3 66.4H58.1C56.9422 66.4 56 65.4578 56 64.3V53.1C56 51.9422 56.9422 51 58.1 51H69.3C70.4578 51 71.4 51.9422 71.4 53.1V64.3C71.4 65.4578 70.4578 66.4 69.3 66.4ZM58.1 52.4C57.715 52.4 57.4 52.7136 57.4 53.1V64.3C57.4 64.6864 57.715 65 58.1 65H69.3C69.685 65 70 64.6864 70 64.3V53.1C70 52.7136 69.685 52.4 69.3 52.4H58.1Z" fill="#E9385F"/>
<path d="M69.3 84.6002H58.1C56.9422 84.6002 56 83.658 56 82.5002V71.3002C56 70.1424 56.9422 69.2002 58.1 69.2002H69.3C70.4578 69.2002 71.4 70.1424 71.4 71.3002V82.5002C71.4 83.658 70.4578 84.6002 69.3 84.6002ZM58.1 70.6002C57.715 70.6002 57.4 70.9138 57.4 71.3002V82.5002C57.4 82.8866 57.715 83.2002 58.1 83.2002H69.3C69.685 83.2002 70 82.8866 70 82.5002V71.3002C70 70.9138 69.685 70.6002 69.3 70.6002H58.1Z" fill="#E9385F"/>
<path d="M77.7 66.4H76.3C75.1422 66.4 74.2 65.4578 74.2 64.3V53.1C74.2 51.9422 75.1422 51 76.3 51H87.5C87.8864 51 88.2 51.3136 88.2 51.7C88.2 52.0864 87.8864 52.4 87.5 52.4H76.3C75.915 52.4 75.6 52.7136 75.6 53.1V64.3C75.6 64.6864 75.915 65 76.3 65H77.7C78.0864 65 78.4 65.3136 78.4 65.7C78.4 66.0864 78.0864 66.4 77.7 66.4Z" fill="#E9385F"/>
<path d="M87.5 66.4001H84.7C84.3136 66.4001 84 66.0865 84 65.7001C84 65.3137 84.3136 65.0001 84.7 65.0001H87.5C87.885 65.0001 88.2 64.6865 88.2 64.3001V57.3001C88.2 56.9137 88.5136 56.6001 88.9 56.6001C89.2864 56.6001 89.6 56.9137 89.6 57.3001V64.3001C89.6 65.4579 88.6578 66.4001 87.5 66.4001Z" fill="#E9385F"/>
<path d="M53.3043 10.5435H45.6739C45.6732 9.86913 45.405 9.22262 44.9281 8.74579C44.4513 8.26895 43.8048 8.00074 43.1304 8H41.4348C40.7604 8.00074 40.1139 8.26895 39.6371 8.74579C39.1603 9.22262 38.892 9.86913 38.8913 10.5435H17.6957C17.2461 10.544 16.8151 10.7228 16.4972 11.0407C16.1793 11.3586 16.0005 11.7896 16 12.2391V13.9348C16.0005 14.3843 16.1793 14.8153 16.4972 15.1332C16.8151 15.4511 17.2461 15.6299 17.6957 15.6304H38.8913C38.892 16.3048 39.1603 16.9513 39.6371 17.4281C40.1139 17.905 40.7604 18.1732 41.4348 18.1739H43.1304C43.8048 18.1732 44.4513 17.905 44.9281 17.4281C45.405 16.9513 45.6732 16.3048 45.6739 15.6304H53.3043C53.7539 15.6299 54.1849 15.4511 54.5028 15.1332C54.8207 14.8153 54.9995 14.3843 55 13.9348V12.2391C54.9995 11.7896 54.8207 11.3586 54.5028 11.0407C54.1849 10.7228 53.7539 10.544 53.3043 10.5435ZM17.6957 13.9348V12.2391H38.8913V13.9348H17.6957ZM43.9783 15.6304C43.978 15.8552 43.8886 16.0707 43.7297 16.2297C43.5707 16.3886 43.3552 16.478 43.1304 16.4783H41.4348C41.21 16.478 40.9945 16.3886 40.8355 16.2297C40.6766 16.0707 40.5872 15.8552 40.587 15.6304V10.5435C40.5872 10.3187 40.6766 10.1032 40.8355 9.94422C40.9945 9.78527 41.21 9.69588 41.4348 9.69565H43.1304C43.3552 9.69588 43.5707 9.78527 43.7297 9.94422C43.8886 10.1032 43.978 10.3187 43.9783 10.5435V15.6304ZM53.3043 13.9348H45.6739V12.2391H53.3043V13.9348ZM53.3043 24.9565H32.1087C32.108 24.2822 31.8397 23.6357 31.3629 23.1588C30.8861 22.682 30.2396 22.4138 29.5652 22.413H27.8696C27.1952 22.4138 26.5487 22.682 26.0719 23.1588C25.595 23.6357 25.3268 24.2822 25.3261 24.9565H17.6957C17.2461 24.957 16.8151 25.1359 16.4972 25.4537C16.1793 25.7716 16.0005 26.2026 16 26.6522V28.3478C16.0005 28.7974 16.1793 29.2284 16.4972 29.5463C16.8151 29.8641 17.2461 30.043 17.6957 30.0435H25.3261C25.3268 30.7178 25.595 31.3643 26.0719 31.8412C26.5487 32.318 27.1952 32.5862 27.8696 32.587H29.5652C30.2396 32.5862 30.8861 32.318 31.3629 31.8412C31.8397 31.3643 32.108 30.7178 32.1087 30.0435H53.3043C53.7539 30.043 54.1849 29.8641 54.5028 29.5463C54.8207 29.2284 54.9995 28.7974 55 28.3478V26.6522C54.9995 26.2026 54.8207 25.7716 54.5028 25.4537C54.1849 25.1359 53.7539 24.957 53.3043 24.9565ZM17.6957 28.3478V26.6522H25.3261V28.3478H17.6957ZM30.413 30.0435C30.4128 30.2683 30.3234 30.4838 30.1645 30.6427C30.0055 30.8017 29.79 30.8911 29.5652 30.8913H27.8696C27.6448 30.8911 27.4293 30.8017 27.2703 30.6427C27.1114 30.4838 27.022 30.2683 27.0217 30.0435V24.9565C27.022 24.7317 27.1114 24.5162 27.2703 24.3573C27.4293 24.1983 27.6448 24.1089 27.8696 24.1087H29.5652C29.79 24.1089 30.0055 24.1983 30.1645 24.3573C30.3234 24.5162 30.4128 24.7317 30.413 24.9565V30.0435ZM53.3043 28.3478H32.1087V26.6522H53.3043V28.3478ZM53.3043 39.3696H41.4348C41.434 38.6952 41.1658 38.0487 40.689 37.5719C40.2122 37.095 39.5656 36.8268 38.8913 36.8261H37.1957C36.5213 36.8268 35.8748 37.095 35.398 37.5719C34.9211 38.0487 34.6529 38.6952 34.6522 39.3696H17.6957C17.2461 39.3701 16.8151 39.5489 16.4972 39.8668C16.1793 40.1847 16.0005 40.6157 16 41.0652V42.7609C16.0005 43.2104 16.1793 43.6414 16.4972 43.9593C16.8151 44.2772 17.2461 44.456 17.6957 44.4565H34.6522C34.6529 45.1309 34.9211 45.7774 35.398 46.2542C35.8748 46.731 36.5213 46.9993 37.1957 47H38.8913C39.5656 46.9993 40.2122 46.731 40.689 46.2542C41.1658 45.7774 41.434 45.1309 41.4348 44.4565H53.3043C53.7539 44.456 54.1849 44.2772 54.5028 43.9593C54.8207 43.6414 54.9995 43.2104 55 42.7609V41.0652C54.9995 40.6157 54.8207 40.1847 54.5028 39.8668C54.1849 39.5489 53.7539 39.3701 53.3043 39.3696ZM17.6957 42.7609V41.0652H34.6522V42.7609H17.6957ZM39.7391 44.4565C39.7389 44.6813 39.6495 44.8968 39.4906 45.0558C39.3316 45.2147 39.1161 45.3041 38.8913 45.3043H37.1957C36.9709 45.3041 36.7553 45.2147 36.5964 45.0558C36.4374 44.8968 36.348 44.6813 36.3478 44.4565V39.3696C36.348 39.1448 36.4374 38.9293 36.5964 38.7703C36.7553 38.6114 36.9709 38.522 37.1957 38.5217H38.8913C39.1161 38.522 39.3316 38.6114 39.4906 38.7703C39.6495 38.9293 39.7389 39.1448 39.7391 39.3696V44.4565ZM53.3043 42.7609H41.4348V41.0652H53.3043V42.7609Z" fill="#2337B3"/>
<defs>
<linearGradient id="paint0_linear_309_19785" x1="86" y1="38" x2="86" y2="-2.15366e-06" gradientUnits="userSpaceOnUse">
<stop stop-color="#FCAF45"/>
<stop offset="1" stop-color="#FCAF45" stop-opacity="0.22"/>
</linearGradient>
</defs>
</svg>
