<svg width="120" height="58" viewBox="0 0 120 58" fill="none" xmlns="http://www.w3.org/2000/svg">
<path d="M55.3109 0.992757C56.6477 -0.176913 61.3264 -0.957136 63.9999 2.49618C65.1696 4.05574 66.7291 6.56217 69.1242 10.5725C71.9648 15.3068 74.6383 19.5402 75.0282 19.9858C75.7523 20.8212 85.054 15.1956 91.2922 10.127C103.1 0.546836 101.931 14.0262 101.931 14.0819V34.8016C121.147 34.3003 122.149 33.5205 116.412 42.7665L111.287 51.0656C107.667 56.9139 96.0266 58.9191 102.822 47.8907C107.89 39.5916 107.278 40.3714 108.169 38.8119C107.222 38.979 103.1 39.703 99.8141 40.3714C92.629 41.8753 92.629 38.1435 92.5176 35.1358C92.4062 32.1837 92.4619 27.6722 92.4619 17.3678C72.1876 30.1786 71.9648 32.2394 62.496 15.7529C59.2098 10.0716 59.1541 9.9599 58.3743 11.241C46.2318 31.2926 46.1205 31.3483 32.3072 24.4973C27.9628 22.3249 24.2866 20.654 24.2309 20.7097C24.1752 20.8211 24.6765 24.3859 25.4006 28.6747C27.5171 41.2069 27.6285 40.9284 18.9952 40.4828C15.7647 40.3157 12.7012 39.9815 12.1442 39.8144C11.5316 39.5916 13.0912 42.488 15.9876 47.111C22.0587 61.9268 12.5342 57.6937 8.85808 51.901C-1.27906 35.8599 -5.9021 32.5179 12.7012 35.3586C15.8203 35.8041 17.3243 35.8598 17.2686 35.47C17.2686 35.1358 16.3774 30.7356 15.3192 25.7227C13.5925 17.4792 9.35937 6.61787 32.3629 18.3703C37.2644 20.8767 41.7202 22.6592 41.7202 22.6592C41.7202 22.6592 53.2498 2.83081 55.3109 0.992757Z" fill="#DE6B32"/>
<path d="M51.0219 38.5333C53.027 34.4116 54.5306 30.457 58.9308 31.4596C61.3815 32.0165 63.8328 34.4121 66.562 38.868C70.5166 45.2734 69.904 44.9943 75.3067 42.655C84.497 38.7004 87.8389 39.8143 87.2819 46.8881C86.2793 60.3114 75.4176 59.1974 77.0328 51.511C77.9797 46.7767 78.4258 47.1109 73.5244 48.8375C66.2836 51.344 63.8328 50.7313 60.658 45.4399C58.3744 41.6524 58.7085 41.6524 56.035 45.9969C52.5257 51.7895 50.5763 50.9541 44.338 49.2831L44.5609 51.4553C45.1179 57.3037 39.2138 55.4656 35.1478 48.5033C31.4717 42.1537 34.9807 40.2599 44.338 43.5462C46.3432 44.2702 48.0142 44.7158 48.1256 44.6044C48.1813 44.3816 49.4623 41.7081 51.0219 38.5333Z" fill="#DE6B32"/>
</svg>
