<svg width="136" height="120" viewBox="0 0 136 120" fill="none" xmlns="http://www.w3.org/2000/svg">
<path d="M2.46335 117.914C1.96181 114.455 1.90178 110.841 2.11964 107.341C4.19106 74.0767 33.3477 110.435 45.1359 97.9224C55.3154 87.1176 47.3255 57.8844 62.3758 42.9998C76.9573 28.5786 91.2866 47.5114 105.612 42.7249C116.175 39.196 116.041 28.4469 120.818 18.9652C123.839 12.9705 127.725 9.77116 131.675 4.88232" stroke="#CA612E" stroke-width="3" stroke-miterlimit="1.5" stroke-linecap="round" stroke-linejoin="round"/>
<path d="M131.156 17.8599C130.625 14.4898 131.274 10.8518 131.986 7.61568C132.407 5.7004 132.818 3.71511 133.668 2C129.55 4.87909 125.586 6.70461 120.763 6.7201" stroke="#CA612E" stroke-width="3" stroke-miterlimit="1.5" stroke-linecap="round" stroke-linejoin="round"/>
</svg>
