<svg width="198" height="31" viewBox="0 0 198 31" fill="none" xmlns="http://www.w3.org/2000/svg">
<path d="M5.50923 2.18182V24H0.896307V2.18182H5.50923ZM9.21928 24V7.63636H13.5446V10.5234H13.7363C14.0772 9.56463 14.6454 8.80824 15.4409 8.25426C16.2363 7.70028 17.188 7.4233 18.296 7.4233C19.4181 7.4233 20.3734 7.70384 21.1618 8.26491C21.9501 8.81889 22.4757 9.57173 22.7385 10.5234H22.9089C23.2427 9.58594 23.8464 8.83665 24.72 8.27557C25.6007 7.70739 26.6412 7.4233 27.8414 7.4233C29.3684 7.4233 30.6078 7.9098 31.5595 8.88281C32.5183 9.84872 32.9977 11.2195 32.9977 12.995V24H28.47V13.8899C28.47 12.9808 28.2285 12.299 27.7456 11.8445C27.2626 11.3899 26.6589 11.1626 25.9345 11.1626C25.1106 11.1626 24.4679 11.4254 24.0062 11.951C23.5446 12.4695 23.3137 13.1548 23.3137 14.0071V24H18.9139V13.794C18.9139 12.9915 18.6831 12.3523 18.2214 11.8764C17.7669 11.4006 17.1667 11.1626 16.421 11.1626C15.9167 11.1626 15.4622 11.2905 15.0574 11.5462C14.6596 11.7947 14.3436 12.1463 14.1092 12.6009C13.8748 13.0483 13.7576 13.5739 13.7576 14.1776V24H9.21928ZM41.2488 24.3089C40.2047 24.3089 39.2743 24.1278 38.4576 23.7656C37.6408 23.3963 36.9945 22.853 36.5186 22.1357C36.0499 21.4112 35.8155 20.5092 35.8155 19.4297C35.8155 18.5206 35.9824 17.7571 36.3162 17.1392C36.65 16.5213 37.1046 16.0241 37.6799 15.6477C38.2551 15.2713 38.9086 14.9872 39.6401 14.7955C40.3787 14.6037 41.1529 14.4688 41.9625 14.3906C42.9142 14.2912 43.6813 14.1989 44.2637 14.1136C44.8461 14.0213 45.2686 13.8864 45.5314 13.7088C45.7942 13.5312 45.9256 13.2685 45.9256 12.9205V12.8565C45.9256 12.1818 45.7125 11.6598 45.2864 11.2905C44.8674 10.9212 44.2708 10.7365 43.4966 10.7365C42.6799 10.7365 42.03 10.9176 41.5471 11.2798C41.0641 11.6349 40.7445 12.0824 40.5882 12.6222L36.3908 12.2812C36.6039 11.2869 37.0229 10.4276 37.6479 9.70312C38.2729 8.97159 39.079 8.41051 40.0662 8.01989C41.0605 7.62216 42.2111 7.4233 43.5179 7.4233C44.427 7.4233 45.2971 7.52983 46.128 7.7429C46.9661 7.95597 47.7083 8.28622 48.3546 8.73366C49.008 9.18111 49.5229 9.75639 49.8993 10.4595C50.2757 11.1555 50.464 11.9901 50.464 12.9631V24H46.16V21.7308H46.0321C45.7694 22.2422 45.4178 22.6932 44.9775 23.0838C44.5371 23.4673 44.008 23.7692 43.3901 23.9893C42.7722 24.2024 42.0584 24.3089 41.2488 24.3089ZM42.5485 21.1768C43.2161 21.1768 43.8056 21.0455 44.3169 20.7827C44.8283 20.5128 45.2296 20.1506 45.5208 19.696C45.812 19.2415 45.9576 18.7266 45.9576 18.1513V16.4148C45.8155 16.5071 45.6202 16.5923 45.3716 16.6705C45.1301 16.7415 44.8567 16.8089 44.5513 16.8729C44.2459 16.9297 43.9405 16.983 43.6351 17.0327C43.3297 17.0753 43.0527 17.1143 42.8042 17.1499C42.2715 17.228 41.8063 17.3523 41.4086 17.5227C41.0108 17.6932 40.7019 17.924 40.4817 18.2152C40.2615 18.4993 40.1515 18.8544 40.1515 19.2805C40.1515 19.8984 40.3752 20.3707 40.8226 20.6974C41.2772 21.017 41.8525 21.1768 42.5485 21.1768ZM61.3571 30.4773C59.8869 30.4773 58.6262 30.2749 57.5751 29.87C56.5311 29.4723 55.7001 28.929 55.0822 28.2401C54.4643 27.5511 54.063 26.777 53.8784 25.9176L58.0758 25.353C58.2037 25.6797 58.4061 25.9851 58.6831 26.2692C58.96 26.5533 59.3258 26.7805 59.7804 26.951C60.242 27.1286 60.8031 27.2173 61.4636 27.2173C62.4508 27.2173 63.264 26.9759 63.9032 26.4929C64.5495 26.017 64.8727 25.218 64.8727 24.0959V21.1023H64.6809C64.4821 21.5568 64.1838 21.9865 63.786 22.3913C63.3883 22.7962 62.877 23.1264 62.252 23.3821C61.627 23.6378 60.8812 23.7656 60.0147 23.7656C58.786 23.7656 57.6674 23.4815 56.6589 22.9134C55.6575 22.3381 54.8585 21.4609 54.2619 20.282C53.6724 19.0959 53.3777 17.5973 53.3777 15.7862C53.3777 13.9325 53.6795 12.3842 54.2832 11.1413C54.8869 9.89844 55.6895 8.96804 56.6909 8.35014C57.6994 7.73224 58.8038 7.4233 60.0041 7.4233C60.9203 7.4233 61.6873 7.57955 62.3052 7.89205C62.9231 8.19744 63.4203 8.58097 63.7967 9.04261C64.1802 9.49716 64.475 9.9446 64.6809 10.3849H64.8514V7.63636H69.3578V24.1598C69.3578 25.5518 69.0169 26.7166 68.335 27.6541C67.6532 28.5916 66.7086 29.2947 65.5012 29.7635C64.301 30.2393 62.9196 30.4773 61.3571 30.4773ZM61.4529 20.3565C62.1845 20.3565 62.8024 20.1754 63.3066 19.8132C63.818 19.4439 64.2086 18.9183 64.4785 18.2365C64.7555 17.5476 64.894 16.7237 64.894 15.7649C64.894 14.8061 64.7591 13.9751 64.4892 13.272C64.2193 12.5618 63.8287 12.0114 63.3173 11.6207C62.8059 11.2301 62.1845 11.0348 61.4529 11.0348C60.7072 11.0348 60.0787 11.2372 59.5673 11.642C59.0559 12.0398 58.6689 12.5937 58.4061 13.304C58.1433 14.0142 58.0119 14.8345 58.0119 15.7649C58.0119 16.7095 58.1433 17.5263 58.4061 18.2152C58.676 18.897 59.063 19.4261 59.5673 19.8026C60.0787 20.1719 60.7072 20.3565 61.4529 20.3565ZM80.4267 24.3196C78.7434 24.3196 77.2946 23.9787 76.0801 23.2969C74.8727 22.608 73.9423 21.6349 73.2889 20.3778C72.6355 19.1136 72.3088 17.6186 72.3088 15.8928C72.3088 14.2095 72.6355 12.7322 73.2889 11.4609C73.9423 10.1896 74.862 9.19886 76.0481 8.48864C77.2413 7.77841 78.6404 7.4233 80.2456 7.4233C81.3251 7.4233 82.3301 7.5973 83.2605 7.94531C84.198 8.28622 85.0147 8.80114 85.7108 9.49006C86.4139 10.179 86.9608 11.0455 87.3514 12.0895C87.742 13.1264 87.9373 14.3409 87.9373 15.733V16.9794H74.1199V14.1669H83.6653C83.6653 13.5135 83.5233 12.9347 83.2392 12.4304C82.9551 11.9261 82.5609 11.532 82.0566 11.2479C81.5595 10.9567 80.9806 10.8111 80.3201 10.8111C79.6312 10.8111 79.0204 10.9709 78.4877 11.2905C77.9622 11.603 77.5502 12.0256 77.252 12.5582C76.9537 13.0838 76.801 13.6697 76.7939 14.3161V16.9901C76.7939 17.7997 76.943 18.4993 77.2413 19.0888C77.5467 19.6783 77.9764 20.1328 78.5304 20.4524C79.0843 20.772 79.7413 20.9318 80.5012 20.9318C81.0055 20.9318 81.4672 20.8608 81.8862 20.7188C82.3052 20.5767 82.6639 20.3636 82.9622 20.0795C83.2605 19.7955 83.4877 19.4474 83.644 19.0355L87.8414 19.3125C87.6284 20.321 87.1916 21.2017 86.5311 21.9545C85.8777 22.7003 85.0325 23.2827 83.9956 23.7017C82.9657 24.1136 81.7761 24.3196 80.4267 24.3196Z" fill="#DE6B32"/>
<path d="M90.9842 24V2.18182H99.5922C101.24 2.18182 102.646 2.47656 103.811 3.06605C104.983 3.64844 105.874 4.47585 106.485 5.5483C107.103 6.61364 107.412 7.86719 107.412 9.30895C107.412 10.7578 107.099 12.0043 106.474 13.0483C105.849 14.0852 104.944 14.8807 103.758 15.4347C102.579 15.9886 101.151 16.2656 99.475 16.2656H93.7115V12.5582H98.7292C99.6099 12.5582 100.341 12.4375 100.924 12.196C101.506 11.9545 101.939 11.5923 102.224 11.1094C102.515 10.6264 102.66 10.0263 102.66 9.30895C102.66 8.58452 102.515 7.97372 102.224 7.47656C101.939 6.9794 101.503 6.60298 100.913 6.3473C100.331 6.08452 99.5957 5.95312 98.7079 5.95312H95.5971V24H90.9842ZM102.767 14.071L108.189 24H103.097L97.7917 14.071H102.767ZM117.78 24.3196C116.097 24.3196 114.648 23.9787 113.434 23.2969C112.226 22.608 111.296 21.6349 110.642 20.3778C109.989 19.1136 109.662 17.6186 109.662 15.8928C109.662 14.2095 109.989 12.7322 110.642 11.4609C111.296 10.1896 112.216 9.19886 113.402 8.48864C114.595 7.77841 115.994 7.4233 117.599 7.4233C118.679 7.4233 119.684 7.5973 120.614 7.94531C121.551 8.28622 122.368 8.80114 123.064 9.49006C123.767 10.179 124.314 11.0455 124.705 12.0895C125.096 13.1264 125.291 14.3409 125.291 15.733V16.9794H111.473V14.1669H121.019C121.019 13.5135 120.877 12.9347 120.593 12.4304C120.309 11.9261 119.914 11.532 119.41 11.2479C118.913 10.9567 118.334 10.8111 117.674 10.8111C116.985 10.8111 116.374 10.9709 115.841 11.2905C115.316 11.603 114.904 12.0256 114.605 12.5582C114.307 13.0838 114.154 13.6697 114.147 14.3161V16.9901C114.147 17.7997 114.297 18.4993 114.595 19.0888C114.9 19.6783 115.33 20.1328 115.884 20.4524C116.438 20.772 117.095 20.9318 117.855 20.9318C118.359 20.9318 118.821 20.8608 119.24 20.7188C119.659 20.5767 120.017 20.3636 120.316 20.0795C120.614 19.7955 120.841 19.4474 120.998 19.0355L125.195 19.3125C124.982 20.321 124.545 21.2017 123.885 21.9545C123.231 22.7003 122.386 23.2827 121.349 23.7017C120.319 24.1136 119.13 24.3196 117.78 24.3196ZM141.868 12.3026L137.713 12.5582C137.642 12.2031 137.489 11.8835 137.255 11.5994C137.02 11.3082 136.711 11.0774 136.328 10.907C135.951 10.7294 135.5 10.6406 134.975 10.6406C134.272 10.6406 133.679 10.7898 133.196 11.0881C132.713 11.3793 132.471 11.7699 132.471 12.2599C132.471 12.6506 132.627 12.9808 132.94 13.2507C133.252 13.5206 133.789 13.7372 134.549 13.9006L137.51 14.4972C139.101 14.8239 140.287 15.3494 141.069 16.0739C141.85 16.7983 142.24 17.75 142.24 18.929C142.24 20.0014 141.924 20.9425 141.292 21.7521C140.667 22.5618 139.808 23.1939 138.714 23.6484C137.627 24.0959 136.374 24.3196 134.953 24.3196C132.787 24.3196 131.061 23.8686 129.776 22.9666C128.498 22.0575 127.748 20.8217 127.528 19.2592L131.992 19.0249C132.127 19.6854 132.453 20.1896 132.972 20.5376C133.49 20.8786 134.154 21.049 134.964 21.049C135.76 21.049 136.399 20.8963 136.882 20.5909C137.372 20.2784 137.62 19.8771 137.627 19.3871C137.62 18.9751 137.446 18.6378 137.105 18.375C136.765 18.1051 136.239 17.8991 135.529 17.7571L132.695 17.1925C131.097 16.8729 129.907 16.3189 129.126 15.5305C128.352 14.7422 127.965 13.7372 127.965 12.5156C127.965 11.4645 128.249 10.5589 128.817 9.79901C129.392 9.03906 130.199 8.45312 131.235 8.04119C132.279 7.62926 133.501 7.4233 134.9 7.4233C136.967 7.4233 138.593 7.86009 139.779 8.73366C140.973 9.60724 141.669 10.7969 141.868 12.3026ZM145.098 24V7.63636H149.637V24H145.098ZM147.378 5.52699C146.703 5.52699 146.124 5.30327 145.642 4.85582C145.166 4.40128 144.928 3.85795 144.928 3.22585C144.928 2.60085 145.166 2.06463 145.642 1.61719C146.124 1.16264 146.703 0.935368 147.378 0.935368C148.053 0.935368 148.628 1.16264 149.104 1.61719C149.587 2.06463 149.828 2.60085 149.828 3.22585C149.828 3.85795 149.587 4.40128 149.104 4.85582C148.628 5.30327 148.053 5.52699 147.378 5.52699ZM153.187 24V21.294L161.198 11.3757V11.2585H153.464V7.63636H166.663V10.5874L159.142 20.2607V20.3778H166.94V24H153.187ZM177.399 24.3196C175.716 24.3196 174.267 23.9787 173.053 23.2969C171.845 22.608 170.915 21.6349 170.262 20.3778C169.608 19.1136 169.281 17.6186 169.281 15.8928C169.281 14.2095 169.608 12.7322 170.262 11.4609C170.915 10.1896 171.835 9.19886 173.021 8.48864C174.214 7.77841 175.613 7.4233 177.218 7.4233C178.298 7.4233 179.303 7.5973 180.233 7.94531C181.171 8.28622 181.987 8.80114 182.683 9.49006C183.387 10.179 183.933 11.0455 184.324 12.0895C184.715 13.1264 184.91 14.3409 184.91 15.733V16.9794H171.093V14.1669H180.638C180.638 13.5135 180.496 12.9347 180.212 12.4304C179.928 11.9261 179.534 11.532 179.029 11.2479C178.532 10.9567 177.953 10.8111 177.293 10.8111C176.604 10.8111 175.993 10.9709 175.46 11.2905C174.935 11.603 174.523 12.0256 174.225 12.5582C173.926 13.0838 173.774 13.6697 173.767 14.3161V16.9901C173.767 17.7997 173.916 18.4993 174.214 19.0888C174.519 19.6783 174.949 20.1328 175.503 20.4524C176.057 20.772 176.714 20.9318 177.474 20.9318C177.978 20.9318 178.44 20.8608 178.859 20.7188C179.278 20.5767 179.637 20.3636 179.935 20.0795C180.233 19.7955 180.46 19.4474 180.617 19.0355L184.814 19.3125C184.601 20.321 184.164 21.2017 183.504 21.9545C182.85 22.7003 182.005 23.2827 180.968 23.7017C179.938 24.1136 178.749 24.3196 177.399 24.3196ZM187.872 24V7.63636H192.271V10.4915H192.442C192.74 9.47585 193.241 8.70881 193.944 8.19034C194.647 7.66477 195.457 7.40199 196.373 7.40199C196.6 7.40199 196.845 7.41619 197.108 7.4446C197.371 7.47301 197.602 7.51207 197.801 7.56179V11.5888C197.588 11.5249 197.293 11.468 196.916 11.4183C196.54 11.3686 196.195 11.3438 195.883 11.3438C195.215 11.3438 194.619 11.4893 194.093 11.7805C193.575 12.0646 193.163 12.4624 192.857 12.9737C192.559 13.4851 192.41 14.0746 192.41 14.7422V24H187.872Z" fill="#212121"/>
</svg>
