<svg width="48" height="41" viewBox="0 0 48 41" fill="none" xmlns="http://www.w3.org/2000/svg">
<path d="M43.3931 38.0382C43.6009 35.788 44.1725 33.5341 44.4676 31.2902C44.9459 27.6527 45.1403 23.9806 45.6731 20.3501C43.7216 21.8756 41.917 23.6944 39.9446 25.1797C37.7173 26.8568 35.2357 28.4334 33.2395 30.5031C33.8244 25.0779 34.4183 19.6509 35.0299 14.2272C31.0122 17.2281 26.8186 20.3749 23.0268 23.754L24.1465 7.52273C19.7015 10.1772 15.6054 13.7817 11.1321 16.4418C11.8129 11.8461 12.1551 7.04227 13.0237 2.50995C9.3655 4.82198 5.73668 8.01699 2.30033 10.7813" stroke="#FCF0EB" stroke-width="4" stroke-miterlimit="1.5" stroke-linecap="round" stroke-linejoin="round"/>
</svg>
