<svg width="136" height="30" viewBox="0 0 136 30" fill="none" xmlns="http://www.w3.org/2000/svg">
<path d="M133.453 7.48578C127.259 5.88579 70.0545 12.0271 69.9722 11.9565C69.8077 11.6156 87.6515 7.98761 98.1249 6.26212C108.54 4.57188 109.609 4.0903 107.435 2.19737C105.672 0.657167 102.851 0.151129 97.0918 0.408411C69.1282 1.55396 13.8686 7.20205 2.66617 10.044C-1.38928 11.0775 0.56782 12.2406 4 12.5C11.3933 13.1011 42.162 10.8925 49.7553 10.2947C43.8543 12.1153 27.0843 18.9112 7.5 26.5C-0.246729 29.5073 2.63962 30.8774 15.9931 27.8244C40.0553 22.3053 115.832 11.4195 132.5 10.2949C136.52 10.0019 137.026 8.37991 133.453 7.48578Z" fill="#DE6B32"/>
</svg>
