<svg width="1122" height="628" viewBox="0 0 1122 628" fill="none" xmlns="http://www.w3.org/2000/svg">
<path d="M1018.48 622.836H1019.37V621.942V19.8667C1019.37 9.50581 1010.97 1.10667 1000.61 1.10667H120.792C110.432 1.10667 102.032 9.50579 102.032 19.8667V621.942V622.836H102.926H1018.48Z" fill="#2C2C2E" stroke="#636366" stroke-width="1.78667"/>
<circle cx="566.088" cy="21.149" r="4.7872" fill="#0D0D16"/>
<path d="M0.598633 617.755H1122L1102.89 625.271C1099.44 626.631 1095.75 627.33 1092.04 627.33H25.2727C20.1298 627.33 15.0753 625.992 10.6053 623.449L0.598633 617.755Z" fill="#636366"/>
<path d="M2.39429 617.755H1119.01L1099.05 623.916C1096.21 624.791 1093.27 625.235 1090.3 625.235H25.4692C21.3028 625.235 17.1832 624.358 13.3788 622.659L2.39429 617.755Z" fill="#2C2C2E"/>
<path d="M0 602.661C0 601.082 1.27987 599.802 2.85867 599.802H1118.54C1120.12 599.802 1121.4 601.082 1121.4 602.661V617.754H0V602.661Z" fill="#636366"/>
<path d="M2.39429 604.224C2.39429 603.435 3.03422 602.795 3.82362 602.795H1117.58C1118.37 602.795 1119.01 603.435 1119.01 604.224V615.96H2.39429V604.224Z" fill="#2C2C2E"/>
<path d="M480.515 599.802H641.484V605.222C641.484 609.169 638.285 612.369 634.338 612.369H487.662C483.715 612.369 480.515 609.169 480.515 605.222V599.802Z" fill="#636366"/>
</svg>
