<svg width="197" height="31" viewBox="0 0 197 31" fill="none" xmlns="http://www.w3.org/2000/svg">
<path d="M0.452773 30V1.83227H19.1029V6.74236H6.40816V13.4542H17.8651V18.3643H6.40816V30H0.452773ZM28.8578 1.83227V30H22.9986V1.83227H28.8578ZM33.5512 30V8.8742H39.4103V30H33.5512ZM36.4945 6.15095C35.6235 6.15095 34.8762 5.86212 34.2527 5.28446C33.6383 4.69764 33.3312 3.99619 33.3312 3.18014C33.3312 2.37325 33.6383 1.68097 34.2527 1.10332C34.8762 0.516488 35.6235 0.223074 36.4945 0.223074C37.3656 0.223074 38.1083 0.516488 38.7227 1.10332C39.3462 1.68097 39.6579 2.37325 39.6579 3.18014C39.6579 3.99619 39.3462 4.69764 38.7227 5.28446C38.1083 5.86212 37.3656 6.15095 36.4945 6.15095ZM49.0002 8.8742L52.8787 16.26L56.8536 8.8742H62.864L56.7435 19.4371L63.029 30H57.0461L52.8787 22.6967L48.7801 30H42.7284L49.0002 19.4371L42.9485 8.8742H49.0002ZM81.7341 9.93324C81.6241 8.82377 81.1519 7.96187 80.3175 7.34753C79.4831 6.73319 78.3507 6.42603 76.9203 6.42603C75.9484 6.42603 75.1278 6.56356 74.4584 6.83864C73.7891 7.10455 73.2756 7.4759 72.918 7.9527C72.5695 8.42949 72.3953 8.97048 72.3953 9.57564C72.377 10.0799 72.4824 10.5201 72.7117 10.896C72.9501 11.2719 73.2756 11.5974 73.6882 11.8725C74.1008 12.1384 74.5776 12.3722 75.1186 12.574C75.6596 12.7665 76.2372 12.9316 76.8516 13.0691L79.3823 13.6743C80.6109 13.9493 81.7387 14.3161 82.7657 14.7746C83.7926 15.233 84.682 15.7969 85.4339 16.4663C86.1858 17.1356 86.768 17.9242 87.1806 18.8319C87.6024 19.7397 87.8179 20.7804 87.8271 21.954C87.8179 23.6778 87.3778 25.1724 86.5067 26.4378C85.6448 27.694 84.3978 28.6705 82.7657 29.3673C81.1427 30.055 79.1851 30.3989 76.8928 30.3989C74.6189 30.3989 72.6383 30.0504 70.9512 29.3536C69.2732 28.6567 67.962 27.6252 67.0176 26.259C66.0824 24.8836 65.5918 23.1827 65.546 21.1563H71.3088C71.373 22.1007 71.6435 22.8893 72.1203 23.522C72.6062 24.1455 73.2527 24.6177 74.0595 24.9386C74.8756 25.2504 75.7971 25.4062 76.8241 25.4062C77.8327 25.4062 78.7083 25.2595 79.451 24.9661C80.2029 24.6727 80.7851 24.2647 81.1978 23.742C81.6104 23.2194 81.8167 22.6188 81.8167 21.9403C81.8167 21.3076 81.6287 20.7758 81.2528 20.3448C80.886 19.9139 80.345 19.5471 79.6298 19.2445C78.9238 18.942 78.0573 18.6669 77.0304 18.4193L73.9633 17.6491C71.5884 17.0715 69.7133 16.1683 68.338 14.9396C66.9626 13.7109 66.2795 12.0559 66.2887 9.9745C66.2795 8.26903 66.7334 6.77904 67.6503 5.50453C68.5764 4.23001 69.8463 3.23515 71.4601 2.51996C73.0739 1.80476 74.9077 1.44716 76.9616 1.44716C79.0522 1.44716 80.8768 1.80476 82.4356 2.51996C84.0035 3.23515 85.223 4.23001 86.0941 5.50453C86.9652 6.77904 87.4145 8.25528 87.442 9.93324H81.7341ZM102.96 8.8742V13.2754H90.2374V8.8742H102.96ZM93.1257 3.81281H98.9848V23.5082C98.9848 24.0492 99.0673 24.471 99.2324 24.7736C99.3974 25.067 99.6267 25.2733 99.9201 25.3925C100.223 25.5117 100.571 25.5713 100.965 25.5713C101.24 25.5713 101.516 25.5484 101.791 25.5025C102.066 25.4475 102.277 25.4062 102.423 25.3787L103.345 29.7387C103.051 29.8304 102.639 29.9358 102.107 30.055C101.575 30.1834 100.929 30.2613 100.168 30.2888C98.7556 30.3438 97.5177 30.1559 96.4541 29.7249C95.3997 29.294 94.579 28.6246 93.9922 27.7169C93.4054 26.8091 93.1165 25.663 93.1257 24.2784V3.81281ZM120.324 21.005V8.8742H126.183V30H120.558V26.1627H120.338C119.861 27.4005 119.068 28.3954 117.958 29.1473C116.858 29.8991 115.515 30.2751 113.928 30.2751C112.516 30.2751 111.274 29.9542 110.201 29.3123C109.128 28.6705 108.289 27.7581 107.684 26.5753C107.088 25.3925 106.786 23.9758 106.776 22.3254V8.8742H112.635V21.2801C112.645 22.5271 112.979 23.5128 113.639 24.2372C114.3 24.9615 115.184 25.3237 116.294 25.3237C117 25.3237 117.66 25.1633 118.274 24.8423C118.889 24.5122 119.384 24.0263 119.76 23.3844C120.145 22.7426 120.333 21.9495 120.324 21.005ZM138.654 30.3438C137.05 30.3438 135.596 29.9312 134.294 29.106C133.001 28.2716 131.974 27.0475 131.213 25.4337C130.461 23.8108 130.086 21.8211 130.086 19.4646C130.086 17.0439 130.475 15.0313 131.255 13.4267C132.034 11.8129 133.07 10.6072 134.363 9.80946C135.665 9.00257 137.091 8.59912 138.64 8.59912C139.823 8.59912 140.809 8.80085 141.597 9.20429C142.395 9.59857 143.037 10.0937 143.523 10.6897C144.018 11.2765 144.394 11.8542 144.651 12.4227H144.83V1.83227H150.675V30H144.898V26.6166H144.651C144.376 27.2034 143.986 27.7856 143.482 28.3633C142.987 28.9318 142.34 29.404 141.542 29.7799C140.754 30.1559 139.791 30.3438 138.654 30.3438ZM140.511 25.6813C141.455 25.6813 142.253 25.4246 142.904 24.9111C143.564 24.3885 144.069 23.6595 144.417 22.7243C144.775 21.789 144.953 20.6933 144.953 19.4371C144.953 18.1809 144.779 17.0898 144.431 16.1637C144.082 15.2376 143.578 14.5224 142.918 14.0181C142.258 13.5138 141.455 13.2617 140.511 13.2617C139.548 13.2617 138.737 13.523 138.076 14.0456C137.416 14.5683 136.917 15.2926 136.577 16.2187C136.238 17.1448 136.068 18.2176 136.068 19.4371C136.068 20.6658 136.238 21.7523 136.577 22.6967C136.926 23.632 137.425 24.3655 138.076 24.8973C138.737 25.42 139.548 25.6813 140.511 25.6813ZM155.492 30V8.8742H161.351V30H155.492ZM158.436 6.15095C157.564 6.15095 156.817 5.86212 156.194 5.28446C155.579 4.69764 155.272 3.99619 155.272 3.18014C155.272 2.37325 155.579 1.68097 156.194 1.10332C156.817 0.516488 157.564 0.223074 158.436 0.223074C159.307 0.223074 160.049 0.516488 160.664 1.10332C161.287 1.68097 161.599 2.37325 161.599 3.18014C161.599 3.99619 161.287 4.69764 160.664 5.28446C160.049 5.86212 159.307 6.15095 158.436 6.15095ZM175.59 30.4126C173.454 30.4126 171.606 29.9587 170.047 29.051C168.498 28.1341 167.301 26.8596 166.457 25.2274C165.614 23.5862 165.192 21.6835 165.192 19.5196C165.192 17.3374 165.614 15.4302 166.457 13.7981C167.301 12.1568 168.498 10.8823 170.047 9.9745C171.606 9.05758 173.454 8.59912 175.59 8.59912C177.726 8.59912 179.569 9.05758 181.119 9.9745C182.678 10.8823 183.879 12.1568 184.722 13.7981C185.566 15.4302 185.988 17.3374 185.988 19.5196C185.988 21.6835 185.566 23.5862 184.722 25.2274C183.879 26.8596 182.678 28.1341 181.119 29.051C179.569 29.9587 177.726 30.4126 175.59 30.4126ZM175.617 25.8739C176.589 25.8739 177.401 25.5988 178.052 25.0486C178.703 24.4893 179.193 23.7283 179.524 22.7655C179.863 21.8027 180.032 20.707 180.032 19.4784C180.032 18.2497 179.863 17.154 179.524 16.1912C179.193 15.2284 178.703 14.4674 178.052 13.9081C177.401 13.3488 176.589 13.0691 175.617 13.0691C174.636 13.0691 173.811 13.3488 173.142 13.9081C172.482 14.4674 171.982 15.2284 171.643 16.1912C171.313 17.154 171.147 18.2497 171.147 19.4784C171.147 20.707 171.313 21.8027 171.643 22.7655C171.982 23.7283 172.482 24.4893 173.142 25.0486C173.811 25.5988 174.636 25.8739 175.617 25.8739Z" fill="black"/>
<path d="M193.222 30.3576C192.314 30.3576 191.535 30.0367 190.884 29.3948C190.242 28.7438 189.921 27.9644 189.921 27.0567C189.921 26.1581 190.242 25.3879 190.884 24.7461C191.535 24.1042 192.314 23.7833 193.222 23.7833C194.102 23.7833 194.873 24.1042 195.533 24.7461C196.193 25.3879 196.523 26.1581 196.523 27.0567C196.523 27.6619 196.367 28.2166 196.056 28.7209C195.753 29.216 195.354 29.6149 194.859 29.9175C194.364 30.2109 193.818 30.3576 193.222 30.3576Z" fill="#D46633"/>
</svg>
