<svg width="48" height="47" viewBox="0 0 48 47" fill="none" xmlns="http://www.w3.org/2000/svg">
<path d="M29.7725 28.0923V23.8479C29.7725 23.8463 29.7727 23.8446 29.7727 23.8429V23.173C29.7727 23.1712 29.7726 23.1696 29.7725 23.1678V12.2342C29.7725 11.7399 29.3692 11.3376 28.8735 11.3376H13.0247C12.5304 11.3376 12.1282 11.7399 12.1282 12.2342V22.7715C12.1282 22.7779 12.1282 22.7844 12.1282 22.7908V28.0923C12.1282 28.5866 12.5304 28.9888 13.0247 28.9888H28.8735C29.3692 28.9888 29.7725 28.5866 29.7725 28.0923ZM28.3913 12.7189V21.4834L26.1147 19.1645C26.112 19.1618 26.1092 19.1589 26.1064 19.1562C25.624 18.6814 25.1618 18.5925 24.855 18.6005C24.5622 18.6088 24.1262 18.7153 23.7054 19.1737L20.095 22.8569L17.0841 19.7878C17.0812 19.7849 17.0782 19.7819 17.0753 19.7789C16.6142 19.3257 16.1692 19.24 15.8766 19.249C15.5958 19.2572 15.1779 19.3591 14.7762 19.7966L13.5093 21.087V12.7188H28.3913V12.7189ZM13.5094 23.0586L15.7708 20.7552C15.7773 20.7486 15.7837 20.7417 15.79 20.7349C15.8688 20.6479 15.9151 20.631 15.9149 20.6296C15.9214 20.6308 15.9857 20.6457 16.1031 20.7599L19.7069 24.4334C19.7119 24.4385 19.717 24.4435 19.7222 24.4485L23.0196 27.6075H13.5094V23.0586ZM25.0162 27.6075L21.0743 23.8311L24.7004 20.1317C24.7066 20.1253 24.7128 20.1187 24.7188 20.1121C24.815 20.006 24.878 19.9815 24.8942 19.981C24.918 19.9841 25.001 20.0073 25.1337 20.1366L28.3913 23.4549V27.6074H25.0162V27.6075Z" fill="black"/>
<path d="M13.5954 9.15009C13.5954 8.76859 13.2863 8.45947 12.9048 8.45947H9.77045C9.38905 8.45947 9.07983 8.76859 9.07983 9.15009V12.2836C9.07983 12.6651 9.38905 12.9743 9.77045 12.9743C10.1519 12.9743 10.4611 12.6651 10.4611 12.2836V9.8407H12.9048C13.2862 9.8407 13.5954 9.53158 13.5954 9.15009Z" fill="black"/>
<path d="M32.1277 27.3494C31.7462 27.3494 31.4371 27.6585 31.4371 28.04V30.4855H28.9959C28.6144 30.4855 28.3053 30.7946 28.3053 31.1761C28.3053 31.5576 28.6144 31.8667 28.9959 31.8667H32.1276C32.5091 31.8667 32.8182 31.5576 32.8182 31.1761V28.04C32.8183 27.6585 32.5091 27.3494 32.1277 27.3494Z" fill="black"/>
<path d="M46.7864 37.044L43.2974 29.7397V13.4278C43.4935 13.3916 43.678 13.3144 43.8352 13.1967C44.1306 12.9754 44.3108 12.6386 44.3425 12.2484C44.3434 12.2365 44.3442 12.2247 44.3444 12.2128L44.3807 10.9779L44.4487 9.19378L45.482 7.68879L46.1854 6.64863C46.1907 6.6408 46.1957 6.63297 46.2006 6.62505C46.4066 6.29209 46.4594 5.90074 46.3453 5.55119C46.228 5.19124 45.9521 4.90708 45.5687 4.75118C45.5584 4.74695 45.548 4.74299 45.5375 4.73931L42.562 3.69445L40.5892 1.32527C40.5821 1.31652 40.5746 1.30796 40.5669 1.29967C40.334 1.04654 40.0275 0.888984 39.7039 0.85611C39.6577 0.851322 39.6114 0.851322 39.5651 0.855926C39.2413 0.888339 38.9344 1.04589 38.701 1.29967C38.6934 1.30805 38.6859 1.31661 38.6786 1.32527L36.7037 3.69436L33.73 4.73958C33.7197 4.74326 33.7094 4.74713 33.6993 4.75128C33.3137 4.908 33.0371 5.19364 32.9204 5.55534C32.9186 5.56049 32.9179 5.56593 32.9162 5.57108H29.0752L29.4559 5.01435L29.9378 4.30265C29.944 4.29344 29.9501 4.28414 29.9558 4.27466C30.1289 3.9904 30.1714 3.6555 30.0725 3.35596C29.9713 3.04951 29.7386 2.8089 29.4174 2.67851C29.4072 2.67436 29.3968 2.6704 29.3864 2.66681L27.4084 1.97362L26.0985 0.400488C26.0917 0.392293 26.0848 0.384374 26.0776 0.376547C25.8829 0.163008 25.6229 0.0304101 25.3451 0.00324589C25.3006 -0.00108196 25.2555 -0.00108196 25.211 0.00324589C24.9335 0.0304101 24.6735 0.162824 24.4786 0.376271C24.4718 0.383729 24.4652 0.391464 24.4586 0.399291L23.1449 1.9738L21.1697 2.66681C21.1593 2.6704 21.1489 2.67436 21.1387 2.67851C20.8153 2.80991 20.5816 3.05227 20.481 3.36093C20.3831 3.66158 20.4276 3.99629 20.6032 4.27954C20.6083 4.28783 20.6137 4.29593 20.6191 4.30403L21.1584 5.09649C21.1584 5.09668 21.1585 5.09686 21.1587 5.09704L21.482 5.57108H1.92295C0.862625 5.57108 0 6.43398 0 7.49477V36.9168C0 37.9776 0.862625 38.8405 1.92295 38.8405H15.604V41.8024H11.6412C9.99625 41.8024 8.65793 43.1414 8.65793 44.7872V45.6945C8.65793 46.3426 9.1851 46.87 9.83308 46.87H33.4617C34.1097 46.87 34.6369 46.3426 34.6369 45.6945V44.7872C34.6369 43.1414 33.2985 41.8024 31.6535 41.8024H27.6934V38.8405H41.2863L41.5551 39.4523C42.2796 41.1006 43.4265 41.4499 44.0457 41.5114C44.1312 41.5199 44.2164 41.5241 44.3017 41.5241C45.1918 41.5241 46.054 41.0673 46.5982 40.2921C47.2562 39.3551 47.3247 38.1713 46.7864 37.044ZM37.3406 4.9347C37.4582 4.89345 37.5624 4.82117 37.6422 4.72549L39.634 2.33661L41.6227 4.72503C41.7025 4.82098 41.8068 4.89345 41.9247 4.9348L44.9571 5.99954L44.3407 6.91097L43.1969 8.57683C43.123 8.68447 43.0811 8.8109 43.0761 8.94147L43.0003 10.9313L42.9674 12.0536L42.8141 12.016C42.7883 12.0079 42.7618 12.0016 42.7348 11.9966L39.7984 11.2767C39.7444 11.2634 39.6891 11.2568 39.634 11.2568C39.5788 11.2568 39.5237 11.2633 39.4697 11.2766L36.3005 12.0535L36.2674 10.9244L36.1891 8.94046C36.1839 8.81072 36.1423 8.68493 36.069 8.57775L35.0121 7.03307L34.311 5.99936L37.3406 4.9347ZM23.7818 3.21406C23.8995 3.1729 24.0037 3.10052 24.0835 3.00485L25.2775 1.57371L26.4699 3.00475C26.5499 3.10061 26.6544 3.17299 26.7721 3.21424L28.5783 3.84694L27.5349 5.37651C27.4617 5.48351 27.4201 5.60893 27.4149 5.73858L27.3948 6.23757C27.3945 6.24558 27.3935 6.2535 27.3935 6.26161C27.3935 6.26253 27.3936 6.26345 27.3937 6.26428L27.3599 7.10268L27.3462 7.59818L25.443 7.1316C25.3346 7.10499 25.2217 7.10499 25.1132 7.1316L23.2088 7.59836L23.1612 6.28849C23.1616 6.27947 23.1626 6.27063 23.1626 6.26151C23.1626 6.23371 23.1605 6.20636 23.1573 6.17938L23.1413 5.73969C23.1363 5.61003 23.0949 5.48443 23.0217 5.37707L22.3004 4.31913L21.9787 3.84638L23.7818 3.21406ZM1.38123 7.49477C1.38123 7.20075 1.6293 6.95231 1.92304 6.95231H21.8058L21.8131 7.1432L21.8392 7.99045C21.8396 8.00214 21.8402 8.01384 21.8411 8.02553C21.8681 8.35555 22.0216 8.64138 22.2734 8.83033C22.5268 9.02048 22.8614 9.0912 23.1912 9.02389C23.1995 9.02214 23.208 9.02029 23.2163 9.01818L25.2781 8.51357L27.3399 9.01818C27.3478 9.02011 27.3558 9.02195 27.3638 9.02361C27.4458 9.04055 27.5282 9.04884 27.6096 9.04884C27.8547 9.04875 28.0908 8.97352 28.2816 8.83051C28.5341 8.64128 28.6881 8.35546 28.7151 8.02553C28.7162 8.01319 28.7168 8.00076 28.7171 7.98842L28.7403 7.14983L28.7482 6.95231H33.2885L33.8699 7.80951C33.8705 7.81034 33.871 7.81107 33.8716 7.81181L34.817 9.19359L34.8871 10.9719L34.9236 12.2128C34.924 12.2248 34.9247 12.2366 34.9255 12.2485C34.9573 12.6387 35.1375 12.9755 35.4328 13.1968C35.6563 13.3641 35.9338 13.4521 36.2234 13.4521C36.3213 13.4521 36.4207 13.4421 36.5198 13.4215C36.5281 13.4198 36.5362 13.418 36.5445 13.4159L39.634 12.6585L41.9162 13.2179V26.8482L38.515 19.7276C38.513 19.723 38.5114 19.7184 38.5092 19.7138C38.507 19.709 38.5041 19.7047 38.5017 19.7L36.8233 16.186C35.9991 14.4591 34.414 14.085 33.2741 14.6075C32.1847 15.1072 31.4685 16.4909 32.2066 18.1687L33.8483 21.9099L38.9226 33.4602H1.38123V7.49477ZM36.9639 19.6848L34.8267 20.7025L33.4715 17.6139C33.4714 17.6136 33.4712 17.6133 33.4711 17.613C33.045 16.6452 33.4089 16.0654 33.8499 15.8631C33.9777 15.8045 34.1209 15.7725 34.2713 15.7725C34.7205 15.7725 35.2322 16.059 35.5769 16.7812L36.9639 19.6848ZM31.6536 43.1836C32.537 43.1836 33.2557 43.9029 33.2557 44.7871V45.4886H10.0391V44.7871C10.0391 43.9028 10.7579 43.1836 11.6412 43.1836H31.6536ZM16.9851 41.8023V38.8404H26.3123V41.8023H16.9851ZM27.0029 37.4592H16.2946H1.92295C1.6293 37.4592 1.38114 37.2109 1.38114 36.9168V34.8414H39.5294L40.6795 37.4592H27.0029ZM45.468 39.4983C45.1579 39.9401 44.6657 40.1849 44.1824 40.1369C43.6311 40.0821 43.1471 39.6416 42.8197 38.8965L42.3532 37.8346C42.3513 37.8301 42.3493 37.8257 42.3474 37.8213L40.6187 33.8866C40.617 33.8823 40.6149 33.8781 40.6131 33.8738L35.3824 21.9677L37.5594 20.931L45.5402 37.6391C45.8574 38.3036 45.831 38.9811 45.468 39.4983Z" fill="black"/>
</svg>
