<svg width="35" height="47" viewBox="0 0 35 47" fill="none" xmlns="http://www.w3.org/2000/svg">
<path d="M29.8216 33.1583C33.2625 30.6558 32.3241 27.5798 31.5421 25.0252C31.1771 23.8782 30.8643 22.8355 30.8643 21.8449V20.333C31.2814 19.8116 31.5421 19.1339 31.5421 18.404C31.5421 17.6741 31.2814 16.9963 30.8643 16.4749V10.74C30.8643 9.01954 30.5515 5.83927 28.5182 4.17093C27.3712 3.23249 25.8593 2.91967 24.0867 3.18035C20.9064 0.20862 16.4227 -0.729822 12.0433 0.573569C7.4554 1.98123 4.06658 5.57859 3.23241 10.0623C2.97173 11.4178 2.81532 12.9818 2.81532 14.8587V17.6219C2.76319 18.9774 2.13756 19.9159 1.51193 20.9586C1.30339 21.2714 1.09485 21.5842 0.938442 21.897C-0.521356 24.3995 0.156407 27.1106 2.65892 28.9875C3.54522 29.6652 3.38882 29.8738 2.81532 30.9165H2.71105C1.72048 32.5848 1.40766 34.1489 1.72048 35.6087C0.573492 37.0685 0 38.9975 0 41.3436V46.088C0 46.5051 0.364949 46.87 0.782034 46.87H33.836C34.2531 46.87 34.618 46.5051 34.618 46.088V41.3436C34.618 37.4335 33.054 34.7745 29.8216 33.1583ZM28.049 32.4806L22.679 30.6037V28.1012C25.0251 26.6935 26.7456 24.3474 27.3712 21.6364H28.3618C28.7267 21.6364 29.0395 21.5842 29.3524 21.48V21.897C29.3524 23.0962 29.7173 24.3474 30.0823 25.5465C30.8643 28.2576 31.5421 30.4994 28.049 32.4806ZM9.38441 22.9398C8.96733 22.0013 8.70665 21.0107 8.60238 20.0202C15.3279 19.4988 19.7594 17.4134 21.6884 13.7639C22.2098 12.7733 23.0439 12.7733 23.6696 12.9297C24.8166 13.2425 26.0157 14.4416 26.0157 15.9536V19.2903C26.0157 24.0867 22.1055 28.049 17.2569 28.049C13.9202 28.049 10.7921 26.0158 9.38441 22.9398ZM28.3096 16.7356C29.2481 16.7356 29.978 17.4655 29.978 18.404C29.978 19.3424 29.2481 20.0723 28.3096 20.0723H27.5797C27.5797 19.8116 27.6319 19.5509 27.6319 19.2903V16.7356H28.3096ZM4.01444 31.6985C4.64007 30.6558 5.47424 29.196 3.49309 27.6841C1.6162 26.2764 1.14698 24.4517 2.1897 22.6269C2.3461 22.3663 2.55465 22.0534 2.71105 21.7928C3.44095 20.6979 4.22299 19.4988 4.27512 17.6219V14.8066C4.27512 13.034 4.37939 11.5742 4.64007 10.3229C5.47424 6.46489 8.44597 3.28462 12.4604 2.0855C16.4227 0.886382 20.4893 1.82482 23.2525 4.58801C23.461 4.79655 23.7217 4.84869 23.9824 4.79655C25.4943 4.48374 26.6934 4.69228 27.5276 5.37005C29.0917 6.6213 29.3002 9.28022 29.3002 10.74V15.328C28.9874 15.2237 28.6746 15.1715 28.3096 15.1715H27.5276C27.1627 13.1904 25.5986 11.7827 24.0345 11.4178C22.4705 11.0007 21.0628 11.6263 20.2808 13.034C18.5081 16.3185 14.2852 18.1433 7.71607 18.5082C7.29899 18.5082 6.98617 18.8732 6.98617 19.2903C6.98617 20.8022 7.29899 22.262 7.92461 23.6175C8.86306 25.7029 10.4793 27.3191 12.4083 28.3619H12.4604C14.7544 29.7695 13.9723 31.9592 13.5031 32.8455C13.2424 33.419 12.8254 33.9404 12.4083 34.4617C11.3134 35.9215 10.0622 37.5899 10.6357 40.6659C8.39384 40.0402 4.5358 38.5804 3.38882 36.0258C2.91959 34.7745 3.076 33.3147 4.01444 31.6985ZM11.5741 42.5427H11.7305C11.9391 42.5427 12.1476 42.4385 12.304 42.2821C12.5126 42.0735 12.5647 41.8128 12.4604 41.5C12.2519 40.7701 12.0955 40.1445 12.0955 39.571C13.8159 39.4667 15.5364 40.1445 16.6834 41.5C16.8398 41.6564 17.0483 41.7607 17.2569 41.7607C17.4654 41.7607 17.7261 41.6564 17.8304 41.5C18.9252 40.2488 20.4372 39.5189 22.0012 39.5189C23.5132 39.5189 24.9208 40.1445 26.0157 41.2915C27.0063 42.3863 27.6319 43.794 27.684 45.3059H6.8819C6.93404 43.8983 7.45539 42.5949 8.3417 41.5C9.59295 42.0214 10.7921 42.3342 11.5741 42.5427ZM1.56407 41.3958C1.56407 39.8317 1.82475 38.5283 2.39824 37.4335C3.38882 38.9975 5.10929 40.1445 6.82977 40.9787C5.94346 42.2299 5.36997 43.7419 5.31783 45.3581H1.56407V41.3958ZM33.054 45.3581H29.3002C29.2481 43.4291 28.5182 41.6564 27.2148 40.2488C25.8593 38.789 24.0345 38.0069 22.0534 38.0069C20.2808 38.0069 18.6124 38.6847 17.309 39.8838C16.0056 38.6847 14.2852 38.0069 12.5647 38.0069C12.4604 38.0069 12.3561 38.0069 12.304 38.0069C12.5647 37.0164 13.1382 36.2343 13.7638 35.4523C14.1809 34.8788 14.6501 34.3053 15.0151 33.5754C15.745 32.0635 15.9014 30.6037 15.4321 29.4046C16.0578 29.5088 16.7355 29.6131 17.4133 29.6131C18.7688 29.6131 20.0201 29.3524 21.1671 28.8832V31.1772C21.1671 31.49 21.3756 31.8028 21.6884 31.9071L27.9447 34.0446C30.3429 34.8788 33.1583 36.4429 33.1583 41.3436V45.3581H33.054Z" fill="black"/>
</svg>
