<svg width="47" height="47" viewBox="0 0 47 47" fill="none" xmlns="http://www.w3.org/2000/svg">
<path d="M30.1188 0.968531C28.6807 0.541209 27.1918 0.251385 25.6936 0.107663C25.2655 0.0693977 24.8819 0.381833 24.8413 0.810711C24.7999 1.23959 25.1147 1.6216 25.5444 1.66297C26.9427 1.79736 28.3323 2.06759 29.6736 2.46599C29.7478 2.48787 29.8228 2.49876 29.8962 2.49876C30.2321 2.49876 30.543 2.27851 30.6453 1.94026C30.768 1.5263 30.5321 1.0912 30.1188 0.968531Z" fill="black"/>
<path d="M21.1862 0.106919C19.6879 0.249909 18.199 0.538909 16.7601 0.966231C16.3469 1.0889 16.1109 1.524 16.2336 1.93723C16.3344 2.27703 16.6453 2.49655 16.982 2.49655C17.0554 2.49655 17.1304 2.48566 17.2054 2.46378C18.5475 2.06539 19.9364 1.79506 21.3347 1.66232C21.7635 1.62168 22.0783 1.24049 22.0377 0.810883C21.9971 0.381273 21.6158 0.0670978 21.1862 0.106919Z" fill="black"/>
<path d="M7.03074 0C4.44667 0 2.34375 2.1021 2.34375 4.68699C2.34375 7.27188 4.44667 9.37398 7.03074 9.37398C9.61481 9.37398 11.7177 7.27188 11.7177 4.68699C11.7177 2.1021 9.61481 0 7.03074 0ZM7.03074 7.81162C5.30745 7.81162 3.90611 6.41019 3.90611 4.68699C3.90611 2.96379 5.30745 1.56236 7.03074 1.56236C8.75403 1.56236 10.1554 2.96379 10.1554 4.68699C10.1554 6.41019 8.75403 7.81162 7.03074 7.81162Z" fill="black"/>
<path d="M10.1572 6.24765H10.1377C9.89315 6.24765 9.66191 6.36244 9.51426 6.5578C8.91355 7.35376 8.00819 7.80992 7.03098 7.80992C6.05376 7.80992 5.1484 7.35376 4.54769 6.55771C4.40003 6.36244 4.1493 6.24756 3.90479 6.24756C1.75189 6.24765 0.000488281 7.99896 0.000488281 10.1519V13.278C0.000488281 13.7092 0.350456 14.0592 0.781623 14.0592H13.2802C13.7114 14.0592 14.0614 13.7092 14.0614 13.278V10.1519C14.0615 7.99896 12.3101 6.24765 10.1572 6.24765ZM12.4991 12.4969H1.56285V10.1519C1.56285 8.97617 2.43305 8.00051 3.57826 7.83491C4.46723 8.81689 5.70379 9.37228 7.03098 9.37228C8.35899 9.37228 9.59628 8.81607 10.4853 7.83262C11.6218 7.99273 12.4991 8.97233 12.4991 10.1519V12.4969Z" fill="black"/>
<path d="M39.8401 0C37.256 0 35.1531 2.1021 35.1531 4.68699C35.1531 7.27188 37.256 9.37398 39.8401 9.37398C42.4241 9.37398 44.5271 7.27188 44.5271 4.68699C44.5271 2.1021 42.4241 0 39.8401 0ZM39.8401 7.81162C38.1168 7.81162 36.7154 6.41019 36.7154 4.68699C36.7154 2.96379 38.1169 1.56236 39.8401 1.56236C41.5634 1.56236 42.9647 2.96379 42.9647 4.68699C42.9647 6.41019 41.5634 7.81162 39.8401 7.81162Z" fill="black"/>
<path d="M42.9666 6.24829H42.9471C42.7026 6.24829 42.4713 6.36309 42.3237 6.55844C41.723 7.3544 40.8176 7.81065 39.8403 7.81065C38.8631 7.81065 37.9577 7.35449 37.357 6.55844C37.2094 6.36318 36.9586 6.24829 36.7141 6.24829C34.5612 6.24829 32.8098 7.99969 32.8098 10.1526V13.2788C32.8098 13.7099 33.1598 14.0599 33.591 14.0599H46.0896C46.5207 14.0599 46.8707 13.7099 46.8707 13.2788V10.1526C46.8709 7.9996 45.1195 6.24829 42.9666 6.24829ZM45.3085 12.4976H34.3723V10.1525C34.3723 8.97682 35.2425 8.00115 36.3877 7.83555C37.2766 8.81744 38.5132 9.37292 39.8404 9.37292C41.1684 9.37292 42.4057 8.81671 43.2947 7.83326C44.4313 7.99337 45.3085 8.97297 45.3085 10.1525V12.4976Z" fill="black"/>
<path d="M7.0305 32.8098C4.44643 32.8098 2.34351 34.9119 2.34351 37.4968C2.34351 40.0817 4.44643 42.1838 7.0305 42.1838C9.61457 42.1838 11.7175 40.0817 11.7175 37.4968C11.7175 34.9119 9.61457 32.8098 7.0305 32.8098ZM7.0305 40.6214C5.3072 40.6214 3.90587 39.22 3.90587 37.4968C3.90587 35.7735 5.3073 34.3722 7.0305 34.3722C8.7537 34.3722 10.1551 35.7736 10.1551 37.4968C10.1551 39.2201 8.75379 40.6214 7.0305 40.6214Z" fill="black"/>
<path d="M10.1568 39.0583H10.1373C9.89276 39.0583 9.66152 39.1731 9.51386 39.3685C8.91316 40.1645 8.0078 40.6207 7.03049 40.6207C6.05327 40.6207 5.14791 40.1646 4.54721 39.3685C4.39955 39.1732 4.14881 39.0583 3.9043 39.0583C1.7514 39.0583 0 40.8097 0 42.9626V46.0888C9.15428e-05 46.52 0.35006 46.87 0.781226 46.87H13.2798C13.711 46.87 14.061 46.52 14.061 46.0888V42.9626C14.0611 40.8097 12.3097 39.0583 10.1568 39.0583ZM12.4987 45.3076H1.56245V42.9626C1.56245 41.7869 2.43266 40.8112 3.57786 40.6456C4.46683 41.6276 5.70339 42.183 7.03058 42.183C8.35859 42.183 9.59588 41.6268 10.4849 40.6433C11.6214 40.8034 12.4987 41.783 12.4987 42.9626V45.3076Z" fill="black"/>
<path d="M39.8401 32.8098C37.256 32.8098 35.1531 34.9119 35.1531 37.4968C35.1531 40.0817 37.256 42.1838 39.8401 42.1838C42.4241 42.1838 44.5271 40.0817 44.5271 37.4968C44.5271 34.9119 42.4241 32.8098 39.8401 32.8098ZM39.8401 40.6214C38.1168 40.6214 36.7154 39.22 36.7154 37.4968C36.7154 35.7735 38.1169 34.3722 39.8401 34.3722C41.5634 34.3722 42.9647 35.7736 42.9647 37.4968C42.9647 39.2201 41.5634 40.6214 39.8401 40.6214Z" fill="black"/>
<path d="M42.9666 39.0579H42.9471C42.7026 39.0579 42.4713 39.1727 42.3237 39.368C41.723 40.164 40.8176 40.6202 39.8403 40.6202C38.8631 40.6202 37.9577 40.1641 37.357 39.368C37.2094 39.1727 36.9586 39.0579 36.7141 39.0579C34.5612 39.0579 32.8098 40.8093 32.8098 42.9622V46.0883C32.8098 46.5195 33.1598 46.8695 33.591 46.8695H46.0896C46.5207 46.8695 46.8707 46.5195 46.8707 46.0883V42.9622C46.8709 40.8092 45.1195 39.0579 42.9666 39.0579ZM45.3085 45.3071H34.3723V42.9621C34.3723 41.7864 35.2425 40.8107 36.3877 40.6451C37.2766 41.627 38.5132 42.1825 39.8404 42.1825C41.1684 42.1825 42.4057 41.6263 43.2947 40.6428C44.4313 40.8029 45.3085 41.7825 45.3085 42.9621V45.3071Z" fill="black"/>
<path d="M36.3815 3.89982C35.7089 3.45373 35.0074 3.03821 34.2966 2.66554C33.9146 2.46552 33.4428 2.61245 33.242 2.99446C33.042 3.37647 33.1897 3.84901 33.5717 4.04903C34.2357 4.39744 34.8903 4.78485 35.5176 5.20128C35.6504 5.28953 35.8004 5.33173 35.9488 5.33173C36.2011 5.33173 36.4495 5.20906 36.6003 4.98258C36.8385 4.62319 36.7408 4.1381 36.3815 3.89982Z" fill="black"/>
<path d="M13.6307 2.99442C13.4307 2.61241 12.9581 2.46557 12.5761 2.6655C11.8653 3.03808 11.1638 3.45369 10.4911 3.89978C10.1318 4.13806 10.0334 4.62315 10.2725 4.98245C10.4224 5.20902 10.6708 5.3316 10.924 5.3316C11.0724 5.3316 11.2224 5.28939 11.3551 5.20115C11.9824 4.78399 12.6378 4.39658 13.3011 4.0489C13.6838 3.84906 13.8306 3.37642 13.6307 2.99442Z" fill="black"/>
<path d="M44.3049 32.2893C43.9142 32.1057 43.4495 32.276 43.2667 32.6666C42.9495 33.3462 42.5926 34.018 42.2059 34.6632C41.9848 35.0335 42.1044 35.5131 42.4746 35.735C42.6003 35.8108 42.7386 35.8467 42.8753 35.8467C43.1409 35.8467 43.4002 35.7108 43.5448 35.4671C43.9596 34.7757 44.3424 34.0563 44.6822 33.3274C44.8649 32.9368 44.6955 32.4721 44.3049 32.2893Z" fill="black"/>
<path d="M46.7639 21.1983C46.7233 20.7687 46.3437 20.4577 45.9125 20.4944C45.4829 20.535 45.1681 20.9162 45.2086 21.3458C45.275 22.0356 45.3079 22.7378 45.3079 23.4331C45.3079 24.6752 45.2024 25.9211 44.9954 27.1366C44.9236 27.5616 45.2095 27.9655 45.6344 28.0381C45.6782 28.0459 45.7226 28.049 45.7664 28.049C46.1398 28.049 46.4703 27.7803 46.5351 27.3998C46.7576 26.0977 46.8701 24.7635 46.8701 23.4332C46.8701 22.6888 46.8342 21.9365 46.7639 21.1983Z" fill="black"/>
<path d="M45.3588 15.1484C45.0745 14.3976 44.7464 13.6509 44.3839 12.9298C44.1893 12.5447 43.7199 12.3885 43.3348 12.583C42.9489 12.7767 42.7934 13.2462 42.9872 13.6321C43.3254 14.3046 43.6316 15.0014 43.8972 15.7021C44.0152 16.0138 44.312 16.2068 44.6276 16.2068C44.7198 16.2068 44.8127 16.1904 44.9049 16.156C45.3088 16.0029 45.5119 15.5523 45.3588 15.1484Z" fill="black"/>
<path d="M3.53574 12.583C3.14989 12.3885 2.68037 12.5447 2.48666 12.9298C2.12425 13.6508 1.79616 14.3976 1.51173 15.1484C1.35858 15.5523 1.56171 16.003 1.9656 16.1561C2.05696 16.1904 2.14997 16.2069 2.24215 16.2069C2.5577 16.2069 2.85457 16.0139 2.9733 15.7022C3.23887 15.0015 3.54508 14.3047 3.88333 13.6322C4.07713 13.2462 3.92086 12.7768 3.53574 12.583Z" fill="black"/>
<path d="M1.87446 27.1337C1.66748 25.9206 1.56276 24.6762 1.56276 23.4357C1.56276 22.7373 1.59635 22.0335 1.66117 21.3445C1.70254 20.9149 1.38773 20.5336 0.958117 20.4922C0.532352 20.4555 0.147231 20.7656 0.106678 21.1953C0.0364646 21.9343 0.000488281 22.6873 0.000488281 23.4357C0.000488281 24.7644 0.112994 26.0964 0.33407 27.3962C0.399706 27.7774 0.729352 28.0461 1.10349 28.0461C1.14724 28.0461 1.19173 28.043 1.23549 28.0351C1.66126 27.9626 1.94715 27.5587 1.87446 27.1337Z" fill="black"/>
<path d="M4.6653 34.6632C4.27863 34.018 3.92161 33.3462 3.6045 32.6666C3.42169 32.276 2.95693 32.1057 2.56632 32.2893C2.1757 32.4721 2.00699 32.9368 2.18898 33.3274C2.52961 34.0563 2.91153 34.7757 3.3264 35.4671C3.47323 35.7116 3.73184 35.8467 3.99741 35.8467C4.13408 35.8467 4.2724 35.8107 4.39662 35.735C4.76682 35.5131 4.88711 35.0334 4.6653 34.6632Z" fill="black"/>
<path d="M34.3692 20.3103H20.3122C19.4498 20.3103 18.7483 21.0118 18.7483 21.8742V31.2451C18.7483 32.1075 19.4498 32.809 20.3129 32.809H27.7989L32.257 37.2671C32.4062 37.4164 32.6061 37.496 32.8093 37.496C32.9101 37.496 33.0116 37.4765 33.1084 37.4366C33.3998 37.3155 33.5904 37.0304 33.5904 36.7148V32.8089H34.37C35.2324 32.8089 35.9339 32.1074 35.9339 31.2443V21.8741C35.9339 21.0118 35.2324 20.3103 34.3692 20.3103ZM34.3701 31.2466H32.8093C32.3781 31.2466 32.0281 31.5965 32.0281 32.0277V34.829L28.6746 31.4754C28.5284 31.3286 28.3293 31.2466 28.1223 31.2466L20.3107 31.2442V21.8741L20.3122 21.8726L34.3716 21.8741L34.3701 31.2466Z" fill="black"/>
<path d="M25.7745 15.6243H11.7175C10.8551 15.6243 10.1536 16.3258 10.1536 17.1882V26.5591C10.1536 27.4215 10.8551 28.123 11.7175 28.123H12.4971V32.0288C12.4971 32.3444 12.6877 32.6295 12.9799 32.7506C13.076 32.7905 13.1775 32.8101 13.2783 32.8101C13.4814 32.8101 13.6813 32.7304 13.8306 32.5812L18.2887 28.1231H19.5276C19.9588 28.1231 20.3088 27.7731 20.3088 27.3419V21.8751L26.5581 21.8735C26.9893 21.8735 27.3393 21.5236 27.3393 21.0924V17.1881C27.3393 16.3258 26.6378 15.6243 25.7745 15.6243ZM25.7769 20.3113H20.3103C19.4479 20.3113 18.7464 21.0128 18.7464 21.8752V26.5606H17.9653C17.7583 26.5606 17.5591 26.6426 17.413 26.7895L14.0594 30.143V27.3417C14.0594 26.9105 13.7095 26.5605 13.2783 26.5605L11.7159 26.559L11.7175 17.1865L25.7769 17.1881V20.3113Z" fill="black"/>
<path d="M27.3404 24.2148H22.6534C22.2223 24.2148 21.8723 24.5648 21.8723 24.996C21.8723 25.4271 22.2223 25.7771 22.6534 25.7771H27.3404C27.7716 25.7771 28.1216 25.4271 28.1216 24.996C28.1216 24.5648 27.7716 24.2148 27.3404 24.2148Z" fill="black"/>
<path d="M32.03 24.2148H30.4677C30.0365 24.2148 29.6865 24.5648 29.6865 24.996C29.6865 25.4271 30.0365 25.7771 30.4677 25.7771H32.03C32.4612 25.7771 32.8112 25.4271 32.8112 24.996C32.8112 24.5648 32.4612 24.2148 32.03 24.2148Z" fill="black"/>
<path d="M32.0267 27.3391H27.3397C26.9086 27.3391 26.5586 27.6891 26.5586 28.1202C26.5586 28.5514 26.9086 28.9014 27.3397 28.9014H32.0267C32.4579 28.9014 32.8079 28.5514 32.8079 28.1202C32.8079 27.6891 32.4579 27.3391 32.0267 27.3391Z" fill="black"/>
<path d="M24.2158 27.3391H22.6534C22.2223 27.3391 21.8723 27.6891 21.8723 28.1202C21.8723 28.5514 22.2223 28.9014 22.6534 28.9014H24.2158C24.647 28.9014 24.9969 28.5514 24.9969 28.1202C24.9969 27.6891 24.6471 27.3391 24.2158 27.3391Z" fill="black"/>
<path d="M15.7012 43.8974C15.0013 43.6318 14.3053 43.3263 13.6312 42.9873C13.2461 42.7944 12.7758 42.9491 12.5821 43.3342C12.3884 43.72 12.5438 44.1896 12.9297 44.3833C13.6515 44.7465 14.3983 45.0746 15.1482 45.3582C15.2396 45.3925 15.3326 45.409 15.4248 45.409C15.7404 45.409 16.0372 45.216 16.1552 44.9043C16.3083 44.5003 16.1051 44.0497 15.7012 43.8974Z" fill="black"/>
<path d="M26.9235 45.8357C26.872 45.4077 26.4853 45.1014 26.0549 45.153C24.3254 45.36 22.5357 45.36 20.7992 45.1514C20.3696 45.0999 19.9821 45.4053 19.9306 45.8334C19.8798 46.2615 20.1852 46.6505 20.6133 46.7021C21.5444 46.8138 22.4928 46.8708 23.4333 46.8708C24.3715 46.8708 25.3167 46.8146 26.2408 46.7044C26.6697 46.6528 26.9751 46.2639 26.9235 45.8357Z" fill="black"/>
<path d="M34.288 43.3329C34.0934 42.9478 33.624 42.7915 33.2389 42.9861C32.5655 43.325 31.8688 43.6313 31.1688 43.8961C30.7658 44.0484 30.5619 44.4992 30.715 44.903C30.8337 45.2147 31.1306 45.4076 31.4461 45.4076C31.5383 45.4076 31.6312 45.3913 31.7218 45.3568C32.4718 45.0725 33.2186 44.7444 33.9404 44.3819C34.3262 44.1883 34.4817 43.7189 34.288 43.3329Z" fill="black"/>
</svg>
