<svg width="44" height="47" viewBox="0 0 44 47" fill="none" xmlns="http://www.w3.org/2000/svg">
<path d="M8.05576 35.1525C7.91967 35.1526 7.78625 35.1147 7.67048 35.0432C7.5547 34.9716 7.46115 34.8693 7.40031 34.7475L4.47094 28.8888C4.42026 28.7871 4.39394 28.675 4.39404 28.5614V3.66172C4.39404 2.69057 4.77983 1.7592 5.46654 1.07249C6.15324 0.385787 7.08461 0 8.05576 0C9.02691 0 9.95828 0.385787 10.645 1.07249C11.3317 1.7592 11.7175 2.69057 11.7175 3.66172V28.5614C11.7176 28.675 11.6913 28.7871 11.6406 28.8888L8.71121 34.7475C8.65038 34.8693 8.55682 34.9716 8.44105 35.0432C8.32527 35.1147 8.19185 35.1526 8.05576 35.1525ZM5.85873 28.3886L8.05576 32.7826L10.2528 28.3886V3.66172C10.2528 3.07903 10.0213 2.52021 9.6093 2.10818C9.19727 1.69616 8.63845 1.46469 8.05576 1.46469C7.47307 1.46469 6.91425 1.69616 6.50223 2.10818C6.0902 2.52021 5.85873 3.07903 5.85873 3.66172V28.3886Z" fill="black"/>
<path d="M10.9851 29.2936H5.12639C4.93216 29.2936 4.74588 29.2165 4.60854 29.0791C4.4712 28.9418 4.39404 28.7555 4.39404 28.5613V6.59099C4.39404 6.39676 4.4712 6.21048 4.60854 6.07314C4.74588 5.9358 4.93216 5.85864 5.12639 5.85864H10.9851C11.1794 5.85864 11.3656 5.9358 11.503 6.07314C11.6403 6.21048 11.7175 6.39676 11.7175 6.59099V28.5613C11.7175 28.7555 11.6403 28.9418 11.503 29.0791C11.3656 29.2165 11.1794 29.2936 10.9851 29.2936ZM5.85873 27.829H10.2528V7.32333H5.85873V27.829Z" fill="black"/>
<path d="M31.4908 32.2232C31.2965 32.2232 31.1102 32.146 30.9729 32.0087C30.8356 31.8713 30.7584 31.6851 30.7584 31.4908V27.9251L28.5614 24.1564L26.3643 27.9251V31.4908C26.3643 31.6851 26.2872 31.8713 26.1498 32.0087C26.0125 32.146 25.8262 32.2232 25.632 32.2232C25.4378 32.2232 25.2515 32.146 25.1142 32.0087C24.9768 31.8713 24.8997 31.6851 24.8997 31.4908V27.7266C24.9004 27.5979 24.9347 27.4717 24.9993 27.3604L27.9286 22.3365C27.9985 22.2329 28.0927 22.148 28.203 22.0894C28.3134 22.0307 28.4364 22 28.5614 22C28.6863 22 28.8094 22.0307 28.9197 22.0894C29.03 22.148 29.1243 22.2329 29.1941 22.3365L32.1235 27.3604C32.188 27.4717 32.2224 27.5979 32.2231 27.7266V31.4908C32.2231 31.6851 32.1459 31.8713 32.0086 32.0087C31.8713 32.146 31.685 32.2232 31.4908 32.2232Z" fill="black"/>
<path d="M25.632 32.2232H9.52043C9.3262 32.2232 9.13993 32.1461 9.00258 32.0087C8.86524 31.8714 8.78809 31.6851 8.78809 31.4909C8.78809 31.2967 8.86524 31.1104 9.00258 30.973C9.13993 30.8357 9.3262 30.7585 9.52043 30.7585H25.632C25.8262 30.7585 26.0125 30.8357 26.1498 30.973C26.2872 31.1104 26.3643 31.2967 26.3643 31.4909C26.3643 31.6851 26.2872 31.8714 26.1498 32.0087C26.0125 32.1461 25.8262 32.2232 25.632 32.2232Z" fill="black"/>
<path d="M43.2083 46.8701H0.732344C0.538114 46.8701 0.35184 46.7929 0.214498 46.6556C0.0771574 46.5183 0 46.332 0 46.1378V31.4909C0 31.2967 0.0771574 31.1104 0.214498 30.973C0.35184 30.8357 0.538114 30.7585 0.732344 30.7585H6.59109C6.78532 30.7585 6.9716 30.8357 7.10894 30.973C7.24628 31.1104 7.32344 31.2967 7.32344 31.4909C7.32344 31.6851 7.24628 31.8714 7.10894 32.0087C6.9716 32.1461 6.78532 32.2232 6.59109 32.2232H1.46469V45.4054H42.4759V32.2232H31.4908C31.2966 32.2232 31.1103 32.1461 30.9729 32.0087C30.8356 31.8714 30.7584 31.6851 30.7584 31.4909C30.7584 31.2967 30.8356 31.1104 30.9729 30.973C31.1103 30.8357 31.2966 30.7585 31.4908 30.7585H43.2083C43.4025 30.7585 43.5888 30.8357 43.7261 30.973C43.8635 31.1104 43.9406 31.2967 43.9406 31.4909V46.1378C43.9406 46.332 43.8635 46.5183 43.7261 46.6556C43.5888 46.7929 43.4025 46.8701 43.2083 46.8701Z" fill="black"/>
<path d="M40.2789 36.6173H10.9852C10.7909 36.6173 10.6046 36.5401 10.4673 36.4028C10.33 36.2654 10.2528 36.0792 10.2528 35.8849C10.2528 35.6907 10.33 35.5044 10.4673 35.3671C10.6046 35.2297 10.7909 35.1526 10.9852 35.1526H40.2789C40.4731 35.1526 40.6594 35.2297 40.7967 35.3671C40.9341 35.5044 41.0112 35.6907 41.0112 35.8849C41.0112 36.0792 40.9341 36.2654 40.7967 36.4028C40.6594 36.5401 40.4731 36.6173 40.2789 36.6173Z" fill="black"/>
<path d="M40.2789 39.5465H3.66167C3.46744 39.5465 3.28116 39.4693 3.14382 39.332C3.00648 39.1946 2.92932 39.0084 2.92932 38.8141C2.92932 38.6199 3.00648 38.4336 3.14382 38.2963C3.28116 38.1589 3.46744 38.0818 3.66167 38.0818H40.2789C40.4731 38.0818 40.6594 38.1589 40.7967 38.2963C40.934 38.4336 41.0112 38.6199 41.0112 38.8141C41.0112 39.0084 40.934 39.1946 40.7967 39.332C40.6594 39.4693 40.4731 39.5465 40.2789 39.5465Z" fill="black"/>
<path d="M40.2789 42.4759H3.66167C3.46744 42.4759 3.28116 42.3988 3.14382 42.2614C3.00648 42.1241 2.92932 41.9378 2.92932 41.7436C2.92932 41.5493 3.00648 41.3631 3.14382 41.2257C3.28116 41.0884 3.46744 41.0112 3.66167 41.0112H40.2789C40.4731 41.0112 40.6594 41.0884 40.7967 41.2257C40.934 41.3631 41.0112 41.5493 41.0112 41.7436C41.0112 41.9378 40.934 42.1241 40.7967 42.2614C40.6594 42.3988 40.4731 42.4759 40.2789 42.4759Z" fill="black"/>
<path d="M42.476 20.5056H16.1116C15.9174 20.5056 15.7311 20.4285 15.5938 20.2911C15.4564 20.1538 15.3793 19.9675 15.3793 19.7733V0.732344C15.3793 0.538114 15.4564 0.35184 15.5938 0.214499C15.7311 0.0771574 15.9174 0 16.1116 0L42.476 0C42.6702 0 42.8565 0.0771574 42.9938 0.214499C43.1312 0.35184 43.2083 0.538114 43.2083 0.732344V19.7733C43.2083 19.9675 43.1312 20.1538 42.9938 20.2911C42.8565 20.4285 42.6702 20.5056 42.476 20.5056ZM16.844 19.0409H41.7436V1.46469H16.844V19.0409Z" fill="black"/>
<path d="M16.1116 16.2947C15.9674 16.2947 15.8264 16.2521 15.7063 16.1722C15.5862 16.0924 15.4924 15.9789 15.4365 15.8459C15.3807 15.713 15.3653 15.5665 15.3924 15.4248C15.4195 15.2832 15.4878 15.1527 15.5887 15.0497L24.3769 6.07849C24.4438 6.00822 24.5241 5.95197 24.6129 5.91298C24.7018 5.874 24.7976 5.85308 24.8946 5.85142C24.9916 5.84977 25.088 5.86742 25.1782 5.90335C25.2684 5.93928 25.3505 5.99277 25.4198 6.06072C25.4891 6.12866 25.5442 6.2097 25.5819 6.29913C25.6196 6.38856 25.6392 6.48459 25.6394 6.58164C25.6397 6.67869 25.6207 6.77483 25.5835 6.86447C25.5462 6.9541 25.4916 7.03545 25.4227 7.10377L16.6345 16.075C16.5664 16.1445 16.485 16.1998 16.3952 16.2375C16.3054 16.2752 16.209 16.2947 16.1116 16.2947Z" fill="black"/>
<path d="M37.3495 20.5057C37.2498 20.5057 37.1512 20.4854 37.0596 20.446C36.9681 20.4066 36.8855 20.3489 36.8171 20.2765L24.3672 7.09429C24.3012 7.02437 24.2495 6.94212 24.2152 6.85224C24.1809 6.76237 24.1647 6.66661 24.1674 6.57046C24.1701 6.4743 24.1918 6.37962 24.2311 6.29182C24.2704 6.20402 24.3266 6.12483 24.3965 6.05875C24.4664 5.99268 24.5487 5.94103 24.6386 5.90675C24.7284 5.87246 24.8242 5.85622 24.9204 5.85894C25.0165 5.86166 25.1112 5.88329 25.199 5.9226C25.2868 5.96191 25.366 6.01813 25.4321 6.08805L37.8819 19.2702C37.9802 19.3742 38.0459 19.5048 38.0709 19.6457C38.0958 19.7866 38.0789 19.9318 38.0223 20.0632C37.9656 20.1946 37.8717 20.3066 37.7522 20.3852C37.6326 20.4639 37.4926 20.5057 37.3495 20.5057Z" fill="black"/>
<path d="M31.4909 13.9144C31.346 13.9144 31.2045 13.8714 31.0841 13.791C30.9637 13.7105 30.8698 13.5961 30.8144 13.4623C30.759 13.3285 30.7445 13.1813 30.7727 13.0393C30.801 12.8972 30.8707 12.7668 30.9731 12.6643L35.3671 8.27027C35.5053 8.13687 35.6903 8.06306 35.8823 8.06472C36.0743 8.06639 36.258 8.14341 36.3938 8.2792C36.5295 8.41498 36.6066 8.59866 36.6082 8.79068C36.6099 8.9827 36.5361 9.16769 36.4027 9.30581L32.0086 13.6999C31.8713 13.8372 31.6851 13.9144 31.4909 13.9144Z" fill="black"/>
<path d="M42.4758 16.1115C42.2816 16.1114 42.0954 16.0343 41.958 15.8969L35.367 9.30581C35.2336 9.16769 35.1597 8.9827 35.1614 8.79068C35.1631 8.59866 35.2401 8.41498 35.3759 8.2792C35.5117 8.14341 35.6953 8.06639 35.8874 8.06472C36.0794 8.06306 36.2644 8.13687 36.4025 8.27027L42.9936 14.8614C43.096 14.9638 43.1657 15.0943 43.1939 15.2363C43.2222 15.3783 43.2077 15.5256 43.1523 15.6594C43.0969 15.7932 43.003 15.9075 42.8826 15.988C42.7622 16.0685 42.6206 16.1114 42.4758 16.1115Z" fill="black"/>
</svg>
