<svg id="Layer_1" data-name="Layer 1" xmlns="http://www.w3.org/2000/svg" xmlns:xlink="http://www.w3.org/1999/xlink" viewBox="0 0 1440 550"><defs><style>.cls-1,.cls-6{fill:none;}.cls-2{clip-path:url(#clip-path);}.cls-3{opacity:0.68;}.cls-4{opacity:0.05;}.cls-5{clip-path:url(#clip-path-2);}.cls-6{stroke:#30519f;stroke-linecap:round;stroke-linejoin:round;stroke-width:0.5px;}</style><clipPath id="clip-path"><rect class="cls-1" y="9.11" width="1440" height="530.99"/></clipPath><clipPath id="clip-path-2"><rect class="cls-1" x="-692.5" y="9.22" width="2922.98" height="531.4"/></clipPath></defs><g class="cls-2"><g id="Mask_Group_3" data-name="Mask Group 3" class="cls-3"><g id="Group_767" data-name="Group 767" class="cls-4"><g class="cls-5"><g id="Group_766" data-name="Group 766"><path id="Path_3264" data-name="Path 3264" class="cls-6" d="M2230.21,239.6c-148.19,0-211.12-3.95-365.3,38.6-267.74,76-384.47,125.48-547.95,66.07-137.3-54.08-207.36-136.47-316.61-150-115.91-7.61-202.12,63.31-316.6,146C438.9,515.16,415.76,426.64,148,309.22c-120.71-51.35-249.56-86.16-487.08-73.8-185.45,10.21-145.61,4.19-353.13,4.19"/><path id="Path_3265" data-name="Path 3265" class="cls-6" d="M2230.21,239.6c-148.58.2-214.32-1.69-365.3,38.17-304.5,82.67-395.12,119.71-547.95,69.57-137.35-49.09-207.47-127.15-316.61-139.86-115.2-7.09-200.33,58.74-316.6,136.89C441.35,505.15,420.11,422,148,309.47c-123.74-49.7-259.35-83.75-487.08-74.64-180.39,8.14-140,4.43-353.13,4.77"/><path id="Path_3266" data-name="Path 3266" class="cls-6" d="M2230.21,239.6c-135.5.23-207.4.21-340.93,31.69C1589.4,344.52,1492.4,396.83,1329.12,354c-136.65-40-211-114.85-316.58-132-120-13.13-209.39,52.18-328.79,126.4-243.85,149.35-261.4,65-548-43.3-265.39-97.33-422.44-66.08-828-65.51"/><path id="Path_3267" data-name="Path 3267" class="cls-6" d="M2230.21,239.6c-119,.2-191.4,1.56-304.42,23.68-286,59-395.7,123.83-560.13,100.64-135.55-23.12-215-90.92-316.61-121.44-112.75-28.4-202.49,17.09-292.24,67.79C453,484.49,474.05,436.2,184.5,323.57c-318.19-121.29-504.52-84.75-876.74-84"/><path id="Path_3268" data-name="Path 3268" class="cls-6" d="M2230.21,239.6c-117.27.26-194.06,3.28-304.42,23.91-286.79,56.4-396.86,120-560.13,101.86-136.4-19-213.81-81.41-316.61-110.27C937.64,228.86,848.84,270,756.81,317.87c-301.32,158.83-279.61,110.72-572.31,5C-157.94,201.6-362.19,238.69-692.24,239.6"/><path id="Path_3269" data-name="Path 3269" class="cls-6" d="M2230.21,239.6c-469.28,1.28-653.75,161.91-901.09,122.33-180.5-33.63-247.89-126.52-414-95.37C756,301.86,644,411.34,488.92,415.11,350.4,412.32,98.18,232.94-351.29,232.48c-101.64.5-256.36,6.92-340.95,7.12"/><path id="Path_3270" data-name="Path 3270" class="cls-6" d="M2230.21,239.6c-449.95,1-656.73,149.37-888.9,126.23-181.37-22.61-252-111.62-414-88.82-158.6,27.43-271,128-426.2,133.66-109.53-.4-158.88-52-426.2-119.6-357.77-88.29-531.7-52.19-767.14-51.47"/><path id="Path_3271" data-name="Path 3271" class="cls-6" d="M2230.21,239.6c-443.45,1.21-664.45,142.9-888.9,128.19-179.16-16-246.59-94.86-401.85-79.62-155.81,20.12-262,106.27-414,117.79-120.24,5-125.2-32.33-414-104.41-425.13-104.19-574.63-62.8-803.67-62"/><path id="Path_3272" data-name="Path 3272" class="cls-6" d="M2230.21,239.6c-258.41.82-455,49.24-681.89,104.88-276.84,65.81-351.8-14.18-511.43-41.48-197-26.9-332.77,98.31-523.61,99.69C381.69,399.29,368,344.55-83.4,262.86c-319.66-56.68-413.75-24.12-608.84-23.26"/><path id="Path_3273" data-name="Path 3273" class="cls-6" d="M2230.21,239.6c-399.16,1.45-677.87,120-852.37,131.25-186.48,8.24-268.07-62.68-414-58.59-160.26,8.88-268.89,82.05-426.18,86.95-126.73.35-93.07-25.93-414-93.1-257.22-52.84-385.43-76.82-535.78-77.33-135.55.5-177.44,10.3-280.07,10.82"/><path id="Path_3274" data-name="Path 3274" class="cls-6" d="M2230.21,239.6c-118.18.49-275.18,18-389.65,36.33-260.75,42.77-296,74.62-438.36,93.13-191.73,21.56-277.57-40.53-414-44.1C828.66,325,719.33,389.6,562,396.18c-91.92,1.62-129.55-15-207-38.63-91.49-26.75-140.52-33.17-462.73-94.33-338.79-62.58-389.19-24.75-584.49-23.62"/><path id="Path_3275" data-name="Path 3275" class="cls-6" d="M2230.21,239.6c-118.56.56-303.11,21-426.17,40.19-234.11,37.3-297.69,80.49-450.55,94.32-189.72,13.66-248.58-45.55-414-35-159.16,13.17-267.8,67-426.18,52.26-89.89-10.61-107-28.23-207-51.37C219.59,321,154.46,314.15,14,288.76-232.57,243.33-302.81,220-497.41,228.37c-105.66,5.25-107.5,10.63-194.83,11.23"/><path id="Path_3276" data-name="Path 3276" class="cls-6" d="M2230.21,239.6c-99.23.53-292.94,20.23-389.65,32.89-176,23.75-195.76,35-341,73.32C1223,417.29,1147,353.09,988.19,350.06c-193.6.27-321.8,72.28-523.62,28.68-79.19-18.91-86.34-31.05-194.83-49.63-55.31-9-83.18-11.83-158.31-22.53-281-40.83-362.85-84.71-572.31-80.65-112.7,3.22-139.13,12.94-231.36,13.67"/><path id="Path_3277" data-name="Path 3277" class="cls-6" d="M2230.21,239.6c-82.58.49-411.89,26-560.13,57.9-161.69,36.71-268.77,88.3-438.36,86.61-166.31-4.39-163.4-38.75-401.84-9.88-186.38,23.19-261.53,33.6-438.38-21.89-134.82-41-212.26-26.87-438.36-69.72-194.61-37.72-273.33-66.46-462.73-55.72-97.74,6.35-99.28,11.95-182.65,12.7"/><path id="Path_3278" data-name="Path 3278" class="cls-6" d="M2230.21,239.6c-39.72.26-415.87,22.22-572.3,57.08-164.34,38.43-274.13,93.38-450.54,93.38-94.26-1.46-123.76-12.47-207-14.75-84.42-1-151.2,7.74-243.54,15.07-210,15.49-281.12-20.54-389.66-50.61-126.17-31.86-211-13.89-438.37-59.33-182.62-37.36-262.5-66.8-450.55-53.73-93.71,7.32-90.48,12.09-170.47,12.89"/><path id="Path_3279" data-name="Path 3279" class="cls-6" d="M2230.21,239.6c-56,.4-61.6,1.39-133.94,7.89-96.66,8.4-157.18,11.47-243.53,18.74-222.44,19.4-243.29,42.09-438.38,96.33C1212,417.21,1129.93,392,1012.54,388c-162.45-3.36-284.43,25.45-450.56-1.83C459.22,367.7,421.31,347.4,355,331.52c-74.42-15.7-127.66-13.66-231.36-21C-75.87,295-182.68,250.31-326.94,229.88c-166.48-21.22-246.69,8.39-365.3,9.72"/><path id="Path_3280" data-name="Path 3280" class="cls-6" d="M2230.21,239.6c-84.77.66-75.82,4.79-219.18,14.52-95.8,6.22-138.9,8-207,13.74-259.32,23.17-340,98.53-548,129.49-125.61,16.66-158.91-.28-304.42,1.95-293.49,5.88-305.49,15-560.14-63.16-104.95-30-174.38-16.25-316.61-28.37-225.87-21.53-330-89.08-535.78-86.14-112.49,3.14-134.49,16.73-231.36,18"/><path id="Path_3281" data-name="Path 3281" class="cls-6" d="M2230.21,239.6c-86.52.73-84.45,6.1-219.18,14.3-79.28,4.59-126.72,5.85-194.83,10.21-252.8,17.49-335.88,88.23-535.78,132.24-132,27.16-180.67,13.15-316.61,14.06-147.55,1.64-243.34,4.63-365.29-19.66-100.84-21.45-158.86-46.2-219.19-63.12-101.9-25.43-174.41-7.73-316.6-19.22-225.44-20.88-328.79-96-548-86.88-102.5,5.63-117.14,16.79-207,18.07"/><path id="Path_3282" data-name="Path 3282" class="cls-6" d="M2230.21,239.6c-85.66.78-84.88,6.31-207,13.42-112.42,6-178.92,5-267.9,12.5-254.14,24.08-393.51,150.86-645.38,157.22-.26,0-253.78-1.71-255.72-1.75C488.11,410.61,472.43,307.73,245.38,310.54,159.58,312.25,112,316,26.2,306.8c-175.85-21.24-278.48-77.19-438.37-86.36-129.18-5.15-171.41,17.44-280.07,19.16"/><path id="Path_3283" data-name="Path 3283" class="cls-6" d="M2230.21,239.6c-121.16,1.19-61.57,11.46-377.47,18-263.41,6.68-309.1,56.71-535.78,133-148.29,48.18-205,42.79-365.31,42.43-267.37-1.61-345-39.64-535.79-104.5-120.19-39-178.51-12-328.78-15.39-216.41-7.93-330.53-89.15-523.61-94.29-121-1-152.72,19-255.71,20.8"/><path id="Path_3284" data-name="Path 3284" class="cls-6" d="M2230.21,239.6C2120,240.76,2121.26,253.11,1925.79,255c-158.1.94-225.9-1.09-353.12,38.39-93.73,30.31-158.34,62.1-255.71,98.49-148.78,54-206.56,51.94-341,52.29-259.63-.47-361.76-48.44-535.79-112.06-124.57-44.57-155.46-25.5-304.42-18.34-230.88,8.43-338.36-72.67-523.61-92.87-137.94-12.32-195.32,16.68-304.42,18.75"/><path id="Path_3285" data-name="Path 3285" class="cls-6" d="M2230.21,239.6c-111.51,1.24-115.29,14.5-304.42,13.79-152.31-1-218.28-5.29-341,31.15-208.9,65.53-315.31,162.79-547.95,168.07C849,456.23,731.71,441.34,549.81,371.08c-198.38-77.61-184.42-79-365.31-60.84-254.94,24.28-349.44-52.06-535.79-84.78-156.09-24.41-226.24,11.72-340.95,14.14"/><path id="Path_3286" data-name="Path 3286" class="cls-6" d="M2230.21,239.6c-85.92,1-91.53,7.83-194.83,11.74-99.15,3-156.38-2-243.53-1.87-186.58,1.86-281.43,55.31-450.54,132-147,65.88-213.81,83.94-389.66,80.75-331-9.75-474-160-633.21-164.72-73.82.38-127.19,15.48-219.18,19.34-173.73,4.31-279.13-54.19-426.2-86.76-169.87-34.61-247.43,6.76-365.3,9.48"/><path id="Path_3287" data-name="Path 3287" class="cls-6" d="M2230.21,239.6c-89.27,1.11-98.53,9.16-207,11.61-94.28,1.36-148.08-4.14-231.37-5.28-183.18-.79-279.43,51.41-450.54,135-145.06,69.88-215,94.48-389.66,90.44C631,459.55,481,296.43,318.44,294.24,242.66,296,192.85,312.6,99.26,318c-173.09,6.89-278.21-53.43-426.2-87.74-169.88-36.31-248.24,6.38-365.3,9.31"/><path id="Path_3288" data-name="Path 3288" class="cls-6" d="M2230.21,239.6c-90.89,1.18-98.95,9.5-207,11.11-260.72,1.56-324.28-53.89-621,98.09-188.9,97.88-256,137.21-450.55,131.72-311.3-13.82-467.1-190-633.21-189.58C242.57,294,192.87,312.25,99.26,319.19c-172.61,9.45-278-52.85-426.2-88.73-169.8-38-248.73,6-365.3,9.14"/><path id="Path_3289" data-name="Path 3289" class="cls-6" d="M2230.21,239.6c-93.84,1.28-98.77,9.81-207,10.58-99.85-.24-157.1-8.9-243.55-11.73C1412,230.86,1318.91,508.22,939.46,488.67c-299-20.9-453.56-203.87-621-200.91-76.52,4.39-125.23,24.12-219.18,32.56C-73,332.25-178.16,268.17-326.94,230.64c-169.63-39.61-250,5.6-365.3,9"/><path id="Path_3290" data-name="Path 3290" class="cls-6" d="M2230.21,239.6c-97.22,1.36-98.43,9.94-207,9.81-260.43-2.92-331.11-69.67-633.21,100.68-179.17,102.19-249.67,152.4-438.36,145.53-171.43-9.62-296-76.71-426.2-144.45-211.13-108.33-205.9-56.47-414-31.12C-67.92,338.35-173.3,271-326.94,231c-169.84-41-249.47,5-365.3,8.61"/><path id="Path_3291" data-name="Path 3291" class="cls-6" d="M2230.21,239.6c-94.19,1.36-102.09,10-207,9.05-255.47-5.1-334-74.67-621,91.44-186,109-255.94,169.61-450.55,161.86-298.48-18.15-460-225.38-633.21-218.62-76.81,6.23-125.22,28.21-219.18,38.94-171.77,15.8-277.32-50.92-426.2-90.93-169.67-42.29-250.16,4.4-365.3,8.26"/><path id="Path_3292" data-name="Path 3292" class="cls-6" d="M2230.21,239.6c-105.42,1.57-141.8,17.15-304.42,2.18-139.15-13.67-209.47-29.95-328.76,3.45-214.09,65.51-346.92,230.64-535.79,258.55-213.35,26-362.53-57.9-523.61-148.35-146-81.25-184.13-86.18-292.24-62.13C134.7,319.09,62.22,342-71.22,313.13c-203.84-48.28-269.33-131.53-523.6-85.22-45,8.36-55.37,10.19-97.42,11.69"/><path id="Path_3293" data-name="Path 3293" class="cls-6" d="M2230.21,239.6c-103.73,1.59-142.1,16.24-292.23,1.66-140.8-14.67-211-34.28-328.77-4.59-221.66,61.85-356.6,242.12-548,273-213,28.38-366.54-63.82-523.61-155.29-144.53-83.21-183.36-88.22-292.24-62.29C134.67,319.66,62.08,344-71.22,315.07c-204.19-48.58-269-134.45-523.61-87.47-44.77,8.44-55.08,10.39-97.41,12"/><path id="Path_3294" data-name="Path 3294" class="cls-6" d="M2230.21,239.6c-102.55,1.61-143.47,16.16-292.23,0-140.31-16.29-210.85-37.49-328.77-8.06C1394.27,291.31,1252.55,475.29,1073.43,513c-215,37.55-376.35-63.67-535.8-159.51C393.72,268,354.08,263.51,245.38,291c-111.34,29.38-183.72,54.74-316.6,26C-274.48,268.44-340,179.74-594.83,227.31c-44.69,8.53-54.95,10.58-97.41,12.29"/><path id="Path_3295" data-name="Path 3295" class="cls-6" d="M2230.21,239.6c-91.82,1.45-108.8,9.92-207,5.87-251.6-13.51-343.14-100.13-621,81.48-187,124.44-253,201.6-438.39,197.38C786.3,515.57,651.91,422.58,525.45,346c-204.63-122.16-214.47-58.38-414-22.2-172.52,27.3-275.77-39.47-426.19-87.13-178.16-53.21-256.61-2.15-377.48,3"/><path id="Path_3296" data-name="Path 3296" class="cls-6" d="M2230.21,239.6c-89.67,1.42-110.87,9.69-207,5C1834.66,233,1750.08,183.75,1597,225.38c-179.43,54.24-299.88,193.88-450.55,268C856.58,624.69,578.39,354.5,415.86,287.84c-112-40.59-172.83,14.46-316.6,38.41C-148.63,361.37-262,196.05-509.59,214.51c-89,8.53-104.39,21.61-182.65,25.09"/><path id="Path_3297" data-name="Path 3297" class="cls-6" d="M2230.21,239.6c-90.72,1.46-111.49,9.5-207,4.13-187.7-13-273.53-64.22-426.19-23.13-174.32,52.33-292.89,188.52-438.39,268.14C911.28,615.49,656.1,427.64,525.45,345.33c-204.84-127.12-216.87-59.81-414-20.64-256.72,44.93-369.62-128.64-621-110.29-88.82,8.39-104.57,21.56-182.65,25.2"/><path id="Path_3298" data-name="Path 3298" class="cls-6" d="M2230.21,239.6c-105.77,1.72-152.32,15.41-304.42-8.34-135-22.21-203.44-45.2-316.58-18.7-221,58.82-358.55,266-535.78,311.51-213.09,45.52-381.05-70.59-535.8-171.24C396,261.91,355.88,256.17,245.38,287.89,135,320.94,61.6,350.5-71.22,322.57c-202.1-47.4-267.53-143.66-523.61-95.94-48.12,9.22-56.27,11-97.41,13"/><path id="Path_3299" data-name="Path 3299" class="cls-6" d="M2230.21,239.6c-104.36,1.71-153.43,15-304.42-10-134.35-23.42-203.35-47.68-316.58-21.63-222.32,58.42-358.52,270.92-535.78,318.38-213.69,47.6-384.46-73.46-535.8-173.6-141.14-92.19-181.48-98.25-292.25-65.62C134,321.37,61.17,351.45-71.22,323.87-275.71,276.22-338,178.79-594.83,226.49c-47.61,9.13-55.76,11-97.41,13.11"/><path id="Path_3300" data-name="Path 3300" class="cls-6" d="M2230.21,239.6c-100.67,1.65-151.95,13.66-292.23-9.31-137.78-23.81-204.37-50.35-316.6-29-229.26,51.4-369.58,275.79-547.95,324.89C855.32,576.08,678.2,446.83,537.63,353c-140.78-92.9-180.81-99.82-292.25-66.71C139.23,319.25,67.34,349.66-59,327.17c-202.2-41.27-273-146.29-523.61-102.92-56.76,10.41-62.31,12.86-109.59,15.35"/><path id="Path_3301" data-name="Path 3301" class="cls-6" d="M2230.21,239.6c-97.64,1.6-152.46,13.23-292.23-10.62-136.63-24.59-204.3-52.2-316.6-31.54-380.57,83-440.61,582.88-1022.87,196.83C424,277.45,387.45,248.33,269.74,278.43c-102.12,28.65-176,68.46-304.42,53.39-196.89-28.75-283-141.88-511.43-113.27-71.83,10.23-82.4,17.59-146.13,21"/><path id="Path_3302" data-name="Path 3302" class="cls-6" d="M2230.21,239.6c-103.32,1.69-157.26,13.32-304.42-14.21-135.07-26.5-203.62-53.18-316.58-29.23C1229.4,289.63,1178.33,786,586.34,386.68,412.57,268.49,377.55,247.09,257.56,281c-102,30.83-176.74,67.76-304.42,49.74-196.88-33.26-277.5-143-511.44-110.38-67.31,10.43-74.84,15.91-133.94,19.23"/><path id="Path_3303" data-name="Path 3303" class="cls-6" d="M2230.21,239.6c-103.89,1.7-158.67,12.69-304.42-15.6-134.42-27.36-203.51-55.06-316.58-31.76-378.88,91.14-431.53,597-1022.87,195C414.51,269.35,379.42,245.47,257.56,280.18,155.69,311.24,80.69,348.86-46.86,331.46c-197.51-32.48-277-143.12-511.44-111-66.46,10.12-75.26,15.75-133.94,19.14"/><path id="Path_3304" data-name="Path 3304" class="cls-6" d="M2230.21,239.6c-104.49,1.71-160.06,12.06-304.42-16.88-139-29.21-210-59.16-328.76-31.34-366.79,98.95-428.77,594.46-1010.69,196.37C414.41,268.89,379.59,244.34,257.56,279.24,155.79,310.46,80.56,348.73-46.86,332c-201.66-32.14-277.7-146.33-523.61-109.62-62.49,10.16-67.79,14-121.77,17.19"/><path id="Path_3305" data-name="Path 3305" class="cls-6" d="M2230.21,239.6c-103.9,1.72-161.3,11.55-304.42-17.67C1733.37,180.75,1625.7,124.64,1402.2,288c-145.34,109.17-223.51,207.38-341,237.44C777.65,585.37,589.13,368.62,428,286.08c-109-50.75-158.38-5.2-304.43,34.22-269.85,67.06-373.3-111.91-621-105-90.13,4.63-114.36,19.46-194.83,24.33"/><path id="Path_3306" data-name="Path 3306" class="cls-6" d="M2230.21,239.6c-103.42,1.74-162.13,11.12-304.42-18.47-137-29.83-209.86-61.42-328.76-35.55-228.8,57.89-359.68,291.48-535.79,337.13C831.32,572,664.84,443,525.45,346c-134.67-92.42-173.22-99.83-292.24-61.8C120.5,321.49,47.3,351.68-83.4,325.79c-199-44.46-258-140.79-511.43-99-47,8.1-55.16,10.21-97.41,12.81"/><path id="Path_3307" data-name="Path 3307" class="cls-6" d="M2230.21,239.6c-110.65,1.89-169.07,10.74-316.58-22-133.56-30.68-208.56-61.39-328.79-32-225.72,63.39-358.32,298.4-535.79,337-228,41.12-380.11-76.15-523.6-176.45C391.71,253.84,353.22,244.68,233.2,282.9,121.41,319.79,47.55,351.05-83.4,326.07c-198.88-43-257.34-140-511.43-99.13-51,8.6-56.19,10.08-97.41,12.66"/><path id="Path_3308" data-name="Path 3308" class="cls-6" d="M2230.21,239.6c-105.31,1.82-165.51,9.84-304.42-20.07-137.18-30.93-209.67-63.65-328.76-39.75-229.74,54.3-362.32,291.37-535.79,337.47-214.45,47.24-368-53.94-487.08-136.74C411.64,266.45,376.35,238.43,245.38,277.7c-107,33.95-184,71.64-316.6,50.89-198.51-36.4-263.49-139.5-511.43-103.41-57,8.92-61.35,11.35-109.59,14.42"/><path id="Path_3309" data-name="Path 3309" class="cls-6" d="M2230.21,239.6c-105.87,1.88-166.92,9.32-304.42-20.69-134.64-30.77-203-61.88-316.58-44.08-224.92,43.1-361.6,269.81-523.62,332-74.72,24.21-184,29.14-292.25-5.4-77.76-27-134.43-62.85-194.83-103.83-174-119.82-207.67-158-328.77-128.31C167.06,297.39,93.21,341.05-34.69,333-236.41,314.51-313.88,198.4-546.12,220.75c-75.11,8.49-78.82,14.5-146.12,18.85"/><path id="Path_3310" data-name="Path 3310" class="cls-6" d="M2230.21,239.6c-104.57,2-167.32,9.24-304.42-20.72-134-30.7-202.68-62.15-316.58-45.53-233.53,42.13-367.8,277.61-535.78,332.31-85.83,23.21-191.51,23.52-292.26-10.12C704,467.57,647.31,430.87,586.34,389c-174.19-121.25-204.54-154.84-341-114.84C141.83,306.42,67.18,343.75-59,329.89-259.66,302.27-326.9,194.14-570.48,224.06c-60.86,8.28-67.66,12-121.76,15.54"/><path id="Path_3311" data-name="Path 3311" class="cls-6" d="M2230.21,239.6c-107.12,2.11-169.72,8.73-304.42-20.74-132.86-30.48-202.28-62.43-316.58-47-233.85,39.57-369.83,274.44-535.78,328.72-85.69,23.33-192.52,25.29-292.26-6.65-77.67-27.14-134.53-63.8-194.83-105.17-173.75-120.85-204-156.27-341-116.72C138.5,305,61,344.58-71.22,327.79-270,297.15-332.76,193.37-582.65,226c-60.6,8.59-60.94,10.38-109.59,13.57"/><path id="Path_3312" data-name="Path 3312" class="cls-6" d="M2230.21,239.6c-103.71,2.14-168.92,8.91-304.42-20.77-133-30.59-202.17-62.67-316.58-48.46-235.89,37.25-369.55,270.48-535.78,325.14C995,517,885.28,524.22,781.17,492.31c-78-26.24-135.32-63-194.83-103.77C417.86,271.44,385.28,233.42,257.56,266.48c-107.09,30.45-183.69,74-316.6,62.29-200.6-23.35-266.87-131.51-511.44-103.95-61.31,7.69-66.72,11.15-121.76,14.78"/><path id="Path_3313" data-name="Path 3313" class="cls-6" d="M2230.21,239.6c-111.63,2.42-176.79,8.6-316.58-23.6C1782,184.46,1706,151,1584.84,172.88,1355.49,222.27,1229,447.52,1061.24,493.8,836,546,705.33,471,574.16,379.88c-163.48-114.95-195.37-149.37-328.78-112-106.47,32.05-184.75,73-316.6,59.06-199-26.48-260.2-130.48-511.43-100.26-58.44,7.66-60.05,9.65-109.59,12.94"/><path id="Path_3314" data-name="Path 3314" class="cls-6" d="M2230.21,239.6c-113.82,2.62-179.51,8.12-316.58-23.42C1783.15,185,1706.35,151,1584.84,171.43c-230.48,46.65-356.55,270.46-523.6,316.81-226.71,53.07-351.93-14.94-487.08-108.7C408,262.72,377.5,226.37,233.2,269.22,130.52,301.43,53.72,338.16-71.22,326.34-266.43,302.55-330.33,201-570.48,225.57c-62.15,7.16-65.72,10.28-121.76,14"/><path id="Path_3315" data-name="Path 3315" class="cls-6" d="M2230.21,239.6c-115.51,2.94-181.38,8.17-316.58-22.59-129.85-30.76-207.09-64.77-328.79-46.07-237.25,44.39-359,271.22-535.79,313.1C824.67,530.51,717.93,479.73,562,370.27,402.16,256.26,370.28,224,221,270.15,111.32,305.51,34.24,340-95.57,322.32c-191.8-31-246.12-124.06-499.26-93.53-52.44,6.77-54.34,7.92-97.41,10.81"/><path id="Path_3316" data-name="Path 3316" class="cls-6" d="M2230.21,239.6c-127.29,3.68-191.55,7.58-328.77-24.62-122.1-29.8-198.92-60.89-316.6-44.52-238.47,41-359.38,264.26-535.79,306.54C823.16,524.8,721.76,481.52,562,369.56c-155.59-110.35-188.49-146.12-328.77-106C124.46,296.69,47,335.65-83.4,323.09c-197.37-24.28-251.47-124-511.43-94-53,6.56-53.91,7.6-97.41,10.53"/><path id="Path_3317" data-name="Path 3317" class="cls-6" d="M2230.21,239.6c-127.8,4-192.9,7.8-328.77-23.76-177.75-43-301.66-99.83-511.43,31.7C1246.88,341.07,1172.87,435.63,1061.24,467c-243,58.9-349.68,4.84-487.08-89.64-161.3-112.85-193.53-154.74-328.78-120C139,287.16,59.77,330.6-71.22,323.22c-200-16.7-257.24-120.46-511.43-95.22-56.55,6.23-58.37,8.15-109.59,11.6"/><path id="Path_3318" data-name="Path 3318" class="cls-6" d="M2230.21,239.6c-128.64,4.31-194.27,8-328.77-22.91-181.69-43.56-304.75-98.87-511.43,26.79-143.71,91.24-217.08,184.92-328.77,216.44-237.82,58.31-338.65,18.48-487.08-83.28C412.49,263.7,380.66,220.71,245.38,254.55,141.92,283,66.12,324.73-59,322.71c-203.27-8.87-262.35-115.83-511.44-95.51-56.22,5.29-66.13,8.64-121.76,12.4"/><path id="Path_3319" data-name="Path 3319" class="cls-6" d="M2230.21,239.6c-128,4.65-194.49,8.62-328.77-21.84C1720.27,174.82,1595.25,119,1390,239.47c-143.15,87.93-217,181.22-328.77,212.89C825.06,511,729.89,482.16,574.16,375.82,412.47,263.15,380.89,218.73,245.38,251.72,138.32,280.55,59.42,325-71.22,321-267.38,309.63-327,208.93-570.48,227.59c-58.62,5.22-63.88,8.08-121.76,12"/><path id="Path_3320" data-name="Path 3320" class="cls-6" d="M2230.21,239.6c-126.43,5.12-194.35,9.67-328.77-20.2-118-27.44-204.64-61.47-328.77-48.13-237.43,32.43-349.77,231.61-523.62,275.36C843.14,494.36,754,499.46,562,366.32,407.85,257.61,374.59,214.82,233.21,251.89c-107,30.4-187.1,72.77-316.61,67C-277.82,304.94-331.66,207.71-582.65,229c-55.48,5.29-55.7,7-109.59,10.64"/><path id="Path_3321" data-name="Path 3321" class="cls-6" d="M2230.21,239.6c-244.53,10.71-248.88-1.52-462.71-51.59-317.38-70.38-425.77,86.67-621,209.17-36.9,21.81-62.66,38.65-219.18,67.1-330.47,54.42-423.8-231-621-227.93-72.81,5-124.29,30.59-219.19,58.32-170.13,47.17-253.39,15.8-401.84-34.2-169.12-55-245.71-29.89-377.48-20.87"/><path id="Path_3322" data-name="Path 3322" class="cls-6" d="M2230.21,239.6c-229.78,11-247,2.53-450.54-46.74-316.38-73.77-413,54.06-621,188.28-37.53,23.22-68,45.77-243.53,78.48C597.53,513,499,232.92,306.27,233.89,233.55,238.13,184,262.64,87.08,291.46c-170.71,48.35-252.75,19.42-401.84-30.27C-484.48,206.47-564,230.8-692.24,239.6"/><path id="Path_3323" data-name="Path 3323" class="cls-6" d="M2230.21,239.6c-228.25,11.89-247.28,4.18-450.54-44.74-318.45-73.88-411.94,45.12-621,177.87C1120.57,396,1093.45,415.85,915.11,453,596.06,513.55,499.28,232.5,306.27,231.43,233.94,234.9,184,258.94,87.08,288.25c-178,51.48-254.26,20.83-414-30.23-161.16-49.39-244.54-26.75-365.3-18.42"/><path id="Path_3324" data-name="Path 3324" class="cls-6" d="M2230.21,239.6c-228.63,13-249.31,5.51-450.54-42.53-320.46-73.88-411.22,36.18-621,166.92-51.61,30.95-63.83,38-231.34,79.14-173.9,40-265.36-10-389.67-97.91C423.27,263.13,387.83,230.44,306.27,229.1c-72,2.71-122.56,26.31-219.19,55.93-181.32,53.39-258.74,22.72-414-26.38-157.12-47.72-228.86-28.53-365.3-19"/><path id="Path_3325" data-name="Path 3325" class="cls-6" d="M2230.21,239.6c-125.62,7.88-196.24,14.86-328.77-11.33-97.67-20.42-193.67-53.31-316.6-54-243.91,4.23-358.72,169.86-511.41,220-230.67,67.35-315,98.87-511.45-32.93C408.57,255.74,375.84,204.87,233.21,236.77c-108,27-188.1,72-316.61,74.43-197.29-1.47-246-99.93-511.43-80-50,4.21-46.44,4.85-97.41,8.44"/><path id="Path_3326" data-name="Path 3326" class="cls-6" d="M2230.21,239.6c-127.53,8.87-198.44,15.83-328.77-9.17-93.5-19-192.9-51.86-316.6-54.69-251.77-.34-358.93,163.59-523.6,211.91C859.9,443,772.85,500.22,562,360.33,413.29,259,379.26,206.83,245.38,231.38,136.77,254.67,58.13,301.63-71.22,309c-197,6.05-253-91.37-499.26-79.31-51.69,3.16-62.6,5.71-121.76,9.92"/><path id="Path_3327" data-name="Path 3327" class="cls-6" d="M2230.21,239.6c-126.29,9.54-198,17.31-328.77-7-89.28-17.68-192.39-50.38-316.6-55.38-254.06-5.13-358.36,151.59-523.6,200.3-214.65,59.77-292.5,125.11-523.61-34.8-134.8-95.09-173.54-142-316.6-108.65C112.2,262,31.72,305.67-95.57,307.72c-191.09-2-237.72-94.28-499.26-76.29-47.39,3.7-44.68,4.38-97.41,8.17"/><path id="Path_3328" data-name="Path 3328" class="cls-6" d="M2230.21,239.6C2102.65,250,2031,258.09,1901.44,234.74c-88.25-17-201.92-51.6-328.77-56.55-247.1-4.73-348.42,140.88-511.43,189.15C860.77,424.3,775,500.88,549.81,350.23c-142.47-97.83-178.07-149-316.6-121.8-109,24.48-188.85,70.36-316.61,77.25-193.67,5.42-245.33-88.87-499.25-74.91-45.61,3-55.18,4.87-109.59,8.83"/><path id="Path_3329" data-name="Path 3329" class="cls-6" d="M2230.21,239.6c-243.85,21.43-261.62,12-462.71-31.74-335.65-70.06-398.32-3.22-621,114.78-73.87,37.51-52.57,18.86-207,75.1C787.65,452,700.59,449.08,549.81,349.45c-115.15-78.26-150-118.26-231.37-129.14-76.61-5.73-140.31,19.77-231.36,48.63C-91,324.1-165.6,309.05-314.76,263.82c-157.64-46.65-216-36.13-377.48-24.22"/><path id="Path_3330" data-name="Path 3330" class="cls-6" d="M2230.21,239.6c-127.66,12.14-199.92,21.37-328.77-.38-77.92-14.15-189.76-45.61-316.6-57.2-256.1-19.41-356.59,110.57-511.41,160.17C863.7,404.66,777.52,491.65,562,356.83,415.2,261.64,380.71,202.9,245.38,222c-108,18.88-188.63,66.3-316.6,78.8-198.72,14.44-251.41-80.08-499.25-70.5-49.12,2.49-59.8,4.61-121.77,9.27"/><path id="Path_3331" data-name="Path 3331" class="cls-6" d="M2230.21,239.6c-127.23,13-200.09,22.92-328.77,1.91-82-14.46-186.64-43.65-316.6-57.7-258.64-24.29-355.25,97.65-511.41,147.31-203.79,60.79-291,154.29-499.27,32.5-149.69-91.63-183.73-157-316.6-144.84-107.27,13.9-188.39,62-316.6,78.62C-261.9,318.8-317.25,224.18-558.3,230c-52.43,2-68,4.6-134,9.65"/><path id="Path_3332" data-name="Path 3332" class="cls-6" d="M2230.21,239.6c-127,13.83-199.78,24.53-328.77,4.19-189.89-32.43-354.28-92.46-535.78-45.92-91.7,25.85-146.92,60.27-231.37,99.18-50.48,22.24-56.37,20.47-109.59,38.07C840,400.72,757,486.19,525.45,331.91,395.16,243,356.06,194.39,208.85,225.33,94.78,252,11.17,297.28-119.93,299.05c-186.68-2.31-222.25-88.42-511.43-64.53-33.78,2.94-35,3.06-60.88,5.08"/><path id="Path_3333" data-name="Path 3333" class="cls-6" d="M2230.21,239.6c-127.82,14.87-200.56,26-328.77,6.48-233.21-38.55-379.45-99.66-572.32-42.46-90.1,28.86-144.9,63.18-219.18,92.92-49.82,18.45-54.31,15.35-109.59,37-110.13,45.46-191.7,98.72-316.6,73.28-78.84-19.52-138-60.55-194.83-100.19-112.63-79.13-157.11-116.44-316.6-74.39-112,31.2-192.86,68.32-316.6,64.73-88.55-4.88-127.23-23.94-219.18-46.55-132-30.64-203-20.76-328.78-10.78"/><path id="Path_3334" data-name="Path 3334" class="cls-6" d="M2230.21,239.6c-127.33,15.77-200.72,27.48-328.77,8.66C1827.89,236.47,1631,190,1511.79,180.75,1311.53,168.84,1215,251.07,1085.59,294c-45,13.95-53.43,15.16-97.41,33.93C878.58,376.59,796.6,428.85,671.57,401c-84.71-22.6-147.12-69.33-219.18-119.56-93.94-64.59-145.32-87.58-292.25-47.89C49.08,265-33.5,300.56-156.46,294.79c-87.85-6.38-122.76-25.23-219.19-47.28-126.61-27.13-200-17.45-316.6-7.91"/><path id="Path_3335" data-name="Path 3335" class="cls-6" d="M2230.21,239.6c-127.44,16.78-201.12,28.89-328.77,10.66-64.61-10.1-271.9-55.92-377.47-68.08-201.24-20-293.42,49.88-426.19,96.4-47.55,15.39-52.44,14.36-97.43,32.93-107.93,47.34-184.76,103.11-304.42,90.66-79.78-11.91-138-48.42-194.83-86.09-115.33-77.92-159.82-124.89-316.6-89.84C68.4,254.43-14.82,295.65-144.28,293.7-232.56,290.12-271,272-363.47,250c-131.4-29.52-203.81-20.79-328.77-10.41"/><path id="Path_3336" data-name="Path 3336" class="cls-6" d="M2230.21,239.6c-129.51,18.27-207.08,31.18-340.93,10.8-283.68-46.62-395-98.86-572.32-59.77-89.24,21.65-146.75,52-219.18,76.6-46.81,14.78-54.31,14.85-97.43,33.07C890,350,809,412.06,683.75,397c-79.23-13.12-137.6-50.27-194.83-88.18-107.12-72.1-153.79-115.36-304.42-83.5C72.88,251.13-8,290.17-132.1,292.14c-177.6-1.61-220.53-79.94-499.26-57.74-37.69,3.19-7.89.73-60.89,5.2"/><path id="Path_3337" data-name="Path 3337" class="cls-6" d="M2230.21,239.6c-129.36,19.23-207.82,32.57-340.93,12.85C1829.1,242.79,1580,192,1524,183.16c-183.86-26.49-260.13,15.16-414,68.72-53.18,17.48-60.79,16.11-109.59,37.21-111.06,51.34-191.06,116-316.6,104.53-79.38-10.89-137.57-46.68-194.83-83.87-113.87-75.32-158-117.55-316.6-82.7-116.56,27.64-200,66.6-328.78,63-82.44-4.39-117.89-20.21-207-40.58-130.57-28.29-203-20.66-328.77-9.84"/><path id="Path_3338" data-name="Path 3338" class="cls-6" d="M2230.21,239.6c-127.76,20-207.51,34.14-340.93,14.89-298.6-46.73-392.91-98.69-560.16-76.88-78.1,12-133.1,33.34-207,59-57.43,19.22-63.71,17.2-109.59,35.91C902.15,321.33,822.48,393.05,695.93,391c-80.1-5-137.86-37.3-194.83-72.57-116.63-74.23-160.4-124.29-316.6-95-115.37,24-199.7,64.9-328.78,65.24-193.44-4.23-183.93-80.87-548-49.09"/><path id="Path_3339" data-name="Path 3339" class="cls-6" d="M2230.21,239.6C1999.58,277.27,1967,271.38,1767.5,234c-333.92-60.55-348.38-106.13-645.37-8.38-91.48,29.23-82.57,16.52-207,86.68-149.82,84-238.23,105.35-389.66,21.59-154.4-89.36-180.64-153-401.84-96.92-164.54,43.09-241.25,71.12-414,29.18-169.41-41.79-222.32-42.31-401.84-26.55"/><path id="Path_3340" data-name="Path 3340" class="cls-6" d="M2230.21,239.6c-124.37,21.22-201.63,35.66-328.77,19.76-429.88-59.84-439.72-149.5-779.31-44.54-55.79,16.85-58.82,15.2-97.43,29.58-175.54,72.9-271.89,216.27-511.42,83.71C387,255.19,348.92,201.26,196.67,221.91,81.78,240.26-2.72,281.18-132.1,285.38c-201.5,1.88-190.47-78.25-560.14-45.78"/><path id="Path_3341" data-name="Path 3341" class="cls-6" d="M2230.21,239.6c-223.37,39.66-263.37,35-450.54-.2-340-62.42-371-117.87-657.54-35.39-58.47,16.65-60.76,15.1-97.43,28.76-172.54,72-272.57,222.73-511.42,96.61-123.89-68.58-160.95-121.55-304.43-108-114.27,13.81-199,54.76-328.78,62-181.41,6.17-230.78-68.65-499.25-50-21.71,1.66-13.94,1-73.07,6.21"/><path id="Path_3342" data-name="Path 3342" class="cls-6" d="M2230.21,239.6c-222.76,41.09-263.83,36.19-450.54,1.37-319.56-58.05-375.56-122.18-645.38-51-80.83,21.68-82.78,20-121.76,36.3C837.45,307,740,450.73,501.09,324.19c-117.35-65-157-116.12-304.42-100.47-111.17,14.49-192.19,51-316.6,58C-325,289-322.36,206.87-692.24,239.6"/><path id="Path_3343" data-name="Path 3343" class="cls-6" d="M2230.21,239.6c-221.12,42.31-262.74,37.62-450.54,2.93-243.5-43.76-296.61-81.67-438.36-88.21-126-3.23-281.36,42.08-316.61,55.19C858,279.66,750.23,445,513.28,331.92,387,268,350.91,210.53,196.67,224.62,81.21,238-2.57,275.84-132.1,280.62c-202.45,3.14-195.84-73.31-560.14-41"/><path id="Path_3344" data-name="Path 3344" class="cls-6" d="M2230.21,239.6c-217,43.24-269.55,37.88-438.36,6.29-85.74-15.72-98.57-14.15-207-44.11-165.08-46.17-252.43-70.07-426.2-37.71-41.76,8.47-96.09,20-133.94,33.92-166.2,69.7-276.16,240.75-511.42,135.32-123.61-59.15-158.75-115.24-304.43-108C94.48,234,9.75,271.35-119.93,278.75c-205.21,7.56-206.62-71.3-572.31-39.15"/><path id="Path_3345" data-name="Path 3345" class="cls-6" d="M2230.21,239.6c-111.06,23-189.89,38.23-304.42,28.1-55.39-5.79-230.15-35-328.76-62.21-93-26.15-155-46.84-243.54-57.35-118.73-11.86-245.84,12.09-316.6,34.1C872.14,241.66,756.79,427.57,525.45,339.9,400.25,288.18,368.58,231,233.21,227.55c-109.09.6-190.5,34-316.61,47.42-200.22,18-249.76-52.8-499.25-43.38-41.71,2-63.71,4.07-109.59,8"/><path id="Path_3346" data-name="Path 3346" class="cls-6" d="M2230.21,239.6c-110.43,23.53-190.17,38.83-304.42,28.64-53.31-5.63-230.82-35-328.76-62.41-217.9-62.34-295.07-90.42-523.6-44.32C893.35,201.4,782.59,401.75,562,352.16c-135.76-36.05-168.8-105.61-304.42-120.11C145.3,224,59.9,257.53-71.22,272.74c-205.85,20.81-257.42-47.67-499.26-41.37-46.87,1.71-72.71,4.12-121.76,8.23"/><path id="Path_3347" data-name="Path 3347" class="cls-6" d="M2230.21,239.6C2125,262.7,2046.51,277.83,1938,269.87c-67.47-6.07-248.57-38-328.77-60.24-201.26-57.26-297.79-103.29-535.78-58.95-182.92,38-296.41,250-523.62,198.48-133.3-35.62-164.69-102.65-304.43-114.67C132.71,228.37,47.63,260.46-83.4,273c-229.31,18.46-233.4-64.47-608.84-33.37"/><path id="Path_3348" data-name="Path 3348" class="cls-6" d="M2230.21,239.6C2126.69,263,2046.89,278.49,1938,270.41,1501.45,230.81,1418.16,81,1073.43,139.85,891.51,175.22,781.6,383.7,562,351.69c-129.94-24.45-164.63-89.64-292.24-111C162.55,226.4,80.41,252.16-46.86,268.22c-263,30.28-253.17-60.38-645.38-28.62"/><path id="Path_3349" data-name="Path 3349" class="cls-6" d="M2230.21,239.62c-103.25,23.79-183,39.29-292.23,31-431.13-39.89-535.43-191.13-864.55-141-182.9,32.5-298.9,252.67-523.62,219.82-133.08-25.09-162-91.68-304.43-107.75C132.61,232.34,47.78,260.4-83.4,271.29c-229.94,16-238.73-60.37-608.84-31.7"/><path id="Path_3350" data-name="Path 3350" class="cls-6" d="M2230.21,239.67C2125.39,264,2047.58,279.05,1938,270.38c-62.59-6-251.54-39.11-328.77-60.73C1442,161.3,1294.33,91.44,1073.43,120.17,893.49,148.39,779,362.59,562,350.39,432.85,337.5,398.26,273.92,269.74,249.71c-111.59-17.38-197,6.71-328.78,19.38-254.54,21.78-245.22-57.12-633.2-29.51"/><path id="Path_3351" data-name="Path 3351" class="cls-6" d="M2230.21,239.71c-105.44,24.62-181.71,39.53-292.23,30.43-66.32-6.56-257.11-41.64-316.6-57.53-163.57-45.52-325-122.29-535.79-103.19C891.2,130.35,781.43,351.67,562,349.58c-126.93-6.79-165.29-69.82-292.25-95-115.94-19.32-204.34,5-341,15.36-242.48,15.89-241.18-55.37-621-30.42"/><path id="Path_3352" data-name="Path 3352" class="cls-6" d="M2230.21,239.75c-153.64,36.11-232.89,44.74-389.65,15.62-141.88-27.07-139.62-22.1-219.18-43.2-167.85-46.41-460-174.31-645.38-81.09C835.67,208,722.75,349.91,549.81,348.67,391.07,340.52,377.11,245.61,148,251.35c-148.21,5.9-241,37.07-426.2,8.34-162.91-26.24-223.55-31.62-414-20.15"/><path id="Path_3353" data-name="Path 3353" class="cls-6" d="M2230.21,239.8c-190.83,44.91-257.33,40.76-426.17,8-90.09-17.25-106.36-15.08-194.83-39.39-202.7-57.67-465-179-645.4-81.76-145.89,84.92-261.09,230.09-438.36,221.1-147.12-14-159.48-98.13-389.66-93-172.71,6.12-222.1,34.21-450.55-1.1-150.65-22.78-227.38-22.34-377.48-14.12"/><path id="Path_3354" data-name="Path 3354" class="cls-6" d="M2230.21,239.84c-191.22,45.15-255,40.58-426.17,7-94.34-18.2-114.45-15.71-219.2-46-154.06-46-383.66-141.27-547.95-113C868.33,127.42,731.16,358.45,513.28,347.68,393.82,336.31,375.58,280.84,221,261.82c-117.84-11.86-205.57,7.9-340.95,9.26-207.08-.16-212.69-48.9-572.32-31.57"/><path id="Path_3355" data-name="Path 3355" class="cls-6" d="M2230.21,239.88c-189.7,44.67-253.48,39.85-426.17,5.53-93.19-18.15-108.8-15.18-207-42-176.85-49.87-402.61-146.71-560.14-123.78-169.77,35.51-308.7,269-523.61,268.8-121.45-5.8-138.28-64.13-304.42-82.95-118.11-11-206.09,6.64-341,5.66-199.06-3.54-206.67-45.89-560.14-31.65"/><path id="Path_3356" data-name="Path 3356" class="cls-6" d="M2230.21,239.92C2041.36,284.28,1977.77,279,1804,244c-91-17.89-108.7-15.33-207-41.43-199-54.59-411.17-148.75-560.14-131C866,102.86,724.7,339.1,513.28,349.23c-120.36,0-135.73-57.57-304.42-78.8-118-12.6-205.5,2.7-341,.84-196.31-4.54-208.36-43.11-560.14-31.75"/><path id="Path_3357" data-name="Path 3357" class="cls-6" d="M2230.21,240c-189.93,44.49-253.48,37.79-426.17,2.63-94.24-18.71-106.67-15-207-40.89C1353.7,136.8,1149.87,37.14,1012.54,68.06,842.33,117.52,696,351.16,488.92,350.55c-106.2-5.71-125.28-56.59-292.25-76.66C78.34,261.7-9.25,274.89-144.28,271c-184.75-6.95-203.79-39.86-548-31.5"/><path id="Path_3358" data-name="Path 3358" class="cls-6" d="M2230.21,240c-188,43.92-251.41,37.2-426.17,1.19-92.42-18.53-106-15.05-207-40.36C1390.11,147.24,1198,59.91,1061.24,54.39,850.76,55.84,678.79,402.48,428,345.24c-77.7-21.85-121.89-61.53-292.25-72C11,267.07-76,278.69-217.34,266.37c-119.22-11.5-192.68-31.46-474.9-26.85"/><path id="Path_3359" data-name="Path 3359" class="cls-6" d="M2230.21,240c-187.13,43.41-250.68,36.09-426.17-.49-171.13-34.61-124.79-5.35-535.78-140.85-182.59-59.5-236-71.05-341-11.69-119.95,72.59-212.14,180.89-341,241.26C400.75,407.59,406.13,286.7,87.08,274.77c-125.7-3.75-200.74,3.42-340.95-12-146.95-16.94-223.38-24.88-438.37-23.24"/><path id="Path_3360" data-name="Path 3360" class="cls-6" d="M2230.21,240c-198.45,45.5-257.86,31.91-438.36-4.91-103-20.24-169.22-19.52-414-98.62-228.18-74.61-303.92-118.9-414-76-182,80.89-336.66,324-535.77,292.33-77.43-17-120.48-57.58-304.43-72.39C2,271.9-79.78,278.87-217.34,267c-100.33-9.43-192-26.83-474.9-27.42"/><path id="Path_3361" data-name="Path 3361" class="cls-6" d="M2230.21,240c-186.73,42.3-249.89,32.91-426.17-4.35-90.36-18.58-99.49-14.66-207-37.75-265.9-58.87-397.72-135.25-523.6-156.64-195-26.37-332.86,222.37-535.8,302.07-116.57,40.1-136.65-5.5-292.25-40.7C124.43,277.2,33.89,279.79-107.75,274.31c-198.36-8.4-216.5-30.41-584.49-34.73"/><path id="Path_3362" data-name="Path 3362" class="cls-6" d="M2230.21,240.05C2040,282.63,1975.67,270.38,1804,233.77c-86-17.84-107.11-16.05-219.2-39.35C1298.76,133.11,1205.12,64,1073.43,37.32c-195.69-32.8-336.94,216.8-535.8,304.81-115.3,45.42-136,2.15-292.25-34-125.71-27.36-220.51-26.28-365.31-33.52-188.43-10.06-198.81-27-572.31-35"/><path id="Path_3363" data-name="Path 3363" class="cls-6" d="M2230.21,240.06c-185.69,41.05-251.75,29.33-426.17-8.21-108.71-22.74-222.86-29.06-414-86.6C1180.9,80.59,1096.59,12.44,988.19,31.48,833.37,68.55,710.48,248.38,549.81,334.9c-86.22,42.47-124.54,33.87-207,6.17-163.66-53.61-277.68-55.22-462.73-65.72-170-10.22-205.13-24.57-572.31-35.73"/><path id="Path_3364" data-name="Path 3364" class="cls-6" d="M2230.21,240.06c-189.07,41.08-254,27.1-426.17-10.21-82.58-17.38-101-15.85-219.2-36.93C1198.8,122.05,1129,6.57,988.19,26.41,831.53,58.56,709.47,239.32,549.81,332.78c-121,65.34-147.85,23.63-304.43-14.09C118.72,289.6,15.94,285-119.93,276.31-277.77,265.66-310,255-692.24,239.65"/><path id="Path_3365" data-name="Path 3365" class="cls-6" d="M2230.21,240c-189,40.19-254.88,25-426.17-12.27-130.19-27.51-272.09-32.62-450.55-87.68-291.12-93-321.15-220.54-596.68,19.88-96.11,85-160.37,149.7-243.53,190C410.76,393.85,395.54,357,221,318.08c-182.6-39-737.66-69.76-913.27-78.41"/><path id="Path_3366" data-name="Path 3366" class="cls-6" d="M2230.21,240c-188.94,39.3-256,22.91-426.17-14.32-90.89-19.29-145.15-21.89-267.9-41.25C1226.9,133.93,1177.44,49.6,1036.89,21.37,839.15-5.7,684.81,268,501.1,355,403,395.5,390.62,358.56,196.67,317.7c-200.53-40.53-651-64-888.91-78"/><path id="Path_3367" data-name="Path 3367" class="cls-6" d="M2230.21,240c-188.68,38.37-256.62,20.88-426.17-16.38-155.49-33.12-286.1-28.78-450.55-76.12-279.26-84.41-323.56-244.13-596.68-4-99.76,89.52-160,157-243.53,205C412,400.91,398,367.63,208.85,325-6,278.26-245.94,270.41-692.24,239.71"/><path id="Path_3368" data-name="Path 3368" class="cls-6" d="M2230.21,240c-108.69,21.59-180.08,29.1-304.42,7.61-171.9-31.85-65.33-25.88-377.47-60.87-297.2-34.4-327.75-102.39-487.08-161.21-207.78-67.77-353.16,192-535.79,314.63C421,404.88,404,376,221,332.63c-205.26-47.45-438.52-62.95-657.56-73.21-112.24-5.59-165.75-12.6-255.71-19.69"/><path id="Path_3369" data-name="Path 3369" class="cls-6" d="M2230.21,240c-108.51,21-179.72,27.76-304.42,5.82-159.27-30-103.38-34-377.47-58.59-73.15-6.8-126.84-13.52-194.83-31.43-272.39-76.6-327-265.09-596.68-27.62-99.41,90-158.95,162.77-243.53,218.61-165.58,99.93-135-54.07-925.45-84.53C-539,256.85-588.71,248.9-692.24,239.74"/><path id="Path_3370" data-name="Path 3370" class="cls-6" d="M2230.21,239.91c-180.39,34-252.76,16-426.17-22.25-172.46-36.84-276.54-19.61-426.2-50.85C1175,120.89,1102.91,14.11,976,11.34,809.11,18.45,687.63,208.93,537.62,328,406.77,425.92,403,373.31,99.25,314.77-57,285.55-246.31,270.42-326.94,266.87c-242.43-9.39-191.14-10-365.3-27.13"/><path id="Path_3371" data-name="Path 3371" class="cls-6" d="M2230.21,239.87c-287.32,52.48-329.82-33.25-621-48.55-95.69-4.59-158.61-4.55-243.55-22.18-139.94-32-181.49-79.39-304.42-136.64-217.16-92.67-358,163.65-535.79,303.09-109.72,80.46-121.2,50.72-365.31-4.61C-16,291.83-207.22,273-326.94,268.26c-224.85-7.67-183.6-8.89-365.3-28.52"/><path id="Path_3372" data-name="Path 3372" class="cls-6" d="M2230.21,239.83c-290,51.34-343.29-39.51-621-49.09-92.43-2.65-150.49-.62-231.37-14.21C1177.71,138.79,1102.66,23.56,976,10.86,765.45,3.3,621.64,306.15,452.39,378.56c-75.23,25.54-95.36-4-365.31-59.76-289.44-58.29-458.3-43.76-621-59.8-66-6.93-93.91-11.68-158.3-19.26"/><path id="Path_3373" data-name="Path 3373" class="cls-6" d="M2230.21,239.79c-289,49.44-351.8-43-608.83-49.44-93.19-1.54-149.05,3.28-231.37-7.17C1097.72,140,1038.89-105,793.35,74.09,657,179.54,566.75,326.78,452.39,379.63c-73.13,27.2-93.56,1.09-365.31-57.67-299.74-63.36-448.37-43.53-621-61.56-64.74-7.2-93.34-12.38-158.3-20.66"/><path id="Path_3374" data-name="Path 3374" class="cls-6" d="M2230.21,239.75c-288.15,47.41-363.61-47.8-608.83-49.94-93.06.13-148.54,6.95-231.37-1.64-294-37-355.7-300.71-608.84-108.82-132,105.85-218.48,246.94-328.78,301.12C378.66,410,354.83,383.62,74.9,322.1c-301.42-64.78-428.72-40.64-608.84-60.44-62.89-7.38-93-13-158.3-21.94"/><path id="Path_3375" data-name="Path 3375" class="cls-6" d="M2230.21,239.72c-288.39,45.35-372.91-52-608.83-50.23-86.54,1.65-139.89,9.56-219.18,4.93-156-12.35-212.23-70.64-341-145.72C833.21-76.81,703,168.29,525.45,329.91c-96.66,83.28-124.83,74.91-292.24,33.35C100.31,329.87,10,306.15-132.1,288.35c-291-34.67-146.15,11.31-560.14-48.65"/><path id="Path_3376" data-name="Path 3376" class="cls-6" d="M2230.21,239.68c-292.62,43.9-384.54-58.73-621-50.06-93.21,4.48-148.49,14.66-231.37,8.17-295.32-30.47-360.79-339-645.38-83.23-93.78,87.78-149.5,167-231.36,235.08C415,416,396.41,408,148,344.82c-185.31-46.34-311.81-67.88-523.61-70.6-140.22-2.43-191.5-15.38-316.6-34.55"/><path id="Path_3377" data-name="Path 3377" class="cls-6" d="M2230.21,239.65c-296.07,42.23-388.14-62.79-621-50.13-87.32,5.84-139.64,16.91-219.2,14.51C1090.89,187.67,1023.6-123.8,756.81,90,667,166.15,609.47,247,525.45,327.51c-94.79,86.4-124.31,83.67-292.24,42.12-138-34.7-317.18-89.44-560.15-93.48-183.9-2-195-8.82-365.3-36.51"/><path id="Path_3378" data-name="Path 3378" class="cls-6" d="M2230.21,239.62c-293.24,39.69-398.66-66.22-621-50.21-86.43,7.43-139.4,20.37-219.2,19.9-144.8-4.47-205.26-61.53-328.77-143-235.3-148.78-356.13,83.55-535.79,260-91.06,85.27-117.38,89.7-292.24,46.49-118.62-29.88-211.93-59-353.14-79.33-282.22-38.42-174.32,14-572.31-53.87"/><path id="Path_3379" data-name="Path 3379" class="cls-6" d="M2230.21,239.6c-295.11,37.44-404-69.14-621-50-85.57,8.82-139.13,23.46-219.2,24.92-293.49-2.2-361.59-311.07-608.84-146.81-131.78,94.75-218.6,249-328.78,316.24-61.25,31.51-91.62,25-353.13-43.63C-234.62,254.07-328,291-509.59,270.2c-65.14-8.17-91.53-14.59-182.65-30.6"/><path id="Path_3380" data-name="Path 3380" class="cls-6" d="M2230.21,239.6c-296,34.79-409.47-71.44-621-49.75-85.61,10.2-138.8,26.32-219.2,29.66-294.33,4.65-362.33-309.81-608.84-151-131.66,92.17-219,247.73-328.78,316.23C385.2,420.17,333,404.65,99.26,342.17-237.17,253.67-323.49,293-509.59,271c-66.17-8.58-92.66-15.31-182.65-31.4"/><path id="Path_3381" data-name="Path 3381" class="cls-6" d="M2230.21,239.6c-297.67,32.22-414.72-73.64-621-49.44-85.73,11.56-138.45,29.15-219.2,34.4C1100.48,235.8,1031.5-72.66,793.35,61.7c-137,85.48-227.18,251.27-341,323.82-33.3,18-50.81,22.45-97.42,18.3-83.8-10.11-159.16-33.87-267.89-63-332-87.82-414.6-44.7-608.85-70.66-63-9.09-85.41-15.08-170.47-30.56"/><path id="Path_3382" data-name="Path 3382" class="cls-6" d="M2230.21,239.6C1925,269.8,1810.35,160.17,1597,192.3c-85.79,14.35-139.22,33.11-219.19,38.07-283.19,9.36-355.25-306-596.67-160.25C648.92,157.7,562.65,314.52,452.39,386.34c-67,37.13-123.26,23.5-353.13-40.35-341.59-93.23-415.56-49-608.85-73.4-67.69-9.32-93.57-16.5-182.65-33"/><path id="Path_3383" data-name="Path 3383" class="cls-6" d="M2230.21,239.6c-305.07,27.35-426-81.3-633.18-46.8-154.19,28.41-259,84.26-414-3.45C1089.8,133,1053.1,87.79,976,53,745.77-37.67,617.47,277.38,452.39,387.15,419.57,405.77,402.26,411,355,407.59c-80.72-8.47-159-32.43-243.54-56.28-365.56-102-415.77-51.28-621-77.93-69.88-9.9-99.1-18.18-182.65-33.78"/><path id="Path_3384" data-name="Path 3384" class="cls-6" d="M2230.21,239.6c-306.45,24.83-429.32-82.69-633.18-46.22-81.2,16-130.31,35.44-207,45.62C1098.13,269.93,1030.3-51.82,793.35,67.1,661.29,141.67,575.81,296,464.57,380.19c-41.17,27.61-61.08,30.63-97.41,29.95-66.3-4.38-133.13-22.54-194.84-39.88C-258.2,247.17-280.15,299.07-485.23,277c-79.35-9.56-118.12-20.72-207-37.38"/><path id="Path_3385" data-name="Path 3385" class="cls-6" d="M2230.21,239.6C1921.93,262.06,1797.13,156.18,1597,194c-153.84,32.08-259.17,94.36-414,10.86-97.2-56.43-135.22-106.83-219.21-142.44C732.5-22.25,602.16,303.83,440.21,396.82c-29.36,13.69-45.68,18.05-97.41,13-77.4-9.64-146.9-31.19-231.37-55.67-356.13-102-409.67-53.56-608.84-78.26-75.85-10.36-110.71-20.58-194.83-36.27"/><path id="Path_3386" data-name="Path 3386" class="cls-6" d="M2230.21,239.6c-315.8,20.43-436.53-88.1-645.37-42.27-159.16,37.79-258.7,96.24-414,8.23-97.21-58.87-133.38-107.65-219.18-140.19C727.27-6.22,599.38,306.76,440.21,398.29c-110.42,51.63-291.55-49.75-535.78-93.6-195.67-33.22-250.16-9.14-401.84-28.46-77.21-10.8-108.7-20.65-194.83-36.63"/><path id="Path_3387" data-name="Path 3387" class="cls-6" d="M2230.21,239.6c-313.19,17.7-441.58-88.42-645.37-41.5-87.44,21.8-138.91,45.37-219.18,56.1C1086.15,282.77,1012.84-45.24,769,94.51c-140.35,88.79-229.94,259-340.95,311-76.44,27.13-195.07-13.15-341-56C-243.74,254-316.08,304.85-521.77,273c-69.05-11.48-95.43-19.5-170.47-33.36"/><path id="Path_3388" data-name="Path 3388" class="cls-6" d="M2230.21,239.6c-315.5,15.29-445.28-89-645.37-40.73-158.58,41.37-258.91,105.81-414,22.21-91.68-53.24-124.64-98.09-207-136-234-94.94-362.15,223.05-523.6,316.19C327.63,454.14,145.4,350-95.57,306.19c-200.15-34.37-249.64-6.94-414-31-74.13-11.74-102.21-20.77-182.65-35.56"/><path id="Path_3389" data-name="Path 3389" class="cls-6" d="M2230.21,239.6c-314.3,13-448.71-88.76-645.37-40.09C1432,240.37,1331.94,304.74,1183,234c-90.78-47.22-124.78-92.81-207-135C740.18-9.86,614,288.67,452.39,396.26c-32.61,18.58-50.22,24-97.41,21.37-80.39-7.41-151.8-31-255.72-62.43-338.48-100.93-400.5-48.74-608.85-80-74.49-12-103.86-21.37-182.65-35.63"/><path id="Path_3390" data-name="Path 3390" class="cls-6" d="M2230.21,239.6c-84.67,2.93-151.87,1.18-292.23-21-210-33.81-243-48.37-365.31-15.23-88.47,25.47-139.05,50.16-219.18,62.23-136.93,16.11-210.58-45.53-304.44-113.28-236.13-166-336.69-.43-523.6,186.05-89,85.74-122.66,102.44-292.25,57.46-175.4-48.27-290.39-103.68-548-107.59-203.6-2.44-208.64-18.71-377.48-48.62"/><path id="Path_3391" data-name="Path 3391" class="cls-6" d="M2230.21,239.6c-109.5,3.06-184.15-5-292.23-21.74-212.5-33.45-244.92-47-365.31-13.91-86.65,25.27-139.08,50.87-219.18,64-276.26,36.42-348.67-282.16-596.68-140C622,212.72,534,366.16,428,413c-80.3,26.71-200.18-17.59-341-60.14-314.73-93.81-388.28-45.23-596.67-77.78-76.95-12.85-103.61-21.79-182.65-35.48"/><path id="Path_3392" data-name="Path 3392" class="cls-6" d="M2230.21,239.6c-109.1,2.32-184.28-6.1-292.23-22.46-217-33.36-249.19-46.89-377.5-9-89,27.71-140.16,52.44-219.18,64-137.67,15.5-207.7-46.58-304.42-112.25C801.47,6.6,702.1,181,513.28,356.51,431.14,429.47,395,444,221,394.62.65,330.22-66.66,294.12-339.11,289.21c-170.72-3.46-219.1-26.93-353.13-49.61"/><path id="Path_3393" data-name="Path 3393" class="cls-6" d="M2230.21,239.6c-108.46,1.59-184.56-7.22-292.23-23.19-226.78-34.45-258.12-46.95-401.85.22C1446.44,247.05,1394,270.22,1317,277.36c-139.29,7.73-205.34-64.29-304.42-124.63-237.28-135.47-351.63,86-523.62,227.65-66.7,51-103.82,65.13-292.24,8C-61.46,308.83-90,297.19-363.47,289.2c-148.34-5.41-206.93-29.45-328.77-49.6"/><path id="Path_3394" data-name="Path 3394" class="cls-6" d="M2230.21,239.6c-140.78,1.27-238.9-15.92-401.82-39.87-126.49-17.86-167.17-25.14-304.42,21.2-76.45,26.39-139.56,52.88-219.2,58.36C1058.47,287,978.62-.87,720.28,176c-93.94,68.58-146.5,140-231.36,207.92-67,49.75-104.52,62.8-292.25,5.08-299.16-93.41-306.34-88.52-572.31-99.79-138.78-7.11-200.52-31-316.6-49.62"/><path id="Path_3395" data-name="Path 3395" class="cls-6" d="M2230.21,239.6c-210.82.84-399.16-47.78-523.6-53.15-162.89-1.92-270.24,92.65-426.19,93.71-178-5.79-233-136.73-389.66-150.52C712.88,124,599,317.3,464.57,404.46,360,464.08,259.74,400.8,26.2,337.16c-184.67-48.7-284.59-40.68-414-48.2C-518.4,280.05-579,257.11-692.24,239.6"/><path id="Path_3396" data-name="Path 3396" class="cls-6" d="M2230.21,239.6c-147.29-.15-242.49-19.31-438.36-44.48-103.48-13-145-16.51-292.25,33.74-78,26.93-140.11,50.17-219.18,51.89-238.17-3.87-313-266.62-584.49-67.22C600.32,287.16,542.56,359.2,464.57,407.75,379.73,454,306.08,424.07,111.43,362.41c-252.61-79-358.69-62.54-511.43-74-123.76-10.65-182.74-32.5-292.24-48.81"/><path id="Path_3397" data-name="Path 3397" class="cls-6" d="M2230.21,239.6c-208.64-1.25-434.26-54.32-547.95-52-156.49,8.17-262.23,93.71-414,93.76-175.3-6.53-230.42-130-389.69-131.17-171.7,7.79-283.46,183-414,260.86C357.26,466.89,253.05,398.64,26.2,337.67c-189-49-297.74-38.44-426.2-49-123.67-11.47-182.9-33.42-292.24-49.09"/><path id="Path_3398" data-name="Path 3398" class="cls-6" d="M2230.21,239.6c-147.94-1.64-248.7-22.54-462.71-46.75-235.21-25.39-322.08,92.69-511.43,89-222.5-12.57-300.92-246.12-584.49-31C512.68,375.56,477.19,445.7,355,431.77c-182.89-27-279.44-120.24-633.2-135.92-249.5-10.22-242.54-32.65-414-56.25"/><path id="Path_3399" data-name="Path 3399" class="cls-6" d="M2230.21,239.6c-142.44-2.15-236.21-21.69-462.71-46.23-237.64-24.71-332.36,94.32-523.62,87-215.77-16.08-293.15-231-584.48-10C559.22,348.5,510.2,401.16,440.21,427.93,355,453,254.38,407.19,99.26,358.79c-244.75-74.73-354.12-52.19-523.61-72.24-111.86-14.43-168-33.8-267.89-47"/><path id="Path_3400" data-name="Path 3400" class="cls-6" d="M2230.21,239.6C2088,237,1986.73,215.84,1755.32,192.75c-222.83-20.66-334.32,95.45-523.6,85.12C1019.81,259,947.9,64.45,647.22,290.05,538.31,373.44,488,423.05,415.86,435.82c-91.42,8.45-203.6-45.4-353.13-88.11C-168,283.93-271.16,311-460.88,281.34c-99.25-16.43-143.87-30.75-231.36-41.74"/><path id="Path_3401" data-name="Path 3401" class="cls-6" d="M2230.21,239.6c-140.38-3.1-269.66-27.91-487.06-47.29-211-16.49-324.87,90.42-511.43,84C1019.4,262.11,951.89,80.55,647.22,300.2,539.87,379,488,426.7,415.86,437.67c-89.74,6.38-195.38-44.46-341-86.74-234.15-65.88-337.42-37.32-535.78-69.72-97.25-16.7-145.88-31.39-231.36-41.61"/><path id="Path_3402" data-name="Path 3402" class="cls-6" d="M2230.21,239.6c-136.1-3.49-243.58-25.69-487.06-46.61-215.68-16.31-332.89,89.62-523.62,81.15C1011.24,258.47,951,96.77,635.05,318.92c-103.64,73.7-151.67,112-219.19,120.6-87.89,4.37-188.74-44-328.78-85.36-227.92-65.35-336.84-40.49-523.61-69-107.29-17.37-161.86-34.88-255.71-45.53"/><path id="Path_3403" data-name="Path 3403" class="cls-6" d="M2230.21,239.6C2044,234.17,1767.86,178.43,1621.38,196c-155.86,21.87-270.39,87.63-426.2,75.29-145.67-15.83-212.91-97.45-389.66-36.47C671.88,285.4,582.57,378.45,476.74,426.08c-95.05,37.3-162.75.5-341-57.35-164.61-52.31-249.24-57.21-426.19-67.6C-482.62,289-551.18,254.74-692.24,239.6"/><path id="Path_3404" data-name="Path 3404" class="cls-6" d="M2230.21,239.6c-154.46-4.9-456.53-56.88-596.65-44.7-156.61,16.7-271.17,78.52-426.19,74.35-157.37-8.34-217-88.07-401.85-22.2C672.24,298.59,581.77,386.39,476.75,429.18c-87.42,30.74-127.88,7-341-61.45C-31.75,315.18-117.7,313.37-290.4,302.5-475,289.85-550.6,254-692.24,239.6"/><path id="Path_3405" data-name="Path 3405" class="cls-6" d="M2230.21,239.6c-123-4.19-172.83-20.59-487.06-44.08-224-15.22-339.8,70.75-535.78,70-138.25-3.76-172.12-49-304.42-32.11-130.76,20.8-219.9,89.15-341,158.36-69.35,38.55-113.68,60.12-194.83,46.57C264.42,417.65,183.71,373.93,38.37,340c-214.13-47.53-274.08-12.54-535.78-66.5-102-21.29-130.36-27.66-194.83-33.87"/><path id="Path_3406" data-name="Path 3406" class="cls-6" d="M2230.21,239.6c-125.8-4.55-182.2-23.24-499.24-43.92-215.16-12.06-341.11,66.23-535.79,66-132.89-2.92-169.66-42.49-304.42-16.09-131,29.44-220.92,98-341,159.16C457,450.11,418.7,449,355,435.4,246.79,409.33,165.84,364.83,14,334.47c-136.19-25.61-227.06-20.94-341-32.3C-473.62,286-563,251.33-692.24,239.6"/><path id="Path_3407" data-name="Path 3407" class="cls-6" d="M2230.21,239.6c-105.82-4.06-190.25-21.75-377.47-34.87C1676.27,193,1640,186,1463.08,219.74c-106.61,20.88-169.7,34.58-255.71,38.15C1063.89,261.4,1036.27,225.47,903,253c-129,30-220.34,94.39-341,152.33-71.32,33-115.32,48-194.83,32.39C265,414.52,182.31,369.88,38.37,339c-133-26.88-229.69-23.57-340.95-33.13-157.11-15.14-250.18-54.36-389.66-66.27"/><path id="Path_3408" data-name="Path 3408" class="cls-6" d="M2230.21,239.6c-105.52-4.28-187.45-22.45-377.47-34.55-163.57-9.75-209-18-377.49,9.6-96.79,16.36-157.49,29.95-243.53,37.73-155.37,12.07-173.1-17.8-292.26,2.39C719.32,298,565.65,458.32,403.68,443.83,304.8,430.37,222.46,382.39,74.9,346.47c-211.61-48.79-286.33-12-535.78-65.71-96.76-21.18-149.1-34.58-231.36-41.16"/><path id="Path_3409" data-name="Path 3409" class="cls-6" d="M2230.21,239.6c-109.61-4.6-300.71-39.43-560.13-42.75-175.26-.2-298.3,38.16-462.71,52-164.29,12-195.52-26-389.67,53.56-204.4,86.39-297,163.31-438.37,136.12-126.46-28.42-219.14-90.39-426.19-113C-142.43,316-205.65,317.25-290.4,310c-156.5-15.28-253.28-59.21-401.84-70.39"/><path id="Path_3410" data-name="Path 3410" class="cls-6" d="M2230.21,239.6c-104.5-4.5-458.77-61.84-742.78-32.52-104,11.34-168.26,23.8-267.9,34.68-165.63,17-177.54-5.67-304.42,33.93C786.15,318.48,688.8,380.15,562,422.9,360.26,486.8,299.13,383,38.38,336.67c-131.16-21.56-227.65-14.52-341-26.29C-447.91,293.22-546.34,250-692.24,239.6"/><path id="Path_3411" data-name="Path 3411" class="cls-6" d="M2230.21,239.6c-99.69-4.41-177.4-23.25-353.12-31.81-312.72-14.09-312.25-16.31-645.37,26.4-186.06,23.12-189,5.48-304.42,44.83-120.62,43.2-214.19,100.51-341,141.79C373.49,486.25,320.18,392.4,74.9,342.14-54,317.53-142.5,324.2-266,315.45c-166.56-13.68-261.54-64.87-426.19-75.85"/><path id="Path_3412" data-name="Path 3412" class="cls-6" d="M2230.21,239.6c-88.36-4-514.61-69.83-901.09-24.48-304.5,37-310.14,38-377.47,61.77C833.86,320.65,742,378.62,610.69,420.11,381.89,488.3,331.26,393.36,87.08,343-41,318.41-126.47,326-253.87,318.1c-171.93-12.57-266.89-67.81-438.37-78.5"/><path id="Path_3413" data-name="Path 3413" class="cls-6" d="M2230.21,239.6c-76.85-3.56-125.11-14.67-243.53-24.8-104-8.31-150.07-6.16-243.53-9.92-163.06-7.21-272-13-438.38,6.72C963.1,254.28,981.69,270,769,368.48c-405.61,184.29-415.68-20.78-815.85-42-93.42-4.2-161-1.19-243.54-9.87-144.66-17.74-242.41-67.76-401.84-77"/><path id="Path_3414" data-name="Path 3414" class="cls-6" d="M2230.21,239.6c-98.72-4.61-168.2-24.51-340.93-30.06-353.07-9.52-435.95-25.09-621-.24-222.83,31.72-275.78,58.59-328.8,83.56C823.17,349.21,738.14,403.49,610.69,432.93c-214.85,44.91-294-49.76-511.43-91.74-128.18-22.7-212.12-11.93-341-18.73C-420.76,311-507.79,249.66-692.24,239.6"/><path id="Path_3415" data-name="Path 3415" class="cls-6" d="M2230.21,239.6c-78.39-3.68-113.4-14.06-231.34-24-104.94-8.13-157.32-5.08-243.55-7.05-264.06-7.85-353.35-46.13-657.54,27.73C882.25,289.84,728,474.81,464.57,441.07c-155.63-24.24-230.78-91.23-426.2-110.36C-125.18,317-215.1,343.09-387.82,300.89c-113-28.57-186.85-55.24-304.42-61.29"/><path id="Path_3416" data-name="Path 3416" class="cls-6" d="M2230.21,239.6c-96.34-4.53-163.18-25-328.77-28.71-194.1-3.19-78.52,7.4-389.65-18.29-70.53-5.53-124.78-7.88-194.83-2.94-104.41,8.78-223.92,40-292.26,68C867,327.64,731.67,464.73,501.09,444,382.63,430.15,301.52,385.9,184.5,353.68,62.09,321.9-13.34,326.05-144.28,327.74c-282.71,2.57-320-77.13-548-88.14"/><path id="Path_3417" data-name="Path 3417" class="cls-6" d="M2230.21,239.6c-95.23-4.5-158-24.54-316.58-28-133.91-2-157.54,7.17-328.79-12.32-164.35-19.18-310-42.83-535.79,47.48C886,317.09,762.6,467,525.45,446.45c-119.84-13.51-222-63.7-328.78-93.54-213-56.12-340.25-1-523.61-35.85-125.5-26.22-215.16-70.68-365.3-77.46"/><path id="Path_3418" data-name="Path 3418" class="cls-6" d="M2230.21,239.6c-94.9-4.5-158.14-25.29-316.58-27.66-136-1-167.86,9.44-328.79-12.55-169.92-23.9-311.06-55.37-535.79,46C883.91,325.31,767,480.12,525.45,447c-109.77-17.89-223.94-68.56-316.6-94.95-214.69-57.69-340.4,1.11-523.61-31.19-126.76-25.08-219.77-74.64-377.48-81.27"/><path id="Path_3419" data-name="Path 3419" class="cls-6" d="M2230.21,239.6c-95.12-4.48-157.32-26-316.58-27.12-135.07.07-174.84,11.81-328.79-12.49-185.82-30.4-306.57-64-523.6,36.91C896,318.69,784.38,479.76,549.8,449.19,437.38,431.5,303.94,370.9,196.67,343.7,73.17,314.6-2.17,324.42-132.11,331-413,343.5-450.21,249.2-692.24,239.6"/><path id="Path_3420" data-name="Path 3420" class="cls-6" d="M2230.21,239.6c-138.69-6.45-126.09-33.44-438.36-23-191.59,5.36-273.8-40.52-426.19-52.18-404.53-23.23-477,342.75-815.85,283.14-142.38-28.9-283.34-110.2-450.55-123.82-153.77-9.73-266.24,27.76-414-.18-124.1-26.32-217.91-78-377.48-84"/><path id="Path_3421" data-name="Path 3421" class="cls-6" d="M2230.21,239.6c-140.31-6.44-124.3-34.56-438.36-21.29-193.14,7-272.25-43.61-426.19-59.16C969.36,127.27,895.85,513,562,448.69,427.26,418.87,278.17,334.25,111.43,321.06c-160.44-9.6-272.17,34-426.19,3.87-124-27.16-216.75-79.66-377.48-85.33"/><path id="Path_3422" data-name="Path 3422" class="cls-6" d="M2230.21,239.6c-94-4.26-152.07-26.64-304.42-25.55-147.45,2.46-189.09,19.89-328.76-9.21-191.91-42.3-308.31-104.27-523.6,15.26-175.52,102.74-277,290.11-523.62,224.29-72.92-21.47-236.17-95.32-365.31-119-119.43-19.4-195.3-2-316.6,8.53C-400.27,354.69-439.47,248-692.24,239.6"/><path id="Path_3423" data-name="Path 3423" class="cls-6" d="M2230.21,239.6c-94.18-4.22-151.84-27.31-304.42-25.06-145.38,3.58-192.1,22.36-328.76-8.73-190.34-45.89-308.62-116.94-523.6,10.58C896.66,327,798,520.33,549.81,442.79c-49.18-16.72-211.87-91.28-341-118.26C84.11,301.09,7,319.93-119.93,333.67c-279.3,27.7-309.68-85.94-572.31-94.07"/><path id="Path_3424" data-name="Path 3424" class="cls-6" d="M2230.21,239.6c-97.06-4.25-150.57-27.94-304.42-24.49-145.8,4.77-193.65,24.89-328.76-8-190-49.12-303.67-124.59-511.44-2.37C908.34,314.92,809.14,514.45,574.16,446.54,492.59,420.29,421.63,373.17,257.56,329c-213.76-53.66-323,23-511.43,9.29-148.6-14.67-240.65-92.84-438.37-98.65"/><path id="Path_3425" data-name="Path 3425" class="cls-6" d="M2230.21,239.6c-95.46-4.07-151.42-28.5-304.42-23.89-143,5.84-191.33,26-316.58-4-186.09-48.07-305.63-138.3-511.43-18.86C915.66,304.26,818.1,513.64,586.34,446.26c-101.14-33-133.1-72-316.6-121.68-219-55.35-333.49,28.87-523.61,15-148.66-15-238.77-94.38-438.37-100"/><path id="Path_3426" data-name="Path 3426" class="cls-6" d="M2230.21,239.6c-96.14-4-151.13-29.1-304.42-23.3-144.81,7.1-192.55,28.42-316.58-3-190.7-52.13-311.14-152.54-523.62-17.47C904.22,317.88,809.55,531.35,562,433.21c-65.21-27.77-147.55-82.14-304.42-119.16C138.09,288.33,62.77,303-59,325.33c-276.65,49.63-283.3-21.45-511.44-72.08-46.79-9.56-71.1-12.32-121.76-13.65"/><path id="Path_3427" data-name="Path 3427" class="cls-6" d="M2230.21,239.6c-99.52-4-150.11-29.74-304.42-22.7-144.69,8.26-193.29,30.89-316.58-2-189.85-54.74-311.67-163.29-523.62-23.54-183,127.89-275,344.95-523.61,237.17C500.76,400.16,406.4,336,245.38,304.2c-126.18-22-207.19,2.29-328.78,25.47-306.4,55.92-321.89-83-608.84-90.07"/><path id="Path_3428" data-name="Path 3428" class="cls-6" d="M2230.21,239.6c-99.89-3.94-150.12-30.34-304.42-22.11-145.88,9.52-194.2,33.29-316.58-1C1423,160,1301.83,47,1097.78,178.55,917.27,301.84,821.26,529,586.34,434.87c-104.88-45.93-129.61-87.74-304.43-130.52C66.6,256-40.32,348.37-229.52,344.94c-160.9-7.41-250.71-100.39-462.72-105.34"/><path id="Path_3429" data-name="Path 3429" class="cls-6" d="M2230.21,239.6c-98.47-3.75-150.56-30.81-304.42-21.55-145.82,10.59-194.79,35.36-316.58.07-188.33-59.15-307.82-177.58-511.43-44-180.95,126-275.58,355.3-511.44,254C480.19,378.5,453.7,334.63,281.91,295.85c-126.32-25.8-205.47-4.44-328.77,25.37-270.85,64.15-286.69-10.7-511.44-65.42-58.75-13.26-87-15.16-133.94-16.2"/><path id="Path_3430" data-name="Path 3430" class="cls-6" d="M2230.21,239.6c-99.06-3.64-150.82-31.3-304.42-21-145.46,11.6-195.07,37.41-316.58,1.17C1421.38,159,1301,34.59,1097.78,169.72,917.33,297.26,823.26,528.88,586.34,420.58c-99.61-49.14-144.57-104.1-316.6-135.6-121.38-19.33-199.88,5.27-316.6,35.53-267,67.84-288.56-10.18-511.44-64.74C-617.11,242.42-645,240.6-692.24,239.6"/><path id="Path_3431" data-name="Path 3431" class="cls-6" d="M2230.21,239.6c-100.25-3.53-150.47-31.82-304.42-20.43-146.23,12.73-195.54,39.4-316.58,2.27-192.63-64.27-313.74-198-523.62-47.35C906.72,310.65,816.35,532.81,574.16,406.79,483.9,357,432.44,303,269.74,276.6,143.08,259.24,60.83,290.58-59,323.11c-314.8,82.81-336.9-77.6-633.2-83.51"/><path id="Path_3432" data-name="Path 3432" class="cls-6" d="M2230.21,239.6c-101-3.42-150.46-32.31-304.42-19.88-145.41,13.7-195.87,41.45-316.58,3.37-190.75-65.5-314.15-205.81-523.62-53.25C905.73,309.34,817.11,531.93,574.16,399c-89.38-51.68-142.84-108-304.42-130.79C143.93,253.75,64.45,287-59,322.62c-312.55,87.32-333.28-77.37-633.2-83"/><path id="Path_3433" data-name="Path 3433" class="cls-6" d="M2230.21,239.6c-101.72-3.31-150.63-32.8-304.42-19.32-145.85,14.78-196.29,43.42-316.58,4.47-188-66.39-309.52-208-511.43-68.16C908.64,296.35,824.05,534.66,574.16,391.21,486.3,338.09,423.43,274.1,257.56,258.7,137.66,250.89,61,285.41-59,322.12c-309.5,91.48-332.47-77.2-633.2-82.52"/><path id="Path_3434" data-name="Path 3434" class="cls-6" d="M2230.21,239.6c-101.34-3.15-146.53-31.42-292.23-20.06-146,13.53-199.19,45.13-316.6,10.53C1435.15,169,1309.55,16.52,1109.94,144.34,922.28,274.17,833,525.48,586.33,388.22c-99.23-58.6-150.36-121-316.6-136.79C144.38,243,65.7,281.62-59,321.68c-304.92,94.46-333-77-633.19-82.08"/><path id="Path_3435" data-name="Path 3435" class="cls-6" d="M2230.21,239.6c-102.31-3-146.71-31.73-292.23-19.76-145.83,14.18-199.3,46.46-316.6,11.55-189-62.69-311.83-217.9-511.44-90.75-182,125.49-274.1,370.92-511.43,244.13-115.57-66.15-144.7-119.92-304.42-139.72-121.28-11.79-201.24,22.06-316.6,63.58-269.9,95.62-299.31,10.47-523.61-50-67.21-16.89-97.09-18.26-146.12-19"/><path id="Path_3436" data-name="Path 3436" class="cls-6" d="M2230.21,239.6c-103.13-2.9-146.82-32.07-292.23-19.46-145.37,14.8-199.32,47.81-316.6,12.57C1431.33,169,1309.33,10.58,1109.94,136.94c-181.63,124.79-273,369-511.43,237.6C483.53,306.92,451.59,251.82,294.09,236c-125.85-9.1-209,31.62-328.78,76.12-253.61,91.88-295.18,5-511.43-53.53-67.1-16.93-96.53-18.26-146.12-19"/><path id="Path_3437" data-name="Path 3437" class="cls-6" d="M2230.21,239.6c-104.58-2.78-146.57-32.42-292.23-19.16C1792.44,236,1738.51,269.55,1621.38,234c-189.81-64.33-312.5-226.22-511.44-100.79-181.68,124.41-272,367.07-511.43,231.07-112.73-68.09-154-130.14-316.6-137.89C157.28,224.17,78.23,268.62-46.86,316-352.34,427.7-389,243.86-692.24,239.6"/><path id="Path_3438" data-name="Path 3438" class="cls-6" d="M2230.21,239.6C2125,237,2083.53,206.85,1938,220.73c-145.22,16.16-199.52,50.45-316.6,14.61-194-66.45-318.65-237.35-523.6-97.5C915.54,271.52,831,498.21,586.34,346.54c-101.29-65.82-155.42-130-316.6-128.75C150.68,222.34,73.17,268-46.86,315.33c-304.44,115.9-338.53-71.66-645.38-75.73"/><path id="Path_3439" data-name="Path 3439" class="cls-6" d="M2230.21,239.6c-108.93-2.58-146.07-33-292.23-18.82-144.77,16.34-199.43,50.93-316.6,15.11C1428,169.73,1302.23-2.64,1097.78,134.76,914.2,267.55,831.91,488.07,586.34,334.55,482.11,266.43,434.69,209,281.91,209.61,157.79,214,78.47,263.94-46.86,315-348,433.11-386.18,243.42-692.24,239.6"/><path id="Path_3440" data-name="Path 3440" class="cls-6" d="M2230.21,239.6c-143.36-3.2-142.41-49.08-414,.81-79.25,14.13-121.51,18.27-194.82-4.08-154.4-52.69-262.73-173.42-414-151.93C967.72,132.22,888.62,503.28,598.52,330c-90.12-56.7-126.85-97-207-118.37C138.49,155.78.13,349.24-217.34,354.83c-158.53-2-253-112.64-474.9-115.23"/><path id="Path_3441" data-name="Path 3441" class="cls-6" d="M2230.21,239.6c-111.76-2.33-150-35.24-304.42-17.4-144.73,18.93-196.7,51.26-316.58,10.43-186.59-69.77-313-232.64-511.43-103.85C975.83,214.21,901.57,341.25,769,365.21c-80.37,9.18-138.36-25.93-194.83-63.08C478.21,237.18,420.55,181,269.74,194.71,145.52,210,64.47,268-59,319.29-341.21,431-392.19,242.9-692.24,239.6"/><path id="Path_3442" data-name="Path 3442" class="cls-6" d="M2230.21,239.6c-113.15-2.21-149.82-35.44-304.42-17.38-145,19.18-196.88,51.53-316.58,10.87C1421.43,163,1296-.56,1097.78,125.78,981.1,206.21,908,325,781.17,353.5c-79.56,12.67-136.36-18.31-194.83-55.57-102.73-67.81-160.51-129.48-316.6-110.88C146.13,205.78,63,267.08-59,319.07c-279.82,113.66-332.12-76.4-633.2-79.47"/><path id="Path_3443" data-name="Path 3443" class="cls-6" d="M2230.21,239.6c-116.05-2.09-149.6-35.63-304.42-17.36-144.72,19.36-196.76,51.92-316.58,11.3C1424.57,164.74,1295-.71,1097.78,122.79,981.85,201.37,908.08,318.23,781.17,344c-80,11-137.45-21.49-194.83-58.27C482.57,217,424.69,156.6,269.74,179.38,146,201.64,64,265-59,318.85c-277.73,115.65-331.6-76.37-633.2-79.25"/><path id="Path_3444" data-name="Path 3444" class="cls-6" d="M2230.21,239.6C2114.54,237.66,2080,204,1925.79,221.9c-143,18.79-196.69,51.28-316.58,11.11-186-68.51-314.32-232.54-511.43-112.49C982.83,196.41,908.11,310.27,781.17,333.09c-80.2,9.32-138-23.78-194.83-59.89C479.57,203.31,427,150.43,281.91,170.92,158.4,192.5,76.17,256.33-46.86,313.45-333.49,440.89-387.59,242.3-692.24,239.6"/><path id="Path_3445" data-name="Path 3445" class="cls-6" d="M2230.21,239.6c-117.27-1.83-149.75-35.56-304.42-18.08-141.58,18.22-196.28,50.63-316.58,10.84-191.65-69.73-319.65-237.17-523.62-106.22-114.8,79.38-189.33,185-316.6,197-80,2.59-138.45-34-194.83-70.42C475.79,188,415.54,137.33,269.74,166.84,141.28,197.08,55.15,270-71.22,324.12c-262.68,106-325.44-82.07-621-84.52"/><path id="Path_3446" data-name="Path 3446" class="cls-6" d="M2230.21,239.6C2112.34,237.9,2085,206,1938,219.8c-142.38,15.7-198.58,50.21-316.6,15.9C1428.07,172.57,1299.2.54,1097.78,116.11,983.83,187.2,908.74,293.92,781.17,311c-79.92,5.83-137.7-27.42-194.83-62.91-106.73-68-166.12-122-316.6-87.4C146.59,193.06,63.47,262.85-59,318.94c-271.59,117.92-332-77.05-633.2-79.34"/><path id="Path_3447" data-name="Path 3447" class="cls-6" d="M2230.21,239.6C2110,238,2085.45,206,1938,219.45c-142.86,15.39-198.34,49.48-316.6,15.55-195.21-62.92-322.25-233.06-523.6-121.09-108.28,65.58-182.29,164-304.43,184.64C714.18,307.29,657.48,278,598.52,243c-113.28-69.56-169.21-124.6-316.6-91.64-122.74,31.62-205,101.7-328.78,162C-327,443.44-386.33,241.75-692.24,239.6"/><path id="Path_3448" data-name="Path 3448" class="cls-6" d="M2230.21,239.6C2107.94,238.13,2085.78,206,1938,219.11c-142,14.91-198.08,48.75-316.6,15.2-194.59-61.91-322.87-230.69-523.6-122.6C986.16,177.28,909.3,277.65,781.17,288.83c-79.41,2.36-137.14-30.9-194.83-65.92-107.53-66.6-164.71-113.19-304.43-78.12-122.59,35-205.07,107.28-328.77,168.48-278.37,131.22-339.08-71.72-645.38-73.67"/><path id="Path_3449" data-name="Path 3449" class="cls-6" d="M2230.21,239.6c-124.23-1.37-144-33.37-292.23-21.14-141.76,14-197.92,47-316.6,14.1-194.92-60.75-323.24-226-523.6-122.29-109.94,62.19-188.26,158.8-316.61,167.18-79,.78-136.64-31.88-194.83-66.33-108.46-65.33-166.18-109.28-304.43-71.06C160.44,177.79,75.14,252.76-46.86,313.47c-276.62,131-339.09-72.06-645.38-73.87"/><path id="Path_3450" data-name="Path 3450" class="cls-6" d="M2230.21,239.6c-123.28-1.23-144.34-33.08-292.23-21.82-141.15,13-197.54,45.29-316.6,12.94C1430,172.38,1304,16.39,1109.94,102.85c-110,54.66-187.49,150.18-316.6,162.68-78.61,3.41-135.52-25.73-194.83-59.11-115.9-66.8-174.22-113.88-316.6-70.94-127,42.62-213.78,123.58-341,184C-324,438.17-389.81,241.22-692.24,239.6"/><path id="Path_3451" data-name="Path 3451" class="cls-6" d="M2230.21,239.6c-124.39-1.13-144-32.82-292.23-22.5-141.11,12.07-197.37,43.49-316.6,11.79-191.22-57-317.94-209.54-511.44-127.16-104,49.49-180.45,136.42-304.42,151.78-78.33,5.7-134.54-20.19-194.83-52.32-124.52-68.38-178.64-114.55-316.6-74.28C173.49,166.32,87.68,243.43-34.69,307.79c-284.17,142.81-343.6-66.66-657.55-68.19"/><path id="Path_3452" data-name="Path 3452" class="cls-6" d="M2230.21,239.6c-127.83-1-142.53-32.65-292.23-23.18-140.46,11.09-197.06,41.73-316.6,10.63C1427.76,170.57,1303.58,22,1109.94,100.6c-105.27,47.89-186.4,136.3-316.6,142.66C590.18,243.19,518.1,51,294.09,122c-125.9,44.32-213.51,127.77-341,192.11-271.63,130-338.35-73.2-645.37-74.53"/><path id="Path_3453" data-name="Path 3453" class="cls-6" d="M2230.21,239.6c-129.6-.92-142.17-32.38-292.23-23.85-139.84,10.14-196.84,39.95-316.6,9.47C1427.48,170,1303.16,24.89,1109.94,99.48c-103.77,45-185.45,129.41-316.6,132.65-211.16-4.7-276.85-198.88-511.43-110.4C160.59,171.53,76.45,251.8-46.86,314.35-316.81,444-385.32,240.79-692.24,239.6"/><path id="Path_3454" data-name="Path 3454" class="cls-6" d="M2230.21,239.6c-130.84-.83-141.48-32-292.23-24.77-139.39,8.77-196.45,37.44-316.6,7.69-198.31-54.92-325.11-200.19-523.6-118.44-98.11,44.58-178.29,117-304.43,117.29C716.3,218.13,659.3,190.53,598.52,160c-123.15-62.52-182.86-94.5-316.6-41.08C156.28,173.21,68.27,259.74-59,320.56c-218.71,98-298.78-24.94-523.6-73.18-40.32-7.65-59.57-7.61-109.6-7.78"/><path id="Path_3455" data-name="Path 3455" class="cls-6" d="M2230.21,239.6c-133.3-.74-140-31.55-292.23-25.71-139.44,7.46-196.15,34.88-316.6,5.89-197.41-53-325.92-193.36-523.6-116.34-100,43.12-183.6,114.65-316.61,106.44C575.05,188.65,500.64,17,269.74,121.71,143.91,182.63,55.41,270-71.21,326.34c-215.22,89-298.43-39.14-523.62-81.55-34-5.31-59.79-5.07-97.41-5.19"/><path id="Path_3456" data-name="Path 3456" class="cls-6" d="M2230.21,239.6C2094.34,239,2091.64,208.48,1938,213c-138.83,6.07-195.72,32.34-316.6,4.09-199.12-51.9-326.17-186.8-523.6-114.25-92.37,37.64-176.08,102.47-304.43,97.1C585.27,183,505.34,14.41,281.92,113.47,161.51,170.67,76,254-46.86,315.53c-220.81,104.3-303.32-14.83-523.61-66.16-38.61-8.19-48-9.58-121.77-9.77"/><path id="Path_3457" data-name="Path 3457" class="cls-6" d="M2230.21,239.6C2092.19,239,2093.11,209,1938,212c-138.63,4.74-195.19,29.82-316.6,2.28C1422,164,1294.58,34.22,1097.78,102.17c-93.92,36.07-180.69,99.48-316.61,85.77C574.9,159.65,499.66,9.42,281.91,110.75,157.37,172.6,68.29,261.83-59,321.65c-212.12,93.08-294.37-22.31-511.44-72.59-37.8-8-45.31-9.29-121.76-9.46"/><path id="Path_3458" data-name="Path 3458" class="cls-6" d="M2230.21,239.6c-139.88-.46-135.68-30.16-292.23-28.51-138,3.39-194.8,27.26-316.6.47-197.87-48.31-328-173.23-523.6-110-88.75,32-172.31,88.3-304.43,76.91C582.67,153,501.19,1.16,281.92,108c-120.17,62.26-205.47,147-328.78,208.29-214.69,100.28-299.79-11.9-511.44-64.77-51.29-11.81-59.19-11.74-133.94-12"/><path id="Path_3459" data-name="Path 3459" class="cls-6" d="M2230.21,239.6c-130.36-.34-70.1-7.82-194.83-24.19-183.3-20.88-263.94,28.27-426.17-9.91-198.49-50.92-326.86-166.41-523.62-100.1-91.93,34.19-173.34,79.25-304.42,61.07C569.67,130.61,491.07-6,269.74,112.94,145.44,183.23,56,273-71.21,327.69c-208.2,82.73-290.77-35.95-511.43-81.86-29.67-5.48-30.84-6.05-109.6-6.23"/><path id="Path_3460" data-name="Path 3460" class="cls-6" d="M2230.21,239.6c-142.87-.43-62.35-8.3-207-25.86-177.29-18.47-254.5,24.79-414-11.35-198.23-48.81-328-158.83-523.62-97.49-95.33,33.14-168.26,68.86-292.25,53-217.21-34.08-300.06-170.75-523.6-46.32C141.6,186.4,48.61,281.14-83.4,332.84c-205.17,73.28-287.31-48.26-511.43-89.62-20.09-3.16-21.71-3.49-97.41-3.62"/><path id="Path_3461" data-name="Path 3461" class="cls-6" d="M2230.21,239.6c-93.94-.18-75.86,0-121.75-11-124.57-28-198.71-21.54-316.61-15.77-282.52,12.28-406.61-134.57-621-124.25-159.38,13-225.61,120.32-499.26,26.17C543.14,69.46,467.31,32.93,355,69.48c-84,30.92-151,82.86-243.54,150-310.67,222.9-385.8,122-608.84,48C-599,235.31-619.26,239.69-692.24,239.6"/><path id="Path_3462" data-name="Path 3462" class="cls-6" d="M2230.21,239.6c-98.93-.16-72.53,1.22-121.75-10.79-122.8-28.21-196.58-23.36-316.61-18.81-194.38,6.43-269.35-42.23-438.36-93.58C1050,28.21,1045.07,191.91,769,132.4c-86-20.34-136.2-45.17-219.19-68.34-175.45-45.32-254.64,21.24-438.37,156C-197.69,443.32-276,340.08-497.41,266.9c-102.25-32.13-120.17-27.23-194.83-27.3"/><path id="Path_3463" data-name="Path 3463" class="cls-6" d="M2230.21,239.6c-121.1,0-52.65,3-158.29-18.59-128.15-24.31-207.17-14.1-316.6-13.26-262.65-.83-410.87-144.91-633.19-112.07-68.91,12.33-98.54,33-194.83,40.85C804.89,143.4,723.86,109.26,610.69,73,368.84-2.44,314.63,78,74.9,246.81c-290.9,200.56-380.8,72-608.84,8.79-75.61-19.55-79.16-16-158.3-16"/></g></g></g></g></g></svg>